<?xml version="1.0" standalone="no"?>
<!DOCTYPE svg PUBLIC "-//W3C//DTD SVG 1.1//EN" "http://www.w3.org/Graphics/SVG/1.1/DTD/svg11.dtd">
<svg xmlns="http://www.w3.org/2000/svg"><metadata>This SVG WebFont was generated by YouWorkForThem.
Copyright (c) 2016 by David Kerkhoff. All rights reserved.</metadata><defs><font horiz-adv-x="499" id="ywftsvg"><font-face ascent="972" bbox="-60 -332 944 1116" cap-height="790" descent="-28" font-family="Brush Crush" font-stretch="normal" font-weight="400" panose-1="2 0 0 0 0 0 0 0 0 0" underline-position="-50" underline-thickness="50" unicode-range="U+0020-F6C3" units-per-em="1000" x-height="769"/><missing-glyph d="M484 721l28 30l16 13l8 4l14 2h15l12 -6l11 -18l2 -21l-4 -26v-9l-19 -39l-31 -46l-108 -125l-23 -53l-3 -42l3 -40l20 -53l-7 -12l7 -5l-72 -115l-15 -9l-26 -46l-39 -48l-15 -14l-3 -1l-8 -1l-9 -12l-5 1l-3 3l-10 -2l-10 9h-5l4 5h-12l-6 8l-7 5l2 14l-5 1l-6 -1 l-7 -3l-5 3l-4 1l-2 4h-5l-2 9l7 16l-14 -16l-9 2l-1 3h-5l-4 2l-3 9l-6 -4l1 5l-14 1l-3 2l-2 8l-6 3l-7 -2l1 6l-5 5l-2 3l-5 2l-1 6l-8 -3l-5 8l-4 -3v5h-6l-4 9l-11 5l1 3l-5 -1l-3 8l-4 1l3 6h-4l4 7l-6 -6l6 13l-1 4l15 27l-1 5l8 9l27 41l16 14l62 92l10 9l10 16 l-1 6l7 2l26 40l33 -1l45 3l46 21l33 26l20 29l2 7l12 17l-1 3l8 12l-5 2l4 2l7 12l1 4v4l6 7l30 61zM192 234l-14 20l-34 8l-18 -12l-8 -26l4 -38l8 -32l4 -45l80 11l34 -2l30 22v28l-16 22l-36 10l-26 -10zM152 311l3 1l-26 18l-3 -3l-3 -1l5 -5l-6 1l-3 -6l18 -14l3 2 l7 -3l-12 14l210 -143l-207 147zM560 714l-5 8l-10 7l-13 -3l-7 -7l3 -15l12 -9l12 2l6 5zM370 280l6 7h-4l-2 -3l-10 3l-58 41v10l-4 -7l-4 4l1 5l-5 -3l-50 38h-7l-6 7l-9 3l-18 11l184 -129zM321 197l16 -8l-178 126l-25 15zM143 344l3 8l-7 -10l101 -72zM387 304l5 5 l-7 4l-5 1v-5l-11 6l13 -13l8 -3zM160 320l-5 6l-20 14l-2 -3l14 -11zM188 398l-4 11l-4 -7zM247 379l-4 8l-2 -9zM344 178l-9 5l2 -4l3 -2zM394 313l3 4l-6 -1z" horiz-adv-x="610"/><glyph d="M484 721l28 30l16 13l8 4l14 2h15l12 -6l11 -18l2 -21l-4 -26v-9l-19 -39l-31 -46l-108 -125l-23 -53l-3 -42l3 -40l20 -53l-7 -12l7 -5l-72 -115l-15 -9l-26 -46l-39 -48l-15 -14l-3 -1l-8 -1l-9 -12l-5 1l-3 3l-10 -2l-10 9h-5l4 5h-12l-6 8l-7 5l2 14l-5 1l-6 -1 l-7 -3l-5 3l-4 1l-2 4h-5l-2 9l7 16l-14 -16l-9 2l-1 3h-5l-4 2l-3 9l-6 -4l1 5l-14 1l-3 2l-2 8l-6 3l-7 -2l1 6l-5 5l-2 3l-5 2l-1 6l-8 -3l-5 8l-4 -3v5h-6l-4 9l-11 5l1 3l-5 -1l-3 8l-4 1l3 6h-4l4 7l-6 -6l6 13l-1 4l15 27l-1 5l8 9l27 41l16 14l62 92l10 9l10 16 l-1 6l7 2l26 40l33 -1l45 3l46 21l33 26l20 29l2 7l12 17l-1 3l8 12l-5 2l4 2l7 12l1 4v4l6 7l30 61zM192 234l-14 20l-34 8l-18 -12l-8 -26l4 -38l8 -32l4 -45l80 11l34 -2l30 22v28l-16 22l-36 10l-26 -10zM152 311l3 1l-26 18l-3 -3l-3 -1l5 -5l-6 1l-3 -6l18 -14l3 2 l7 -3l-12 14l210 -143l-207 147zM560 714l-5 8l-10 7l-13 -3l-7 -7l3 -15l12 -9l12 2l6 5zM370 280l6 7h-4l-2 -3l-10 3l-58 41v10l-4 -7l-4 4l1 5l-5 -3l-50 38h-7l-6 7l-9 3l-18 11l184 -129zM321 197l16 -8l-178 126l-25 15zM143 344l3 8l-7 -10l101 -72zM387 304l5 5 l-7 4l-5 1v-5l-11 6l13 -13l8 -3zM160 320l-5 6l-20 14l-2 -3l14 -11zM188 398l-4 11l-4 -7zM247 379l-4 8l-2 -9zM344 178l-9 5l2 -4l3 -2zM394 313l3 4l-6 -1z" glyph-name=".notdef" horiz-adv-x="610"/><glyph glyph-name=".null" horiz-adv-x="0"/><glyph glyph-name="nonmarkingreturn" horiz-adv-x="333"/><glyph glyph-name="space" horiz-adv-x="330" unicode=" "/><glyph d="M64 178l-18 9l-24 60v277l5 78v37l7 66l9 48l9 26l7 4h7l7 4l25 3l12 4l5 -4l4 4l24 9l21 1l7 5l11 -5v-10l7 -42l-4 -51v-28l-3 -27v-67l2 -26l-2 -10v-49l3 -44v-141l4 -9l-4 -6l6 -33v-25l-13 -14v-20l-4 -3h-8l-16 -9l-60 -11h-13l-9 -8zM102 -2l-18 6h-5l-14 5 l-10 7l-8 3h-6l-7 4l-14 18v5l8 19l10 5l5 10l16 11l2 5l12 14l6 4l3 10h6l4 12h4l2 4h16l17 -12l35 -19l22 -7l3 -3h5l13 -5h6v-9l-5 -3l-7 -16l-16 -16l-9 -13l-4 -8l-12 -11l-12 -6l-17 -14h-31z" glyph-name="exclam" horiz-adv-x="235" unicode="!"/><glyph d="M42 456l-14 68l-8 248l21 28l55 11l10 -7l16 -16l14 -16l11 -46l-2 -60l-4 -11v-16l-5 -5l4 -4l-5 -20l1 -25l-13 -37v-7l-5 -5l-2 -5l-2 -24l-19 -47l-5 -8zM220 458l-14 68l-8 248l21 28l55 11l10 -7l16 -16l14 -16l11 -46l-2 -60l-4 -11v-16l-5 -5l4 -4l-5 -20l1 -25 l-13 -37v-7l-5 -5l-2 -5l-2 -24l-19 -47l-5 -8z" glyph-name="quotedbl" horiz-adv-x="345" unicode="&quot;"/><glyph d="M450 24l-20 5l-28 10l-6 1l-19 11h-4l-15 8l-8 13l-9 47l1 52l7 49h-45l-8 -1l-5 1l-57 -4l-6 -5l1 -5l-5 -23v-6l-11 -70l1 -5l-4 -14l-1 -10l-3 -7l-4 -16l-31 6l-3 1l-20 4l-33 16l-15 5l-5 10l-4 23l-1 28l3 43l6 30l-5 -2l-25 -2l-38 2l-7 4l-4 15l4 3l-1 5l2 15 l-1 4l4 27l-4 6l1 6l3 3l-3 17l8 3h9l84 6l4 12l-1 5l4 12l11 60l1 11l1 3l6 33v6l7 24l-1 5l5 17l-21 2l-25 1l-28 11l-3 4l-3 14l7 13l-1 12l6 20l-3 1l2 10l-3 5h6l-3 17l5 5l32 -3h61l27 143l5 6h6l23 -11l16 -4l31 -10l16 -9h10l3 2l3 -10l-5 -85l1 -5l-2 -18l13 -2 l40 1l39 -3l26 90l22 33h10l20 -9l27 -10h4l3 -2h6l4 -3l18 -6l6 4l2 -3l1 -11l-3 -24l-5 -9l-8 -45h57l54 -6l-1 -29l-3 -13v-15l-4 -4l-2 -15l-4 -18l-7 -5l-17 -4l-5 -4l-10 -2l-2 3v-5h-7l-6 -3h-12l-7 -1h-22l-5 -2h-17l-4 -5l-6 -22l1 -7l-4 -22l-4 -8v-12l-17 -86 l2 -6l-1 -8l108 -13l6 -3l-1 -6l-1 -24l2 -5l-2 -14l1 -6l-4 -8l1 -4l-9 -32l-15 -9l-7 2l-5 -1l-27 -1h-4l-58 1l-3 -37l-4 -5l2 -6l-8 -38l1 -5l-5 -34l-3 -12l-2 -4l2 -8l-7 -12l1 -28zM261 334h19l33 3h49l5 40l4 13l-1 3l2 6v7l14 69l1 14l5 23h-81l-10 -2l-2 -10 l-5 -16l-1 -11l-3 -3l1 -5l-4 -14l-12 -61l-5 -5l-1 -9l-3 -10z" glyph-name="numbersign" horiz-adv-x="682" unicode="#"/><glyph d="M225 -65l-5 84h-8l-5 -4l-23 7h-10l-19 8l-59 31l-16 14l-23 24l-8 11l-18 36l-7 25l-4 32l4 36l6 14l10 5l6 9l12 6l15 18l11 5l3 6l9 9l5 9l13 9l4 7l14 -15l8 -52l6 -22v-11l6 -17l11 -17l6 -15l21 -22l16 -13l12 -4v224l-30 22l-42 26l-57 49l-30 37l-12 27l-3 15v45 l18 39l18 24l18 19l5 10v10l11 21l28 30l35 23l63 17l4 14l4 4l2 20l5 16l6 4h15l1 -16l5 -24l5 -12l58 -13l40 -18l14 -10l28 -25l19 -27l12 -22l8 -24v-13l3 -4l3 -24l6 -19v-12l-8 -23l-10 -7l-29 -10l-7 -8l-9 -2l-19 -16h-4l-14 -9h-7l-5 4l-16 41l-16 58l-17 29h-9 l-12 -16l3 -10l-8 -64l-1 -31l-4 -20v-27l96 -66l52 -46l18 -21l2 -5l4 3l-1 -5l3 -8l10 -9l13 -31l9 -37v-18l-4 -3v-42l-5 -17l-6 -5l-4 -13l-7 -10l-8 -4l-11 -11l-21 -10h-6l-17 -7l-2 -6l-9 -11l-2 -6l-2 -3l-6 -6l-11 -5l-8 -6l-21 -5l-5 -6l-6 -1l-30 -20l-42 -10 l-6 -7l-7 -36l-15 -48zM297 121l8 -3l7 8l22 46l8 39l-6 34l-7 23l-29 38h-4l-10 -20v-26l-4 -22l-1 -33l-5 -27l1 -52zM193 548l27 -24l2 97l-2 11l-20 -7l-18 -16l-5 -23l7 -13l1 -7z" glyph-name="dollar" horiz-adv-x="512" unicode="$"/><glyph d="M138 39l1 13l36 98l29 100l11 30l18 70l24 65l4 20l15 28l59 160l60 139l13 24l6 5l26 -11l17 -2l27 -10l9 3l5 -3l3 -7l-22 -87l-11 -28l-13 -42l-3 -3l-16 -50l2 -6l-29 -70l-8 -10l-36 -101l-6 -1l-9 -42l-35 -103l-13 -49l-13 -36l-38 -87l-6 -2l-3 -9l-4 -5l-9 -18 h-22l-43 -5zM455 4l-12 10l-6 2h-5l-6 4h-6l-13 9l-5 8l-15 15l-11 16l-12 34l-5 37l-1 52l2 7l-1 10l3 29l5 20l17 43l12 24l13 14l49 23l17 3h35l8 -4l10 -2l20 -14l20 -16l15 -16l17 -26l15 -37l5 -20l4 -29v-21l-2 -20l-5 -11l1 -5l-4 -7l-13 -31l-8 -5l-1 -7l-2 -5 l-14 -16l-4 -2l-36 -51l-53 -13l-11 1l-8 -4zM487 66l13 -2h17l4 2l13 15l11 28l9 49l1 17l-4 38l-10 27l-15 24l-16 15l-19 8l-9 -16l-14 -37l1 -7l-5 -9l-9 -39l1 -9l-1 -14v-33l3 -40l13 -10zM117 448l-12 10l-6 2h-5l-6 4h-6l-13 9l-5 8l-15 15l-11 16l-12 34l-5 37 l-1 52l2 7l-1 10l3 29l5 20l17 43l12 24l13 14l49 23l17 3h35l8 -4l10 -2l20 -14l20 -16l15 -16l17 -26l15 -37l5 -20l4 -29v-21l-2 -20l-5 -11l1 -5l-4 -7l-13 -31l-8 -5l-1 -7l-2 -5l-14 -16l-4 -2l-36 -51l-53 -13l-11 1l-8 -4zM149 510l13 -2h17l4 2l13 15l11 28l9 49 l1 17l-4 38l-10 27l-15 24l-16 15l-19 8l-9 -16l-14 -37l1 -7l-5 -9l-9 -39l1 -9l-1 -14v-33l3 -40l13 -10z" glyph-name="percent" horiz-adv-x="644" unicode="%"/><glyph d="M223 -7l-19 4h-11l-40 10l-63 35l-17 15l-18 12l-14 14l-10 16l-8 27l-3 26v58l4 23l21 59l12 17l11 25l22 23l23 30l43 38l-5 12l-5 5l-5 10l-27 42l-9 17l-12 37v49l12 48l18 37l15 21l18 19l17 7h13l3 -4l8 4l2 3l15 12l3 4l23 12l25 5h33l18 -2l21 -7l14 -3l4 -5h7 l10 -9l11 -7l11 -12l-2 -3h4l11 -14v-4l5 -2l14 -32l5 -29l6 -17l-6 -29l-4 -4v-11l-6 -19l-4 -5l-5 -11v-8l-6 -7l-8 -4l-2 -8h-4l-8 -11l-8 -15l-10 -10l-4 -7l-7 -7l-4 -9v-5l-12 -13l-5 -13l-7 -10l6 -5l5 -18l20 -23l3 -6l7 -6l1 -6l19 -21l2 -7l6 -3l5 -9l40 -45 l42 63l10 9l9 17l19 27l20 25l9 3l2 -13l3 -3l10 14h4l1 -14l-1 -26l1 -9l-1 -13l-6 -27l-1 -17l-5 -8l4 -4l-4 -10l5 -5v-7l-3 -3l-11 -17v-7l-13 -19l-1 -16l-6 -4l-3 -8l-8 -3l-10 -17l7 -13l12 -17l13 -24l20 -26l9 -15l17 -18l12 -17l3 -11l14 -21v-6l-16 -4h-6l-7 -3 h-11l-7 -4h-30l-45 10l-34 21l-19 15l-3 5l-9 8l-4 5l-22 19l-5 -5l-3 -10l-31 -28l-9 -4l-33 -20h-7l-17 -9l-12 -3l-5 -4l-29 5zM191 114l19 -3h36l20 3l12 4l20 9l4 5l39 27l-8 11l-6 6l-8 11l-19 31l-17 21l-9 8l-7 11l-31 41l-15 -30v-5l-7 -10l-1 -4l-12 -19v-6l-5 -9 l-5 -23l-4 -6l-5 -21l-3 -35l3 -17h9zM262 508h4l8 9l30 23l10 21l2 29l-6 28l-14 25l-13 12l-15 7l-5 -6l-5 -11l-4 -2l-27 -61l9 -31l8 -16z" glyph-name="ampersand" horiz-adv-x="634" unicode="&amp;"/><glyph d="M42 456l-14 68l-8 248l21 28l55 11l10 -7l16 -16l14 -16l11 -46l-2 -60l-4 -11v-16l-5 -5l4 -4l-5 -20l1 -25l-13 -37v-7l-5 -5l-2 -5l-2 -24l-19 -47l-5 -8z" glyph-name="quotesingle" horiz-adv-x="167" unicode="'"/><glyph d="M218 5h-17l-6 4h-16l-12 5l-47 14l-19 12l-25 27l-27 38l-15 35l-9 34l-1 23l-4 26l7 179l7 60l9 27v20l8 37l4 14l6 15l6 24l30 55l18 16l12 14l19 17l19 14l8 3l17 19l9 2l19 15l18 10l20 2l10 5h7l21 -13l19 -7l7 -7l4 -6v-6l-11 -5l-8 -9h-4l-4 -4l-8 -3l-11 -10 l-10 -5l-21 -2l-21 3l-8 -11l-6 -17v-22l-3 -5l-8 -24v-9l-4 -6l2 -6v-36l-5 -8l3 -24v-14l-5 -5v-32l-2 -6l-1 -27l-3 -13l4 -12v-15l-2 -12l6 -11v-41l-4 -9v-49l-4 -9l3 -7l-8 -18v-10l4 -8v-12l-4 -9v-29l6 -2l2 -23l8 -10l13 -23l14 -15l17 -16l7 -3l23 -15l33 -11 l28 3l-10 -7l-19 -17l-16 -11l-16 -22l-9 -2h-9l-4 -6z" glyph-name="parenleft" horiz-adv-x="352" unicode="("/><glyph d="M151 5h-17l-31 -4l-4 6h-9l-9 2l-16 22l-16 11l-19 17l-10 7l28 -3l33 11l23 15l7 3l17 16l14 15l13 23l8 10l2 23l6 2v29l-4 9v12l4 8v10l-8 18l3 7l-4 9v49l-4 9v41l6 11l-2 12v15l4 12l-3 13l-1 27l-2 6v32l-5 5v14l3 24l-5 8v36l2 6l-4 6v9l-8 24l-3 5v22l-6 17 l-8 11l-21 -3l-21 2l-10 5l-11 10l-8 3l-4 4h-4l-8 9l-11 5v6l4 6l7 7l19 7l21 13h7l10 -5l20 -2l18 -10l19 -15l9 -2l17 -19l8 -3l19 -14l19 -17l12 -14l18 -16l30 -55l6 -24l6 -15l4 -14l8 -37v-20l9 -27l7 -60l7 -179l-4 -26l-1 -23l-9 -34l-15 -35l-27 -38l-25 -27 l-19 -12l-47 -14l-12 -5h-16z" glyph-name="parenright" horiz-adv-x="352" unicode=")"/><glyph d="M246 176l-4 9l-32 131l-5 4l-104 -76l-17 -6l-4 -3l-18 3l-8 10v7l-3 6l-3 13v11l-4 3v6l-6 6l2 5l-8 10l5 6l37 27l30 28l9 5l17 13l-9 8l-75 48l-26 26v10l18 21l3 6l5 2l2 6l13 23l6 8v7h5l51 -37l13 -6l28 -20l-8 32l-2 21l-6 22v44l6 7l10 1l7 -2l16 4l12 -2l3 3h12 l6 3l19 5l6 -2l1 -25l15 -74l12 -43l31 24l67 42l26 12h6l4 -7l5 -4l14 -30l9 -37l-15 -10l-13 -15l-23 -22l-4 -6l-13 -9l-20 -18l-4 -1l-15 -16l11 -8l13 -4l24 -14l48 -32l3 3l4 -6l-5 3l2 -5l-3 -3v-6l-5 -10l-6 -6l-3 -5l-13 -15l-7 -4l-12 -12l-2 -4h-9l-40 22l6 -48 l2 -53l-4 -2h-6l-3 -2l-40 -7l-17 1h-20z" glyph-name="asterisk" horiz-adv-x="455" unicode="*"/><glyph d="M193 154l-11 60l-3 30v68l-4 75h-6l-11 2h-64l-16 4h-21l-7 -3l-8 10h-5l-10 6l-7 13l1 30l2 3v5l4 8v7l-2 5l2 3v12l3 3l-5 5l4 4v8l8 7l3 -4l70 7h65l12 161l5 15l7 9h16l3 3l3 -3l3 3l6 2h10l3 -2l4 2l6 -4l6 6l3 -3l5 3l19 3l7 6l5 -11v-11l6 -77v-94l13 -4h47l22 -4 h14l16 -6l5 -4v-39l-2 -6v-17l-3 -7v-5l-3 -7v-12l-3 -4l-2 -8l-19 -7l-7 -6l-13 -5l-61 -2v-38l6 -46v-17l-2 -4v-21l-2 -11l2 -8l-6 -30v-4l-6 -8l-11 -32h-5l-9 -2l-21 -8l-24 3z" glyph-name="plus" horiz-adv-x="441" unicode="+"/><glyph d="M95 -80l16 47v32l-4 13l-13 6h-7l-9 6l-12 3l-41 27l-5 10l7 15l19 12l4 8h5l2 4l7 5l2 4h4l12 15l6 2l2 4l12 11l10 13h8l23 -10l50 -26l25 -30l-12 -11l-3 -20l-13 -27l-4 -12l-22 -35l-19 -22l-18 -17l-23 -18z" glyph-name="comma" horiz-adv-x="238" unicode=","/><glyph d="M124 338l-65 4l-6 -2h-12l-3 3h-5l-13 11l5 25l-2 4l-1 7l3 1v5l-2 3l4 2l1 41l15 4l330 6l8 -3h15l1 -12l2 -6v-12l5 -10l2 -10l5 -10l-5 -8v-13l7 -10l-6 -5l-11 -2l-3 -5l-8 -3l-28 -5h-233z" glyph-name="hyphen" horiz-adv-x="433" unicode="-"/><glyph d="M53 5l-15 21l-5 9l-6 6l-4 13l3 3l-5 6l-1 33l7 5l9 9h4l4 2l5 -2h5l7 7l6 1l18 -3l7 3l15 9l13 -9l7 13h6v-4l5 -5v-11l14 -36l7 -32l6 -11v-9l-32 -13l-29 -5h-21l-22 -16z" glyph-name="period" horiz-adv-x="185" unicode="."/><glyph d="M20 39l1 13l36 98l29 100l11 30l18 70l24 65l4 20l15 28l59 160l60 139l13 24l6 5l26 -11l17 -2l27 -10l9 3l5 -3l3 -7l-22 -87l-11 -28l-13 -42l-3 -3l-16 -50l2 -6l-29 -70l-8 -10l-36 -101l-6 -1l-9 -42l-35 -103l-13 -49l-13 -36l-38 -87l-6 -2l-3 -9l-4 -5l-9 -18 h-22l-43 -5z" glyph-name="slash" horiz-adv-x="403" unicode="/"/><glyph d="M265 9h-13l-45 14l-10 5h-4l-29 19l-32 29l-18 19l-16 27l-6 6l-16 29l-18 41l-10 31l-21 89l-7 80l5 79l15 73l9 29l29 61l8 11l8 5l4 5l12 8l11 13l10 19l26 26l1 3l24 23l24 15l37 10l31 4h42l6 -2h10l33 -11l26 -13l38 -27l14 -17l15 -15v-11l6 -2l14 -33l6 -8l6 -14 l-2 -4l3 -9l5 -5l4 -16l7 -14l-3 -7l4 -4v-22l2 -5v-10l4 -5l5 -21v-9l2 -5v-11l3 -6l4 -48v-20l2 -9v-60l-5 -9v-16l-6 -11v-4l-3 -7v-15l2 -8l-6 -42l-6 -12l-4 -17l-11 -17l-5 -2h-4l-10 -18l-6 -17l-2 -9l-9 -9l-5 -14l-19 -19l-2 -4l-9 -9l-22 -26l-13 -18h-4l-4 -4 l-7 -4l-5 -5l-26 -12l-28 -4h-29zM292 141l35 -7h8l20 53l15 118v16l4 23l1 45l-1 12l3 30l-26 147l-5 5v5l-21 49l-17 19l-16 10l-24 7h-11l-13 -4l-3 -8l-8 -10l-7 -15l-4 -4l-8 -23l-7 -6l-8 -22l-6 -28l-5 -10v-8l-2 -4v-11l-8 -15v-14l-5 -5v-32l-3 -9l3 -6v-44l1 -12 l-1 -13l9 -35l4 -30v-17l5 -26l4 -5v-13l9 -22v-16l13 -23l16 -16l12 -6l10 -7l25 -10z" glyph-name="zero" horiz-adv-x="550" unicode="0"/><glyph d="M31 13l-2 86l-4 18l4 73v77l4 41l-4 71l2 134l-11 240l15 5l16 7h7l6 4l11 2l13 8l9 2l20 8l2 6h23l20 -24l-6 -7l8 -120v-195l3 -26l-3 -6l2 -5l4 -39v-34l-4 -28v-78l-4 -39v-53l-5 -55l-4 -19v-12l-4 -15v-14l-10 -6l-73 -3l-6 -2h-12l-5 -2h-12z" glyph-name="one" horiz-adv-x="190" unicode="1"/><glyph d="M116 -5h-17l-15 7l-34 36l-14 20l-7 23l-6 6l-3 27l3 40l15 42l16 32l16 27l21 31l13 16l73 77l7 3v4l27 27l77 96l18 29l5 19l4 22v25l-11 28l-7 7l-9 2l-20 -2l-4 -6l-6 -5h-4l-13 -12l-5 -2l-4 -5v-5l-15 -5l-2 -6l-9 -7l-6 -2l-9 -8l-3 -8l-14 -18l-8 -3l-12 -13 l-4 -2l-2 -5l-12 -9h-30l-13 9v7l-3 11l-4 4v7l-12 38l-2 23l-4 8v7l-2 3v18l11 29l16 25l20 19l25 20l12 7l7 6l38 18l21 7h6l3 3h16l4 2h29l7 2l3 -2h18l32 -7l17 -5l12 -8l41 -35l2 -4l7 -4l14 -17l21 -34l4 -15l6 -11l-2 -5l2 -16l5 -16l4 -24l-8 -11v-20l2 -5l-2 -3 v-24l-3 -3v-16l-10 -34l-3 -2l-5 -16l-4 -6l-4 -13l-8 -10l-7 -12l-13 -8l-3 -9l-8 -7l-30 -37l-5 -11l-11 -11l-2 -3l-14 -15h-4l-3 -5l-2 -9l-11 -12l-9 -7l-5 -11l-5 -3v-4l-9 -8l-4 -9l-11 -3l-4 -17l-12 -12l-1 -5l-4 -4l-7 -14l-6 -5l-5 -13h13l10 4h16l8 3h51l54 -8 l40 -9l15 -7l19 -5l30 10l12 5l3 -3v-34l-4 -10l-3 -20l-12 -39l-41 -31h-5l-6 -5h-25l-11 2l-25 10h-17l-4 2h-9l-8 4l-4 -2l-8 2h-10l-4 3l-7 -3h-20l-10 -6h-13l-3 -2l-8 -3l-7 2l-5 -6l-9 -2l-4 -12h-5l-4 -2l-32 -9l-19 -1l-11 -4h-20l-5 -6z" glyph-name="two" horiz-adv-x="518" unicode="2"/><glyph d="M192 30h-13l-5 1h-9l-5 2l-9 -4l-22 11h-5l-25 16l-34 33l-22 35l-15 44l-8 59v45l4 11l19 19h4l9 11l5 -3l2 4l9 5l5 5h4l7 9h5l3 9l8 3l10 -1l19 -27l7 -15l3 -12l11 -29l2 -10l4 -4l1 -5l7 -18l6 -9l7 -18l17 -20l10 -14l5 -2l19 -12l34 -14l27 -3l10 3l16 23l14 37 l17 77l4 41v41l-4 18l-10 20l-10 14l-35 31l-23 10l-21 7l-18 3l-6 3l-7 2h-10l-6 1l-11 -3h-9l-8 12v6l5 7l11 5l18 16l1 4l4 2l2 3l11 7l7 23l7 6l7 14l18 28l5 22l-3 21l-4 9l-18 14l-12 2l-4 2l-8 -14h-5l-12 -6l-7 -2l-6 -5l-21 -11l-9 -9l-9 -3l-14 -14l-5 -7h-4 l-38 -41l-3 -7l-5 -7l-31 3l-12 7h-4v15l-5 12l-4 18l2 7l-7 19v31l-2 8v17l4 16l12 14l7 14l18 22l36 25l39 19l39 11l27 2l6 -2l3 2h23l18 -2l39 -13l43 -28l29 -29l17 -37v-11l3 -3v-18l-3 -8l3 -16l-3 -14v-13l-5 -3l-4 -11l-7 -4l-2 -7l-9 -9l-1 3l-14 -7v-11l5 -3 l17 -6l16 -7l24 -14l3 -2l22 -18l5 -9l4 -2l28 -37l13 -29l5 -28l3 -5l-8 -8v-16l4 -8l5 -22v-11l1 -4v-55l-3 -11v-24l-6 -8l-5 -27l-5 -2l-2 -7v-16h-4l-4 -17l-12 -11l-14 -23l-4 7l-1 -3l3 -4l-9 -9l-16 -7l-4 -5l-17 -6l-7 -1l-4 -4l-11 -5l-17 -16l-12 -8h-6l-5 -5 l-32 -14l-5 -6l-17 -1l-14 -8l-19 -1l-4 1h-21l-14 -5zM297 31l-5 -3h-9zM306 37h5l-9 -4z" glyph-name="three" horiz-adv-x="507" unicode="3"/><glyph d="M340 8h-12l-7 7l-13 20v15l-2 4v7l-2 12l-2 27v72l2 15v37h-53l-13 -2h-19l-10 -5l-35 4l-5 -3l-23 -2h-28l-6 2h-7l-36 8h-8l-24 6l-10 10l-7 14v60l7 69l25 92l53 155l-2 7l43 96l25 35l12 6h9l25 3l7 2l6 -4l16 4h17l3 -4l8 -3l3 -5l3 -20l-5 -14v-7l-4 -33l-5 -9 l-4 -30l-13 -35l-6 -25l-5 -7l-1 -5v-7l-8 -28l-3 -6l-14 -47v-10l-6 -11l-2 -10v-8l-1 -3v-10l-4 -7v-9l-6 -6l3 -4l-10 -20l-3 -20l-7 -15v-6l59 4h49l5 2h17l5 12l-5 135l2 43l6 3l5 5h51l4 -5h7l5 -2l5 2l9 -2l13 4l7 7h4l3 -4l2 -7v-7l12 -70v-11l3 -24v-33l-2 -13v-31 h40l53 -17l5 3h12l24 3l-4 -16l-4 -9l-3 -12l-9 -22l-5 -7l-18 -38l-42 -24l-4 -5l-12 1h-24l-7 4l-2 -5l-1 -17v-37l-2 -13v-43l-4 -2l6 -5v-13l1 -8v-26l2 -5v-11l-3 -3l-2 -21h-7l-12 -5h-16l-7 1l-3 -5l-10 -2l-18 2l-6 -3z" glyph-name="four" horiz-adv-x="596" unicode="4"/><glyph d="M234 -1h-13l-10 2h-13l-16 6h-25l-23 7l-1 3l-11 3l-7 8l-13 8l-18 15l-21 26l-10 18l-18 23l-15 61v18l18 23l17 9l4 7l13 13v4l9 6l2 8l7 2l4 9h8l16 -9l4 -13l13 -26l7 -9l4 -14l34 -43l38 -31h60l6 7l34 52l11 24l5 24v44l-29 87l-20 26l-31 15l-17 4l-27 2h-39 l-8 -2h-12l-51 -7h-35l-4 5l2 11h-9l-16 147v49l5 49v38l4 26v10l7 3l9 19l14 15l23 5l9 -4l117 4l122 -12h15l30 -6l10 -11l10 -8l4 -16v-10l-8 -14l-3 -22l-19 -61l-3 -2l-8 6l-13 3l-173 9l-6 -6l2 -29v-41h82l13 -3l10 -6h6l44 -19l39 -29l16 -20l3 -2l22 -33h6l3 -4 l11 -5l-5 -7l14 -31v-13l5 -5l6 -14v-8l6 -23v-10l4 -7v-42l-2 -25l-8 -20l-4 -13v-9l-7 -9l-3 -12l-10 -5l-38 -71l-13 -21l-4 -11l-20 -28l-6 -4l-6 -7l-11 -7h-6l-4 -9l-11 -12l-17 -5l-1 -4l-11 -6l-9 -2l-2 -4h-8l-18 -5z" glyph-name="five" horiz-adv-x="491" unicode="5"/><glyph d="M294 -3l-48 9l-41 13l-24 16l-29 9h-6l-28 14l-17 4l2 6l-23 23l-13 22l-15 32l-32 122v73l4 23v13l10 37l-2 51l2 37l12 65l16 39l30 27l14 23l9 8l-3 20l13 34l22 24l29 23l30 15l54 11h51l23 -5l9 -5l39 -13l24 -16l21 -23h4l13 -20v-10h4l10 -11l16 -34l3 -15l-5 -19 v-11l-4 2l-28 -26h-9l-12 -12l-23 -13l-29 -14h-10l-8 -3l-22 72l-25 30l-14 5h-41l-11 -3l-19 -9l-3 -6v-13l-12 -27v-24l-11 -22v-23l-4 -11v-17l-3 -27v-20l28 15l39 13h13l4 2h8l36 5l20 -4h16l25 -4l21 -8l33 -17l8 -10l18 -13l3 -9l11 -11l3 -8l6 -5v-6l4 -8l4 -2 l4 -14l6 -7l7 -20l-3 -11l3 -19l9 5v-63l-4 -21l-20 -44l-3 -10l-7 -7l-4 -11l-14 -29l-12 -15l-7 -19l-8 -6l-5 -14l-30 -37l-19 -10h-8l-24 -17h-4l-20 -7h-12zM307 139l29 -2l27 5l27 11l8 8l-11 93l-25 53l-25 25l-20 6h-32l-4 4h-11l-15 -4h-17l-8 -3h-9l-17 -12h-7 l-12 -15l10 -51l14 -31l3 -11l5 -8l4 -19l5 -12l13 -20l46 -11l5 -4z" glyph-name="six" horiz-adv-x="530" unicode="6"/><glyph d="M85 5l-5 23l46 175l20 58v10l42 122l19 44l63 190l-1 4h-45l-15 -2l-86 -2l-56 5l-32 8h-9l-6 6v6l5 14v11l4 4l5 11l-1 14l7 12v10l3 8v6l7 17l5 7l6 3l41 4h26l56 -5l78 1l151 -18l11 -7l1 -14l8 -5l6 -11l-6 -5l-7 -19v-47l-9 -31v-12l-4 -4l-7 -40l-11 -29l-8 -38 v-16l-8 -34l-10 -25l-5 -30l-4 -5l-7 -19v-5l-17 -35l-11 -37l-1 -16l-3 -2v-8l-6 -12l-4 -20l-5 -3l-3 -23l-3 -3l-2 -22l-5 -15l-10 -6l-2 -16l-9 -14v-11l-4 -10l-6 -4v-7l-7 -14l-9 -13v-7l-5 -4l-3 -17l-6 -6l-3 2v-4l-5 -12v-5l-16 -4l-7 4l-7 -5l-2 -3l-10 5h-8 l-3 -2h-19l-22 -5l-40 -3z" glyph-name="seven" horiz-adv-x="459" unicode="7"/><glyph d="M302 0l-3 3h-11l-3 3h-24l-7 -3h-28l-41 7l-21 9l-31 19l-18 14l-9 2l-19 17l-41 55l-12 22l-10 31l-4 30v66l14 47l28 59l27 30l19 17l22 16l-25 17l-36 36l-9 12l-8 17l-12 39l-3 3v67l5 21l8 22l8 11l26 26l33 21l33 26l20 12l39 19l15 2l29 8h44l4 -3h16l41 -19 l26 -26l3 -7l5 -4l2 -5l4 -2l5 -10l7 -7l6 -19l6 -8v-15l10 -11l4 -13l2 -54l-5 -8l3 -5v-17h-7l1 -4l-5 -9l3 -4l-5 -5l2 -4l-3 -4v-10l-3 -4l1 -3l-4 -2h4v-4l-3 -1l-17 -18h-4v-4l-5 -11l-6 -7l-10 4l-9 -6l-9 -2l17 -12l61 -70l35 -52l24 -51l-1 -14l5 -3l7 -34l3 -31 l-3 -3v-15l-3 -7v-6l-4 -13v-8h-5l-7 -6l-4 2l-5 -43l-12 -9l-18 -18l-2 -8l-5 -5l6 -3l-9 -6l-3 -6l-9 -5l-9 -1l-8 -12l-29 -4l-9 -9l-19 -12l-18 -7zM288 114l16 -2l5 3l8 22l8 34l2 22l-4 56l-13 47l-23 38l-24 24h-5l-24 -22l3 -2v-4l-8 -6l-1 -4l-8 -10l-2 -7l-5 -3 v-5h-4l-2 -6l-5 -2l2 -5h5v-5h-5l-5 -6l-2 -8l5 3h4l-4 -11l-3 -1v-4l-5 -3v-5l-6 -1l4 -5l5 7l-2 -17l-3 -10l-4 -5l4 1v-13l-2 -3l3 -19l-3 -3l4 -1l1 -9l4 -8l1 -9l18 -15l28 -13l27 -5h15zM230 527l5 4l17 18l12 18l13 41v34l-8 22l-10 1l-2 3l-4 -4l-1 3l-8 -3l-4 4 l-5 -3h-14l-24 -2l-12 -9l-8 -25l3 -9l-4 -16l4 -9l3 -19l2 -3l7 -19l10 -10zM220 330l7 -4l3 3l-3 6zM424 619l5 -3l2 7l3 2h-6z" glyph-name="eight" horiz-adv-x="528" unicode="8"/><glyph d="M228 -10h-10l-49 9h-7l-24 11h-4l-51 33l-19 16l-18 21l-17 28l-5 15l5 11l4 3l3 14l5 3l3 7l4 5l3 11l7 16l4 3v7l4 11l8 6l3 16h17l6 -11l23 -18l22 -22h5l21 -18l11 -6l8 -8l19 -9l23 -5l33 -4l22 2l22 4l6 5v8l14 59l4 23v19l6 14l8 93l-4 35h-5l-21 -28l-32 -24 l-13 -7l-13 -3l-13 -5h-11l-7 3h-20l-28 3l-18 6l-41 20l-24 16l-14 11l-4 6l-15 15l-6 11l-6 6l-22 48l-5 27l-5 41v45l2 7v14l5 16v11l15 15l6 11l10 13l27 44l27 26l18 9l20 21l19 7h11l11 -6l35 -2l70 -11l45 -29l14 -11l21 -19l14 -10l3 -8l4 -2l16 -17l4 -14l4 -4 l8 -20v-4l6 -13l3 -10l4 -5l5 -11v-14l6 -13l7 -24l13 -58v-23l5 -17v-7l2 -5v-14l3 -16l-5 -10l2 -7v-29l-7 -7v-12l-5 -8v-36l-4 -10l-4 -30l-6 -8l-3 -18l-15 -19l-3 -1l-3 -8l-9 -16v-4l-4 -16l-8 -15v-6l-4 -1v-6l-4 -3v-5l-8 -14l-1 -15l-11 -15l3 -14l-10 -10l-4 -7 l-4 -3l-2 -6l-10 -4l-3 -6l-15 -10l-16 -9h-4l-13 -10l-13 -3l-3 -2l-20 -4h-30zM261 461l13 -1h39l16 3l5 3l-10 45l-24 65l-11 18l-31 34l-33 20l-49 5l-18 -2l-2 -13l-4 -11l6 -16v-23l3 -5l5 -15l1 -20l8 -28l16 -27l17 -16l5 -3l37 -13h11z" glyph-name="nine" horiz-adv-x="503" unicode="9"/><glyph d="M53 471l-15 21l-5 9l-6 6l-4 13l3 3l-5 6l-1 33l7 5l9 9h4l4 2l5 -2h5l7 7l6 1l18 -3l7 3l15 9l13 -9l7 13h6v-4l5 -5v-11l14 -36l7 -32l6 -11v-9l-32 -13l-29 -5h-21l-22 -16zM53 5l-15 21l-5 9l-6 6l-4 13l3 3l-5 6l-1 33l7 5l9 9h4l4 2l5 -2h5l7 7l6 1l18 -3l7 3l15 9 l13 -9l7 13h6v-4l5 -5v-11l14 -36l7 -32l6 -11v-9l-32 -13l-29 -5h-21l-22 -16z" glyph-name="colon" horiz-adv-x="185" unicode=":"/><glyph d="M53 471l-15 21l-5 9l-6 6l-4 13l3 3l-5 6l-1 33l7 5l9 9h4l4 2l5 -2h5l7 7l6 1l18 -3l7 3l15 9l13 -9l7 13h6v-4l5 -5v-11l14 -36l7 -32l6 -11v-9l-32 -13l-29 -5h-21l-22 -16zM95 -80l16 47v32l-4 13l-13 6h-7l-9 6l-12 3l-41 27l-5 10l7 15l19 12l4 8h5l2 4l7 5l2 4h4 l12 15l6 2l2 4l12 11l10 13h8l23 -10l50 -26l25 -30l-12 -11l-3 -20l-13 -27l-4 -12l-22 -35l-19 -22l-18 -17l-23 -18z" glyph-name="semicolon" horiz-adv-x="238" unicode=";"/><glyph d="M458 192l-36 -4l-4 4l-8 -1v5l-2 -3l-5 -1l-4 4l-9 -2l-8 3h-10v6l-3 -3l-10 6l-4 -2l-10 3l-8 5l-24 7v4l-5 -2l-8 5h-7l-1 5l-2 -4l-4 3l-31 11l-5 4l-34 11l-30 16l-12 1l-13 5l-9 6l-37 17l-21 12l-8 2l-59 37l-7 14l3 11l17 17l-2 5l4 4v5l3 3v6l-3 5l3 5v9l-2 5 l2 4l174 52h6l14 5l64 14l43 6l66 18l83 15l48 1l-1 -34l-4 -21l5 -4l-6 -6v-7l-5 -5l-1 -9l16 -9l-5 -4h-11l-10 -6l-2 -11h-6l-5 -3l-21 -4l-19 -2l-19 -8h-4l-3 -3h-9l-4 -4l-20 -4l-11 -4h-8l-3 -3l-7 -2h-14l-4 -2h-7l-6 -3h-4l-3 -3l-26 -2l-8 -3l-36 -5l-1 -3l-9 -1 l-3 -3h-12l-5 -4l17 -8l75 -26l49 -14l15 -6l48 -13l67 -25l4 -4l15 -5v-4l-10 -15l-6 -3l-4 -6l-4 -2l-9 -12l-6 -3l-4 -6l4 -4l-14 -1l-4 -6l-4 -2l-7 -8l4 -4v-4l-8 2z" glyph-name="less" horiz-adv-x="567" unicode="&lt;"/><glyph d="M124 242l-65 4l-6 -2h-12l-3 3h-5l-13 11l5 25l-2 4l-1 7l3 1v5l-2 3l4 2l1 41l15 4l387 -1l8 -3h15l1 -12l2 -6v-12l5 -10l2 -10l5 -10l-5 -8v-13l7 -10l-6 -5l-11 -2l-3 -5l-8 -3l-28 -5zM128 442l-65 4l-6 -2h-12l-3 3h-5l-13 11l5 25l-2 4l-1 7l3 1v5l-2 3l4 2l1 41 l15 4l387 -1l8 -3h15l1 -12l2 -6v-12l5 -10l2 -10l5 -10l-5 -8v-13l7 -10l-6 -5l-11 -2l-3 -5l-8 -3l-28 -5z" glyph-name="equal" horiz-adv-x="494" unicode="="/><glyph d="M145 188l-36 4l-2 3l-8 -2v4l4 4l-7 8l-4 2l-4 6l-14 1l4 4l-4 6l-6 3l-9 12l-4 2l-4 6l-6 3l-10 15v4l15 5l4 4l67 25l48 13l15 6l49 14l75 26l17 8l-5 4h-12l-3 3l-9 1l-1 3l-36 5l-8 3l-26 2l-3 3h-4l-6 3h-7l-4 2h-14l-7 2l-3 3h-8l-11 4l-20 4l-4 4h-9l-3 3h-4 l-19 8l-19 2l-21 4l-5 3h-6l-2 11l-10 6h-11l-5 4l16 9l-1 9l-5 5v7l-6 6l5 4l-4 21l-1 34l48 -1l83 -15l66 -18l43 -6l64 -14l14 -5h6l174 -52l2 -4l-2 -5v-9l3 -5l-3 -5v-6l3 -3v-5l4 -4l-2 -5l17 -17l3 -11l-7 -14l-59 -37l-8 -2l-21 -12l-37 -17l-9 -6l-13 -5l-12 -1 l-30 -16l-34 -11l-5 -4l-31 -11l-4 -3l-2 4l-1 -5h-7l-8 -5l-5 2v-4l-24 -7l-8 -5l-10 -3l-4 2l-10 -6l-3 3v-6h-10l-8 -3l-9 2l-4 -4l-5 1l-2 3v-5l-8 1z" glyph-name="greater" horiz-adv-x="567" unicode=">"/><glyph d="M193 157l-10 3l-18 2l-6 -3h-12l-13 4l-16 15l-8 24l-6 30l4 58l10 66l20 55l32 61l28 36l19 39l10 59l1 26l-5 19l-16 6h-20l-18 -6l-16 -15l-15 -23v-7l-3 -2l-3 -14l-9 -22l-5 -23l-3 -28l-5 -2l3 -3v-32l3 -3l-13 -12h-10l-6 5l-3 13l-12 17l-13 13l-1 5l-3 2l-2 5 l-12 10l-3 6l-5 3h-4l-5 11l-4 27l7 69l9 30l16 29l16 20l19 19l2 3l24 22l10 7l12 4l16 11l11 3l50 9l28 -4l4 2l11 -6h11l2 -3l19 -3l10 -5l3 -7l13 -3l7 -4l-1 -5l7 2l2 -5l11 -10l12 -9l18 -24l2 -9l4 -5v-5l4 -3v-10l9 -11l-2 -4l6 -11v-7l11 -19l-1 -34l3 -16v-16 l-4 -6l-4 -11v-6l-5 -7l-4 -12l-4 -5l-5 -15l-2 -12l-17 -29h-4v-5l-9 -13l-3 -11l-5 -2l-2 -11l-9 -8l-4 -11l-7 -5v-8l-6 -6l-6 -10l-7 -3l-26 -50l-5 -3v-7l-5 -13h-4l-6 -30l1 -31l-2 -3l1 -20l3 -4l-4 -6v-6l-4 -13v-11l13 -12l-2 -5l-30 -9h-28zM153 1l-18 9l-7 1 l-7 6l-6 12v9l5 11l1 11l6 10l5 2l-3 3l6 2l1 5l7 7v8l7 5l4 14l42 -9l23 -10l36 -12l-10 -30l-20 -36l-17 -22h-38z" glyph-name="question" horiz-adv-x="425" unicode="?"/><glyph d="M290 219l-9 2l-4 4h-9l-43 26l-12 11l-7 10l-6 20v17l7 31l20 41l9 10l25 23l43 21l33 10l33 14l9 5l14 5l-9 37l-9 7l-12 -6l-19 -5l-27 -17l-13 -4l-14 -8l-2 -3h-30l-15 6v9l-3 6l-2 13l3 9l-3 11l2 10v24l13 17l20 20l37 18l18 5l44 6l36 -11l52 -28l5 -12l6 -6 l12 -21v-5l9 -15v-8l5 -3v-17l3 -2l11 -32v-20l4 -7l-1 -12l6 -26l-3 -5l5 -33v-21l6 -32l44 -20l51 -1l5 -4l15 31l-1 64l-5 60l-17 85l-19 56l-32 61l-39 44l-33 20l-59 20l-76 8l-22 -3h-9l-59 -11l-29 -15l-69 -71l-48 -89l-4 -16l-7 -13l-7 -79l1 -8v-30l29 -129 l30 -88l35 -32l72 -47l48 -20h58l76 15l45 29l16 -3l10 -4l2 -10h22l12 -8l3 -30l-20 -6l-11 -11l-45 -15l-4 -5l-17 -9l-51 -7q-1 0 -2 -1q-4 -3 -6 -3l-23 -6l-1 -1h-2l-12 -2h-3l-1 -1h-42l-40 6l-19 8h-5q-10 5 -48.5 22.5t-59.5 26.5l-28 20l-9 11l-26 43l-27 62 l-35 120l-10 76l2 7l-1 14q2 25 6 47l5 42l19 69q2 3 7 17.5t10.5 26t10.5 16.5l19 32l55 54l13 10l13 12l107 48l14 4l12 3l32 -2q14 0 42 -0.5t41 -0.5l72 -11h1l2 -1l75 -32l22 -21l2 -4q0 -1 3 -3l2 -1q3 -3 9 -10.5t10 -10.5q2 -3 9.5 -10t9.5 -10l10 -15q2 -7 11 -13 l2 -20h7l5 -6l1 -11l5 -9l17 -39l5 -20v-20l4 -17l2 -3l2 -22l4 -12l-1 -15l1 -10l-1 -13q-1 -2 -1 -14l-3 -3l2 -16l-3 -2l-2 -90l-23 -47l-24 -30l-16 -16l-20 -10l-51 -10l3 4l-54 -4l-52 12l-24 12l-20 26q-6 6 -6 13l-7 -3l-25 -24l-30 -14h-5l-3 -5l-24 -4l-22 -8z M326 310v-5h12l13 4l34 13l3 4l21 14l-10 66h-13l-2 -6l-8 -4l-4 -6l-18 -15l-14 -25v-6l-8 -13z" glyph-name="at" horiz-adv-x="739" unicode="@"/><glyph d="M87 14h-4l-7 5l-8 1l-26 6l-14 5l-8 5l3 29l11 44l28 82l14 52l21 62l1 8l11 36l-3 8l97 404l8 12l11 9l17 6h16l27 -3l9 5l12 4l15 13l11 3l4 -3l15 -3l5 -5l10 -3l6 -11l33 -38l9 -20l24 -65l2 -16l5 -15l1 -8l3 -4l2 -17l4 -11l5 -41l4 -18l2 -38l8 -72l4 -24l5 -76 l10 -8l2 -17l-2 -5l-2 -13l12 -90l-2 -20l8 -43l-2 -17l-8 -5l4 -7l-7 -14l-3 -11l-6 -11l-5 -23l-4 -8l-11 -8l-24 -3l-30 -13l-17 -4l-5 3l-27 126l-10 72l-11 1l-13 -6l-10 1l-9 -2l-20 -1l-13 1l-4 -6l-3 6l-12 -2l-15 1l-29 -1l-10 -18v-5l-23 -61l-5 -6l-15 -28 l-12 -12l-21 -33v-5l-5 -7l-7 -5l-14 -4l-12 -12zM246 340l5 -5l84 1l2 18l-23 207l-9 26l-6 -17l-21 -104l-8 -17z" glyph-name="A" horiz-adv-x="526" unicode="A"/><glyph d="M103 -17l-2 19l-9 3l-57 11l-3 2l2 13l6 8v4l16 28v8l4 4l15 31v4l6 3v6l5 5l10 4l6 87l-2 293l-15 146h-20l-7 -2h-10l-5 -4l-8 -3h-11l-4 3l21 39v5l4 4l3 11l6 6v4l13 29v12l17 9l45 13l54 3l70 9l34 -5l5 2l35 -2l4 -3h21l17 -6h9l23 -8h5l28 -12l14 -9l9 -11h4l8 -9 l3 -8l5 -3l1 -16l5 -12l-2 -16l3 -4l-4 -17l7 -7l-10 -28l-7 -25l-16 -26l-7 -17l-4 -4l-5 -8l-8 -8l-6 -12l-6 -3l-2 -6l-1 -3l-14 -16l-6 -13h10l30 -9h8l11 -4l5 -5l4 3l1 -3h4l11 -1l11 -6l3 -4l5 2l35 -19l11 -12l6 -2v-5h4l7 -9l5 -3l8 -11l12 -24l-1 -12l10 -19 l3 -19l1 -16l-2 -12l2 -5l-5 -7v-19l5 8h6l-1 -27l-8 -11v-5l-41 -66l-13 -18l-6 -5l-14 -17l-9 -5l-12 -14l-10 -7v-5l-15 -9l-2 -4l-3 -1l-4 -5l-14 -9l-4 -6l-10 -8l-29 -12l-6 -7l-17 -7l-5 -6l-10 -1l-6 -3h-12l-4 -2l-26 -4l-12 -3h-8l-48 -9h-26l-16 -5h-35l-24 3 l-14 -5h-20zM261 128l4 -4l49 1l131 27l12 7l13 36l1 39l-4 25l-13 38l-26 30l-35 20l-81 20h-40l-5 -107l-3 -19l2 -10l-1 -23l-3 -8l2 -4zM266 517l25 -1l21 3l42 10l10 28l15 32l-11 5l-3 2l13 18l-13 21l-14 10l-50 17h-6l-49 6v-12l2 -5l10 -71l1 -15l5 -11l-1 -12z " glyph-name="B" horiz-adv-x="625" unicode="B"/><glyph d="M129 35l-27 9l-32 27l-14 25l-5 4l-16 54l-2 25l-7 9l-6 99v116l5 79l4 20l5 56l6 37v9l18 54l20 37l8 21v10l8 20l8 11l33 32l73 20l34 2l13 6l5 -9l26 -3l36 -12l41 -27l2 -5l27 -29l14 -19l4 -10l2 -10l5 -5l8 -19l5 -25l-11 -9l-5 -18l-8 -10l-2 -8v-11l-63 -59 l-5 -6l-14 -13l-6 6l-5 53l-15 48l-21 30l-24 13h-11l-5 2h-29l-15 -4l-2 -14l-5 -17v-34l1 -8l-6 -196l-2 -7l-2 -39l9 -85l15 -66l16 -40l29 -28l49 -28l9 -2l13 44l8 79l-5 110l5 4h5l6 6l18 5l4 4l18 5l13 6l5 4l10 -4l8 5h15l7 -4l15 -14l21 -74l7 -47l-2 -50l-2 -8 v-16l-5 -15l-3 -21l-16 -14l-2 4l-7 -7l-8 -6l-11 -6l-5 4l-2 -6l-4 1h-4l-6 4l-28 -12l-24 -17l-35 -3l-27 -6l-8 -4l-23 -6l-15 -6h-41l-42 -4z" glyph-name="C" horiz-adv-x="495" unicode="C"/><glyph d="M77 -4l-4 48l-4 3l-1 9l3 14l-4 12v16l19 7l9 563l-45 -11l-21 -1l-8 8l-1 12l3 2l5 21l2 21l4 4l-3 2v11l4 15l1 17l13 8l28 14l30 11l17 4l48 2l88 -5l93 -14l30 -12l3 -2l10 -5l10 -12l10 -5l24 -27l25 -43l5 -11l5 -1l8 -19v-8l5 -8l10 -25l9 -32l3 -7l5 -22l8 -65 v-23l-1 -8v-18l-3 -9l2 -36l-4 -14l1 -6l-6 -19v-7l-3 -16v-7l-3 -10l-3 -22v-5l-5 -20l-1 -13l-4 -11l-4 -3v-4l-2 -3l-11 -31l-7 -15l-6 -6v-6l-24 -21l-37 -42l-7 -13l-13 -7l1 -12l-107 -48l-127 -33l-54 -4zM230 156l1 -8l19 7l37 26l33 28l20 26l15 30l22 88l11 91 l-7 86l-15 44l-20 40l-35 42l-12 10l-41 9l-4 -3l-7 4l-5 -2l-9 2l-15 -6l7 -171l-1 -13v-83l3 -55l-2 -5l3 -61l-1 -91z" glyph-name="D" horiz-adv-x="543" unicode="D"/><glyph d="M76 29l-12 7v9l-12 -5l-3 4l3 46l-7 47l-1 15v24l-6 41l-18 66l27 485l4 15l7 3l4 12l-4 1l7 9h182l29 -2h20l18 -5h22l66 -13l9 -1l59 -14l3 -8v-17l-4 -7v-5l-17 -41v-9l-7 -15l-4 -18h-18l-14 -3l-18 -2l-11 -3h-57l-34 2l-95 11v-44l6 -108h76l20 -2l7 -2h11l59 -11 l38 -3h24l3 -5v-26l-8 -18v-4l-1 -11l-4 -3v-13l-10 -24l3 -8l-3 -7l-9 -1l-13 -4l-33 -7l-31 -2h-124v-4l4 -4v-90l4 -7v-69l56 2l100 -2l7 3l8 -1h48l6 2h33l5 -11l2 -22l-4 -4l-1 -7l-5 -4l5 -9l-4 -7v-26l-7 -7v-8l3 -3v-12l-35 -5l-21 -5l-7 -4l-28 -3l-14 -4l-4 -3h-9 l-7 -4l-6 2l-7 -3h-15l-3 -2l-39 -6h-77l-18 -2z" glyph-name="E" horiz-adv-x="498" unicode="E"/><glyph d="M62 -1l-4 32l-10 47v21l-2 6l2 40l-4 64l2 11l2 3l-6 295l6 84v39h-17l-2 8l-5 3l-4 6l2 11v12l9 10v13l6 13l-3 7l6 11l-3 2l10 13l-3 7l6 9v6l5 9h10l6 2h9l11 3h8l3 1h35l9 -1l13 3l4 -2l4 2h32l4 2l4 -2l11 2l45 2l4 1h29l3 -2l4 4h31l6 -3l9 5l9 -4h60l33 -3l9 -2 l-4 -8v-7l-7 -26l-8 -16v-12l-4 -8v-8l-3 -4h-4l-12 -20v-11l4 -5h4l4 -2l-14 -6l-16 -9l-4 -4h-6l-3 -5l-112 -2l-6 -2h-19l-17 -3l-36 1v-38l-1 -4l1 -5v-51l-4 -3l4 -3v-5l38 1l4 2l9 2h17l46 6l93 3l8 -4l4 3h27v-46l-2 -11v-18l-7 -19v-6l-3 -8v-7h5v-5h-7l-4 -7 l-14 -9v-4h-6l-13 -6h-17l-4 -2h-11l-13 -2l-18 -1l-3 -5l-10 -2l-25 -1l-5 -2h-26l-31 -4l-9 -2h-13v-38l-4 -5l1 -4v-8l3 -11l-3 -4l4 -33l-5 -11h4v-37l2 -4v-38l-5 -4l3 -5v-14l-3 -7l-1 -8l2 -15l-2 -3v-4l4 -4v-20l-7 -10l-4 -2l-10 -22l-6 -20l-9 -3l-38 -18h-8 l-11 -5h-4l-19 -4l-9 -1l-8 -5z" glyph-name="F" horiz-adv-x="480" unicode="F"/><glyph d="M259 27l-16 2l-10 4h-8l-2 -4l-1 6l-18 6l-14 10l-12 6l-6 6l-35 17l-39 40l-31 50l-14 33l-4 14l-7 11l-15 65l-4 23l-3 39v97l1 6v38l10 77v23l2 13l-2 12v21l12 65l14 29l20 27l32 32l12 3l1 3h4l2 4l38 18h24l9 4l58 4l53 -12l30 -14l11 -7l11 -5l19 -11l34 -33 l16 -27l4 -9l7 -11l3 -21l4 -7l2 -9l-2 -5l-13 -14l-8 -4l-4 -9l-3 -10l-4 -2l-6 -8v-20l6 -8v-6l-10 -4l-16 -18l-8 -2l-8 -7l-19 -13l-10 -5h-9l-7 -2l-7 10l-27 75l-5 21l-17 28l-13 10l-14 5l-16 -11l-2 -6l-6 -6l-6 -2v-8l-11 -11l-3 -7l-11 -9l-3 -8l-8 -4l-9 -18 l-1 -10l-4 -8v-21l-12 -22l3 -30l2 -64l-2 -5l2 -4v-26l2 -6v-16l3 -22l4 -17v-8l12 -44l6 -10l5 -13l1 -7l2 -3l20 -40l4 -3l14 -21l19 -15l4 -8l1 3l17 -9l4 -5l8 -1l12 -8l33 -4l3 20v85l-7 51l-6 24h-15l-4 -4h-8l-5 -6l-7 2h-18l-8 -5l-4 3l-2 6l-7 8v17l6 6l17 36v6 l6 5l2 9l4 7v5l8 14l14 15l28 14l27 8l12 6h8l6 4l27 6l21 2l25 4l14 -2l4 4h8l17 4l17 -4l3 -5l-3 -3v-16l-7 -23l-5 -6v-4l-2 -4h6v-6l4 -5l-4 -5h-4l-4 -3v-5l6 -3v-8l-5 -4l8 -9v-5l-11 -4l-10 -6l-2 -4h-18l-3 -3h-8l-4 -8l10 -20l15 -69v-51l-6 -6v-8l-4 -3v-5l-3 -8 l-6 -2l-5 -12v-10l-19 -12v-7l-7 -6l-7 -4v-16l-2 -7l-7 -12l-29 -27h-5l-2 -5l-9 -4l-2 -6l-8 -4l-7 -8l-10 -5l4 -4l20 5l27 16l21 20l12 18v9l7 4l-3 -4v-5l-11 -22v-8l-18 -18l-24 -14h-4l-23 -6h-40l-32 3l-8 -15z" glyph-name="G" horiz-adv-x="537" unicode="G"/><glyph d="M20 2l15 671l6 48l3 5v8l11 41l6 3h7l22 8l2 -3l17 5l3 3l15 2l17 6l5 5h9l5 5l11 -3l9 -6l2 -11v-11l2 -10l2 -22v-93l5 -37l2 -123h43l30 2h51v88l2 3l-2 3l5 126l4 15v11l7 45l4 7l6 2l3 -2h27l9 -2h5l4 2l7 -2h33l4 -3h14l21 -17l-4 -16l-3 -71l8 -215l-1 -12v-109 l2 -6v-120l-2 -9v-22l-2 -9v-14l-2 -9v-75l-4 -3v-11l-3 -9l-12 -15l-6 -11l-8 -11l-15 -8l-27 1l-13 4l-34 6l-12 4h-17l-2 27l-8 33l3 2l-4 4v60l2 6l8 180l-4 3l-122 -10v-22l-30 -288l-21 -9l-6 -4l-6 -7l-25 -3h-29l-18 -3l-5 2l-28 -4z" glyph-name="H" horiz-adv-x="495" unicode="H"/><glyph d="M28 2l-3 22v7l-5 23l18 698l3 4l11 -1l6 8l6 -1l39 10l4 4l10 1l9 8l16 5l4 -3l6 2l16 -15l11 -152l-2 -38l2 -8l-5 -477l-7 -6v-5l-11 -21l-5 -33l-5 -7l-15 -7l-15 -5l-14 1l-5 -2h-8l-6 -3l-28 -7h-7l-8 -4h-4l-4 -11z" glyph-name="I" horiz-adv-x="199" unicode="I"/><glyph d="M334 42l-3 3l-3 -5l-9 -10l-17 -7l-24 1l-22 -6l-9 -7l-25 -4l-6 3h-17l-19 -4l-13 5l-11 6l-10 1l-9 4h-5l-19 12l-27 28l-2 4l-6 7l-33 51l-5 17v9l-5 5l-15 56l1 36l10 10l1 4l10 6h4l12 13l12 5l19 15l6 -2v-4l9 12l3 12l4 -2h8l2 10l3 -2h6l4 -9v-6l19 -52l19 -41 l27 -38l20 -14l32 -16h10l6 78v242l-6 77l1 122l8 91l4 27l7 4h4l6 5l16 -2l3 4l11 2h15l4 -3h20l11 4l11 2l7 5l10 -10l8 -45l5 -139l9 -72l2 -55l2 -20l1 -30l3 -23l8 -105v-71l-5 -33l-7 -22l-32 -56l-2 -9l-10 -14l-12 -7l-4 -9l-5 -5l-6 -14l8 3h4l26 23l3 -3l-31 -27 l2 4l-11 -8l-2 3l-9 -9l-13 -7zM346 48l4 2l6 7v-4l-4 -7h-4l-4 -4h-6z" glyph-name="J" horiz-adv-x="457" unicode="J"/><glyph d="M388 7h-31l-14 8l-17 15l-12 20l-8 18l-9 26l-4 35l-4 10v160l-4 22l-8 18l-15 21l-19 15l-32 12h-5v4l-11 -2l-2 -34l-4 -6l-2 -54l3 -2l-4 -13v-42l3 -10l-4 -61l1 -15v-37l-6 -7v-11l-4 -14v-23l4 -12l-4 -3l-18 -7h-7l-4 -4l-23 -7l-17 -3h-40l-7 4l-10 23l-11 48v19 l-3 4v30l-9 126v123l2 5l-2 6v27l-4 57v86l-3 41l5 131l7 50l6 7l9 2l3 4h6l4 -2h12l8 -2h14l8 4h14l8 3h4l6 4h8l7 -5l3 -10v-8l4 -15l15 -181l-4 -6l7 -7v-16l5 -17l72 68l14 18l129 137l6 4l26 25l8 4l11 16l11 5l4 -31l3 -4v-17l2 -4v-28l5 -6l-5 -10v-15h5l11 -8v-7 l-16 -10l-7 -7l-4 -11l-6 -1l-2 -6l-8 -5l-6 -7l-4 -2l-6 -13l-6 -3l-4 -5l-10 -9l-2 -5l-4 -2l-2 -3h-5l-3 -9l-18 -24l-5 -4v-4l-9 -8l-7 -8l-3 -8l-9 -9l-2 -3h-4l-8 -11l-6 -5l-11 -15l-7 2v-7l-3 -2l47 -19l14 -8l15 -11l20 -21l8 -7l3 -9l9 -9l4 -8l7 -7l2 -8l3 -3 l6 -14l10 -35l-2 -14l2 -16l3 -4l6 -33l-3 -13l-2 -3l2 -14l4 -4v-40l-2 -8v-9h4v-16l5 -12l-1 -20l-3 -4l5 -6l1 -9l12 -11l8 -3h20l26 12l4 -2l-29 -31l-33 -30l-19 -10l-12 -9z" glyph-name="K" horiz-adv-x="551" unicode="K"/><glyph d="M52 2l-8 5l-6 2l-5 6l-13 689l22 63l4 4l5 2l11 7l15 4l15 7l22 4l4 -2h11l2 7l11 -5h8l2 -4l12 -12l5 -15v-17l4 -32l-1 -15l4 -21l-4 -6l5 -11l-1 -39l3 -43v-22l2 -5l-4 -44l-2 -3l2 -4l-1 -38l-2 -5l2 -14l-1 -34l-2 -10l5 -34l-2 -56l5 -8l-3 -8l-1 -16l2 -6l1 -56 l2 -8l4 -53l28 4l40 3h77l29 2l4 -6l-3 -6l2 -4l-1 -22l-4 -11v-14l-18 -54l-14 -6l-31 -20l-13 -4h-15l-4 -3h-19l-7 -2h-19l-6 -2h-9l-4 -2l-21 2l-4 -2h-22l-4 -2l-74 -1l-7 -4h-15z" glyph-name="L" horiz-adv-x="384" unicode="L"/><glyph d="M46 -4l-5 41l-7 36l-4 32l-2 4v11l-4 5l-4 126l5 179l28 286l-3 7l2 5v14l5 10h10l6 5h23l4 4h14l4 5h7l18 11h25l10 -4h8l5 -7l47 -46l25 -36l45 -85v-6l6 -6l2 -8v-4l5 -4l7 -20l6 -13l5 -18l6 -16l13 -23l30 86l45 159l27 67l7 6l16 -2l23 -7l4 3h6l11 -4l20 2l19 -2 l10 4h6l4 4h4l3 3l15 -3l27 -81v-4l5 -9l9 -42l21 -195v-14l2 -10v-27l-5 -3l7 -8v-25l2 -9l-4 -8l4 -5v-16l4 -15l-4 -3l2 -10v-50l5 -20v-108l-7 -3l7 -2l-2 -5l-1 -88h-13l-8 -16l-16 -18h-4l-3 4l-12 1l-6 -3h-13l-6 -6l-24 -3l-13 4l-39 5l-12 22v23l4 5l4 2l2 6 l-11 307l-5 18v-4l-2 -16l-14 -49l-4 -8l-12 -46l-9 -18l-6 -4h-17v-5l5 -8l-13 -14l-18 -8l-4 -3h-13l-19 -7l-17 -8h-11l-18 -9l-25 31l-18 16l-75 169l-8 15l-6 14l-2 -87l-2 -22v-143l4 -60v-51l-10 -8h-4l-8 -22h-7l-7 -13l-6 -3l-6 -7l-14 -3l-25 -1l-26 -4l-25 8z " glyph-name="M" horiz-adv-x="703" unicode="M"/><glyph d="M20 37l8 53v43l-3 51l7 177l10 103l-7 174l-15 122l5 11l9 3l3 4l4 -2h13l2 5l5 -5l2 3l10 4h17l13 5l7 5l6 10l12 4l20 -17l3 -5l12 -12l19 -25l27 -47l24 -48l3 -11l8 -15l50 -120v-4l8 -15l2 -7l8 -18l2 -13l4 -3l43 -102l5 -5l4 -14l4 -8l4 -3l2 -6v43l-5 76v102 l3 30l2 7v23l2 16l1 41l7 78v25l4 7v22l9 21h4l5 7l16 3l2 -3l9 4l18 2l13 -5l9 6l5 -3l3 2l6 2l5 -3l3 7l6 -6l11 6l7 -7l14 -70v-17l2 -5l5 -67v-45l3 -4l-3 -50v-78l-3 -2l3 -3v-61l7 -53v-18l1 -4v-35l-1 -4l1 -3l4 -23v-126l-2 -6l2 -3l-12 -21l-5 -18l-3 3l-2 -3 l-15 -18l-10 -5l-4 2l-5 -4l-9 -2l-4 -3h-5l-8 -4h-8l-7 -4l-36 -4l-6 -15l-2 13l-8 -2l-11 2l-6 4l-14 -6l-15 -3l-17 17l-28 33l-4 11l-4 3l-20 26l-57 109l-51 125l-2 -7v-42l-5 -70v-34l-2 -24v-38l-7 -4l2 -5l-9 -25l-28 -58l-10 -2l-22 -10l-28 -7l-11 -5v5l-14 -5z " glyph-name="N" horiz-adv-x="578" unicode="N"/><glyph d="M235 4l-72 22l-32 17l-17 18l-17 25l-12 10l-17 21l-11 21l-17 49l-10 61v12l-10 93v80l7 71l17 82l20 61l15 30v4l31 47l29 25l20 15l12 4h9l30 22l15 9l34 11l39 3l27 -6l36 -13l46 -23l18 -18l4 -7l5 -3l21 -35l11 -26l5 -9v-4l5 -4l2 -9l8 -24l2 -10l5 -7l14 -52 l13 -72l-3 -10l3 -3l4 -20v-29l-4 -3l3 -6l-8 -91l2 -13l5 -3l-4 -14v-14l-9 -31l-4 -10l-8 -12l-12 -25l-14 -40l-27 -45l-12 -12l-12 -17h-4v-4l-6 -6l-5 -10l-5 -3l-4 -9l-4 -2l-5 -7l-37 -27l-16 -6h-17l-3 -5l-15 -7l-26 -15zM317 126l17 -1l19 4v122l13 169l-28 169 l-18 61l-12 23l-13 11l-11 5h-6l-19 -25l-27 -43l-20 -42v-10l-7 -17l-14 -70l-3 -140l3 -16l-3 -7l3 -12l2 -25l2 -10l1 -29l4 -11l8 -13l7 -15l10 -8l5 -12l4 -2l3 -7l21 -18l4 -2l5 -6l7 -4l2 -4z" glyph-name="O" horiz-adv-x="544" unicode="O"/><glyph d="M42 -12l-6 67l1 12l-2 4l-2 32l-5 33l2 26h-4l1 29l-1 11l-1 375l4 78l-9 18l5 8l6 5l1 28l9 41l5 8l16 7l21 2l6 6l31 5l19 5l8 -1l47 7l68 -1l6 -2h11l28 -6l72 -26l31 -28l19 -25l8 -21v-7l3 -3l4 -10l7 -29l4 -8l1 -20l2 -3l-5 -19l2 -5l-4 -23h-4l2 -4l-2 -4 l-10 -33l-5 -12l-12 -14l-4 -2l-4 -8l-7 -7l-11 -16l-17 -20l-5 -15l-10 -8l-40 -41l-31 -16l-9 -10l-15 -6l-8 1l-5 -3l-18 -5l-9 -1l-11 -3h-34v-10l-2 -3l2 -6l-3 -8v-6h4l-1 -13l-3 -4l2 -9l-2 -18l2 -4l-2 -25l4 -15l-1 -11l6 -41l1 -18l-1 -34l-3 -6l-1 -20l-6 -3 l4 -4l-2 -5l-5 -4l-15 -38v-6l-3 -7l-4 -2h-4l-4 -3l-7 1l-2 -3l-18 -8l-10 1l-21 -8h-23l-4 -6zM178 477v-9l63 3l17 3l14 4l29 11l10 8l1 7l18 69l-2 21l-8 15l-26 26l-11 9l-26 9h-7l-7 3l-47 10l-22 1v-25l1 -6l1 -43l-3 -3l2 -4v-18l-4 -2l3 -2z" glyph-name="P" horiz-adv-x="478" unicode="P"/><glyph d="M231 7l-27 11l-26 14l-83 72l-22 31l-22 54l-1 11l-7 19l-13 70l-10 108l1 61l2 11l-1 10l12 65l30 91l11 20l39 56l34 31v4l27 22l12 5l93 26h50l51 -13l26 -13l38 -22l31 -31l13 -17l18 -29l1 -6l17 -25l21 -72l9 -46l-1 -4l13 -128l-3 -40l2 -18v-39l-10 -44l-5 -5 l-3 -12l-8 -8l-18 -4l-37 -52l-3 -7l32 -34l39 -22h10l22 13l17 20l-2 -16l-15 -24l-26 -26v-12h-6l1 -8h-13l-1 -4l-6 -4l-9 -2l-10 -8l-2 -5l-9 -5l-3 -5l-11 -6l-23 1l-23 13l-43 35v-5l-14 -15l1 -5l5 -4l-10 -6h-7l-8 -3l-3 2l-3 -4l-18 -3l-6 -7l-20 -4l-7 -4l-17 -7 h-33zM319 108h28l-27 14l-40 13l-11 7l-7 2l-3 7l8 14l13 9l1 8l14 9l2 9l4 9l10 13l22 3l39 -6l40 -10l7 74l4 16l7 43l-10 146l-6 44l-5 14l-8 45l-11 33l-27 38l-28 18l-34 11h-15l-13 3l-22 -3l-21 -37l-5 -13l-17 -30l-13 -38l-19 -103l-3 -63l14 -140l14 -72l13 -33 l15 -14l37 -27l14 -5z" glyph-name="Q" horiz-adv-x="622" unicode="Q"/><glyph d="M391 -1q-2 2 -7 5t-7 5l-12 9q-3 4 -10.5 14.5t-13.5 16.5l-3 9l-3 4q-1 1 -2 4t-2 4l-4 5v4l-4 3q-2 12 -4 16l-4 5l-4 20l-2 4q0 1 -0.5 5t-0.5 5l-2 3l-16 72l-2 3l-3 4l-9 18q-5 6 -16.5 16t-17.5 15q-4 3 -17 8.5t-19 10.5h-4l-3 -8l2 -6q2 -78 2 -116v-5 q0 -4 1 -13t1 -14q0 -1 -0.5 -4t-0.5 -5q-1 -21 -1 -62l-3 -3l-1 -9l-3 2l-8 -3l-6 5l-3 -7l-15 -13q-4 -7 -7 -19l-4 -6q-1 0 -5 -0.5t-5 -0.5l-7 2l-5 -2h-12q-5 1 -14 1q-10 0 -14 1l-12 3l-15 6l-7 7l-21 52q-1 7 -4 19t-4 19l-6 121q0 12 1 18v82l3 16l-6 86v112l2 4 q0 13 -1 19l8 139l-6 9q0 1 -0.5 3.5t-0.5 3.5l2 5h5l2 4l4 14q1 8 1 23l4 10l16 5h21v6q1 1 10 7v5l14 -4h123l7 -3h14l15 -4h9l23 -5q13 -4 27.5 -8.5t32 -10t27.5 -8.5q2 -1 9 -8h4l6 -5l15 -7l5 -6l8 -6l1 -4h4q3 -3 20 -18v-5l6 -4l1 -3l5 -9l4 2l-2 -4v-5l2 -3l-4 -8 l3 -1l7 2q0 -4 -3 -13l2 -7l6 -5v-4l-4 -2l1 -8l-7 -7q-1 -11 -4 -33t-4 -33l-3 -9l3 -3v-9l-9 -33l1 -10l-8 -17l-3 -4l-3 -10l-5 -7l-6 -4v-10l-6 -3t-5 -3l-3 -8l-14 -10h-5q0 -1 -3 -7l-8 -8l-4 -2l-4 -4l-9 -2l2 -4l-14 -10l-9 -3l-2 -6l22 -21l5 -3l3 -9l7 -7v-5l6 -9 l3 -7v-5l5 -4l3 -12l-1 -11l3 -1l2 -6l5 -9l3 -10l-4 -10l5 6l2 -5l1 -20l4 -9v-8l7 -13l-2 -6l5 -2l7 -13v-5l10 -15q1 -1 3 -5.5t5 -6.5v-1q1 -1 1 -2q1 0 3 1l2 -4q2 -1 14 -8t18 -12q5 -2 15 -2q4 0 12 2l12 3l-9 -17l-10 -14q-2 -2 -10.5 -11.5t-11.5 -15.5 q-8 -6 -14 -14q-4 -8 -10 -13q-3 -4 -11.5 -9.5t-11.5 -8.5l-3 -1l-15 -7h-12q-3 0 -5 1q-5 0 -15 -4zM201 485q80 17 86 18q5 1 14 4.5t13 4.5l13 7q1 0 3.5 0.5t3.5 0.5q10 4 14 8l-2 20q-2 8 -6 23t-6 23q-10 15 -17 29l-22 18q-7 5 -16 10q-6 3 -31 13l-75 20l12 -199 h16zM429 466l-2 -4l5 -2z" glyph-name="R" horiz-adv-x="549" unicode="R"/><glyph d="M224 11l-13 6l-20 6l-3 4l-20 4l-25 13l-8 8l-8 4l-25 24l-32 62v6l-5 5l-12 52v36l3 39l10 14h6l9 6h4l15 13l8 2l10 6h5l7 2l3 6h6l6 6l1 5l7 -6l3 2l2 8h8l7 -8v-5l11 -18l-1 -11l3 -2l19 -63l10 -21l3 -11l10 -19l21 -29l15 -13l35 -17h42l25 25l16 10l-7 3v57 l-13 40l-17 34l-40 40l-20 14l-30 15l-12 8h-6l-8 9l-34 8l-68 29l-21 13l-9 10l-8 4l-21 21l-27 38l-13 29l-6 21l-2 15v35l10 44l9 19l25 31l1 29l9 18l17 17l29 19l46 23l22 6l7 3l27 4l46 -2l8 2l20 -2l47 -15l55 -27l29 -20l10 -14l2 -6l25 -29l13 -22l11 -40l2 -27 l-4 -11l2 -12h-9l-11 -20l-49 -28l-9 -4l-3 -2l-32 -11h-7v19l-18 78l-19 18l-19 15h-6l-11 6h-6l-11 6l-4 -2h-21l-16 -4h-13l-38 -19l-13 -10v-26l4 -12v-6l8 -27l10 -19l22 -22l32 -13l56 -14l36 -16l26 -15h5l24 -12l31 -19l6 -6l6 -2l57 -49l23 -31l12 -23v-8l3 -2 l-2 -11l4 -15l-4 -41v-19l-8 -28l-5 -5l-2 -6l-4 -2l-4 -8l-7 -7h-4l-28 -43l-28 -24l-7 -4l-13 -10l-8 -12l-10 -3l-11 -12l-8 -3l-8 -12l-11 -8l-12 -5l-13 -12l-6 -4l-25 -5h-9l-6 -2h-8l-2 -4l-17 -2h-27z" glyph-name="S" horiz-adv-x="556" unicode="S"/><glyph d="M131 -8l11 140l1 379l11 139l-7 3h-49l-30 2l-37 5l-11 4v6l4 3l-4 4v7l3 5l-3 5l2 10l3 8l-4 7l5 20l-2 4l-2 20l5 14v9l17 11l36 2l3 -2l4 3l111 5l40 -5h130l13 3l31 -3l22 -7l8 -10v-29l-4 -11l-4 -4l-1 -31l-4 -7v-8l-4 -7l-3 -18h-15l-15 -4l-3 -4l-29 -5l-13 -4 l-32 -3v-20l2 -27l-6 -59l-2 -3l-2 -24l2 -61l-7 -65l3 -84l-1 -15l4 -92l-8 -57v-27l-7 -33l-6 -18l-7 -9l-12 -9l-6 -9l-10 -23l-5 -5l-5 -2l-4 -3h-7l-12 -4l-15 -2h-22l-13 -4l-3 2l-4 -3l-20 2l-8 -5z" glyph-name="T" horiz-adv-x="462" unicode="T"/><glyph d="M230 28l-7 6l-2 -3l-26 7l-11 -2l-6 -4l-10 4l-20 13l-18 8l-29 20l-16 20l-18 30l-13 27l-19 61l-8 37l-3 77l-4 16v99l8 121l2 6l15 128v8l8 49l18 21l6 2l4 6h4l6 3h4l7 8l18 12l10 11h14l20 -11l12 -14l4 -11l6 -6l2 -46l7 -17l2 -48l3 -8l2 -86l-5 -38v-55l-2 -35 l-4 -18l4 -18v-29l-3 -10l8 -53v-41l14 -60v-6l6 -5l6 -15l10 -16l21 -5l23 -2h52l8 4l9 26l13 68l3 126l-4 106l3 41l-11 119v114l16 5l5 6h6l16 11h9v6l19 8l26 -8l13 -10l13 -30l2 -12l8 -17l10 -39v-8l5 -14v-6l2 -4v-5l8 -34l5 -39l3 -7v-28l4 -19v-15l3 -15v-21l2 -7 l-1 -11l9 -56l2 -26v-36l-2 -13v-26l-2 -10v-20l-3 -11l-7 -9l-9 -25l-24 -14l-3 -9v-6l-12 -21l-5 -6v-7l-7 -11l-7 -15l-7 -11l-3 -2l-3 -7l-9 -10v-6l-14 -14l-2 -4l-8 -7l-19 -9l-10 -2l-12 -10l-7 -9l-18 -7l-62 -18z" glyph-name="U" horiz-adv-x="558" unicode="U"/><glyph d="M316 -10l-47 2l-11 8l-30 50l-180 492v6l-3 9l-8 52l-2 6l-15 97v16l4 4l4 8l9 6h9l2 6l9 8l15 4l19 9l7 7h5l3 6l8 4l5 9l8 -2l13 -11l28 -50l13 -30v-6l11 -40l10 -22l4 -14l2 -11l18 -65l13 -24l16 -42l5 -23l3 -3l8 -19v-7l4 -4l6 -33l14 -45l8 14l26 115l4 5l1 8 l12 28l76 253l12 7h4l7 2l7 -2l12 4h19l9 -4h24l10 -2l24 -22v-6l2 -16l6 -16v-54l-2 -15v-25l-4 -26l-2 -4v-14l-4 -4v-12l-4 -10l-4 -4v-9l-1 -3v-6l-9 -24v-5l-4 -15l3 -3l-3 -2l-166 -453z" glyph-name="V" horiz-adv-x="578" unicode="V"/><glyph d="M150 4l-11 5l-18 13l-13 5l-26 17l-21 29l-17 42l-16 62l-6 92v36l-2 4v64l9 159v48l31 161l13 14l20 8h8l18 6l9 6l7 3h13l13 7l2 6h5l7 -9l2 -19v-28l-2 -6v-50l-2 -22v-62l-3 -18v-42l3 -23l-4 -19l3 -9v-26l-2 -8v-32l2 -11l-3 -9l3 -30l1 -34l15 -91v-20l6 -18v-12 l9 -27l1 -13l8 -24l4 -2l17 -23l10 -5l24 47l7 37v70l2 26l-21 211l6 19l14 11l4 -3l19 9h4l3 8l8 -5l5 3l22 5l8 9l12 4l2 4l7 -2l23 -28l10 -17l16 -39l2 -10l26 -79v-7l22 -72v-8l2 -21l7 -22l-2 -13l32 -77l16 -32l18 -25l8 8l14 60l1 87l-38 245v8l-9 49v12l-22 116 l-5 18v24l5 6l28 8l5 5h4l3 4l13 3l9 8h4l8 4h9l4 8h14l20 -38l11 -38l8 -17l12 -51l4 -4v-11l13 -47v-7l5 -11l-3 -3l3 -5v-4l5 -13v-4l3 -4l3 -22l9 -32l2 -16l4 -14v-12l6 -20v-23l2 -4v-9l6 -19v-11l3 -13l-3 -4l2 -3l-3 -6l3 -10l-2 -61l-4 -9l-2 -9v-14l-6 -6l-4 -10 l-6 -4l-2 -9l-50 -93l-9 -21l-20 -13h-19l-6 -7h-12l-4 5l-23 -8l-2 3l-25 -11l-33 -5l-16 -5h-27l-27 22l-14 23l-27 73l-6 -5l-4 -8l-13 -7l-16 -17l-12 -6l-2 -3l-26 -21l-16 -8l-62 -43l-11 -9h-11l-4 -5l-15 -1l-10 -8z" glyph-name="W" horiz-adv-x="732" unicode="W"/><glyph d="M97 0l-14 12l-2 6l-3 3l-4 9l-4 2v5h-4l-13 28l-8 8l-3 7h-4l-14 17l8 24l18 30l15 35l7 8l60 120l7 11l5 11l16 28l-10 25l-2 10l-84 208l-8 16l-7 23l-4 9l-5 16l-20 47v18l5 3l2 6l11 7h9v4l6 5l8 4l3 -2l4 8l4 -3l4 7l5 -3v8l6 -4l17 9l2 5l6 3l4 -3l4 9l8 -2l27 -28 l15 -27l5 -3l4 -9l29 -33l2 -7l6 -3l2 -11l7 -13l19 -49v-6l9 -13l6 -19l4 -5l65 127l6 6l15 31l4 4v4l21 35l1 8l10 10l25 -2l11 -6l25 -6l23 -14h7l9 -5l8 -6h5l5 -25l-5 -4l-5 -20l-6 -14l-2 -3l-13 -28l-23 -34l-102 -197l-3 -3v-11l-7 -19l2 -9l9 -21v-6l4 -2l40 -91 l3 -4l15 -34l11 -17l2 -10l3 -6l6 -6l11 -38l5 -28v-7l-2 -7v-13l5 -13l6 -8l-6 -6h-5l-7 -8l-8 -4l-3 -4l-13 -10l-14 -8l-32 -15l-21 -6l-5 -5l-15 8l-25 36l-15 30l-4 5l-6 18l-41 82l-3 -2v-6l-18 -42v-5l-8 -16l-11 -16l-6 -11l-53 -70l-14 -16l-5 -8h-22z" glyph-name="X" horiz-adv-x="523" unicode="X"/><glyph d="M229 22h-14l-9 10l-12 45l-4 72v57l-2 25v96l2 14v45l-19 22l-27 43l-27 55l-8 8l-66 137v4l-23 56l7 16l5 2v5l15 12l8 14l8 3l3 -2l2 8h4l16 11l5 8l2 8l11 3l22 -18l56 -77l2 -6l16 -24l4 -8l44 -69l7 -16l6 -6l17 33l73 115l11 24l14 24l7 7l10 6h17l5 2h20l5 -6l4 2 l19 -4l4 2l3 7l10 -5l6 5l4 -6l8 -23l-7 -54l-8 -24l-4 -4l1 -5l-29 -58l-4 -5l-5 -15l-9 -16h-5v-8l-11 -27l-3 -4l-16 -36l-6 -8l-5 -15l-5 -8h-4l2 -6l-22 -55l-3 -43l-2 -6l4 -36v-35l2 -7l-3 -4l2 -3v-31l-1 -4l3 -4v-39l2 -19l-2 -3l2 -6v-25l-2 -4v-60l2 -16l-7 -8 v-7l-9 -5v10h-4v-10l-10 -1l-9 -10l-2 -5l-12 -3l-29 -4h-41l-7 -6z" glyph-name="Y" horiz-adv-x="520" unicode="Y"/><glyph d="M208 24l-95 -18l-10 8h-23l-8 -9l-13 17v14l8 25l5 2l-3 6l-7 8v12l6 29l14 23l8 26l5 8l8 23l7 9l97 209l6 7l24 47l16 40l32 59l6 18l14 55h-77l-21 4h-29l-31 4l-7 2h-5l-47 10h-16l-28 8l-7 -2l-10 10l-3 14l-4 4v11l6 10l-3 6l5 2v10l2 4v14l4 7l-4 6l3 12l14 4 l38 6l198 -2l3 4h25l81 9l61 -11l6 -4l2 -26v-21l12 -28l-3 -7l2 -5v-14l2 -9l2 -22l-5 -6l-11 -3l-12 -13l-4 -16l-3 -4v-5l-4 -8v-8l-8 -10v-8l3 -3l-8 -19v-8l-15 -16v-13l-3 -8v-12l-7 -23l-7 -7l-9 -20l-1 -11l-7 -8v-20l-35 -69v-10l-9 -11l2 -5l-5 -12l-4 -2l-3 -12 l-10 -12l-12 -28l-13 -17v-14l-4 -39l-7 -12h109l51 -3l23 4l10 -3v-8l3 -8v-5l-4 -20l-5 -16v-10l-9 -43l-44 -8l-7 -4l-28 -6l-16 2l-3 -4l-50 2l-19 -3l-8 3l-11 -2l-49 -2z" glyph-name="Z" horiz-adv-x="496" unicode="Z"/><glyph d="M49 18l-14 35v6l-4 20v17l-2 3l-7 30v286l6 54l-5 88l4 95l-7 3v7l9 13v13l9 44l3 4l12 3h6l3 5l3 10l13 4h7l7 3h13l23 3h24l31 3l28 -11l25 -4l5 -10l-2 -3l-5 -24l-5 -10l-4 -2l-3 -15l-14 -27l-6 -2l-2 -6l-4 -6l-8 2h-16l-8 -5l-11 -4v-120l2 -5v-13l4 -22l-3 -5 l3 -20l-3 -9l5 -28l-6 -22v-68l2 -25l4 -10l3 -32v-20l1 -5v-15l4 -66l30 4l20 -4l6 -4l4 -7v-5l5 -22l-2 -12l4 -9l-7 -37v-10l-10 -4h-6l-3 -1l-32 -6l-11 -4h-6l-4 -3l-21 -6h-8l-10 -3l-33 -5l-7 -3h-20z" glyph-name="bracketleft" horiz-adv-x="261" unicode="["/><glyph d="M382 52l1 -13l-26 -32l-43 5h-22l-9 18l-4 5l-3 9l-6 2l-38 87l-13 36l-13 49l-35 103l-9 42l-6 1l-36 101l-8 10l-29 70l2 6l-16 50l-3 3l-13 42l-11 28l-22 87l3 7l5 3l9 -3l27 10l17 2l26 11l6 -5l13 -24l60 -139l59 -160l15 -28l4 -20l24 -65l18 -70l11 -30l29 -100z " glyph-name="backslash" horiz-adv-x="403" unicode="\"/><glyph d="M226 53l-14 -35l-9 -4h-20l-7 3l-33 5l-10 3h-8l-21 6l-4 3h-6l-11 4l-32 6l-3 1h-6l-10 4v10l-7 37l4 9l-2 12l5 22v5l4 7l6 4l20 4l30 -4l4 66v15l1 5v20l3 32l4 10l2 25v68l-6 22l5 28l-3 9l3 20l-3 5l4 22v13l2 5v120l-11 4l-8 5h-16l-8 -2l-4 6l-2 6l-6 2l-14 27 l-3 15l-4 2l-5 10l-5 24l-2 3l5 10l25 4l28 11l31 -3h24l23 -3h13l7 -3h7l13 -4l3 -10l3 -5h6l12 -3l3 -4l9 -44v-13l9 -13v-7l-7 -3l4 -95l-5 -88l6 -54v-286l-7 -30l-2 -3v-17l-4 -20v-6z" glyph-name="bracketright" horiz-adv-x="261" unicode="]"/><glyph d="M25 555l10 14l-6 11v8l60 102l10 12v5l79 92l12 10l2 4l11 1l22 -19l29 -30l63 -77l52 -75l15 -27l-4 -5l-2 -6l-18 -21l-2 -6l-24 -21l-6 -27l-4 11l-8 -2l-6 -8l-4 3l-19 26l-5 11l-5 -1v8l-8 3l-5 12l-3 1l-23 36l-8 5l-5 10l-26 29l-2 8l-6 3l-50 -71l-60 -96l-7 -3 l-2 5l-4 3l-6 11l-4 3l-3 9l-7 2l-5 7l-3 -2v6l-4 15l1 8l-4 4l-13 -5z" glyph-name="asciicircum" horiz-adv-x="404" unicode="^"/><glyph d="M200 0l-28 2l-127 2l-5 -2l-6 5l-9 4l-5 13l5 13l1 45l3 5l-3 16l10 6h434l72 4h122l7 -3l8 -48l-4 -14v-25l-37 -12l-14 -1l-12 -6l-24 -2l-9 2l-6 -4h-373z" glyph-name="underscore" horiz-adv-x="699" unicode="_"/><glyph d="M214 820l-8 -10l-3 -6l-9 9l-48 21l-19 3l-38 15l-19 1l-6 5l-10 1l-28 38l-6 15v4l22 24l20 9l19 2l4 -6l15 -6l33 -18l25 -19l25 -30l13 -21l20 -18v-6l-4 -2z" glyph-name="grave" horiz-adv-x="236" unicode="`"/><glyph d="M74 19l-18 7h-5l-17 8l-7 8l-7 23l2 47l5 47l4 24l36 160l8 50l12 56l-2 8l36 173l30 81l15 52l19 29l18 5l3 3l3 -3l9 2l18 2l27 -4l13 4l7 -3l17 -5l28 -25l25 -33l9 -23l22 -44l9 -40l13 -31l8 -33l-1 -11l2 -4v-6l11 -39v-16l3 -13l-1 -17l4 -8l-1 -17l5 -19v-15 l4 -4l8 -63l-1 -23l10 -23l2 -13l19 -79l9 -16l1 -17l3 -11l3 -17v-6l3 -4v-19l3 -7l-11 -6l-9 -14l11 -19l-40 -27l-14 -4l-14 -8l-4 1l-8 -4h-4l-3 -4l-15 1l-11 11l-20 43l-4 20l-15 55l3 14l-5 2l-5 20v10h-4l-9 -5h-6l-8 -4l-10 1l-15 -1l-14 -2l-21 -1l-51 -6l-4 -10 l-3 -14l-4 -3v-22l-9 -15l-4 -4v-11l-1 -9l-9 -10l-1 -13l-8 -7v-13l-11 -5l6 -7l-6 -6l-25 1l-9 -1l-17 -4zM225 328l3 -2l63 2l3 3l2 20l-33 217l-9 -30l1 -4v-12l-3 -4l-9 -90l-5 -15l-4 -3l-1 -53l-4 -8z" glyph-name="a" horiz-adv-x="520" unicode="a"/><glyph d="M65 -21l-4 5l4 30l5 75l11 4l34 6l-10 104l1 23l-2 5l-9 78v45l2 29l-2 4v50l-3 46l2 28l-5 126h-31l-19 -5l-6 3l-13 12l3 13l5 5l1 7l6 6v8l2 7l7 13l1 8l3 2l-1 4l6 9v11l4 7l5 5l88 22h9l22 4l19 1h86l51 -5l41 -21l2 4v-6l16 -8l14 -14l9 -14l4 -11l6 -6l13 -19 l-4 -12l-9 -13l9 -25l3 -61l-4 -13l-8 -8l-3 -8l-8 -12l-5 -3l-3 -8h-9l-15 -7l-6 -6l-9 -3l-10 -6l9 -3l34 -6l43 -21l26 -17l5 -2l24 -15l14 -15l22 -18l7 -15l8 -8l6 -17l10 -19l8 -18v-6l2 -7v-7l4 -3l-2 -43l-3 -8l-1 -15l-6 -16h-5l-7 -29l-8 -7l-6 -8l-4 -2h-6 l-10 -15l-8 -15l-4 -14l-10 -8l-19 -22l-24 -31l-12 -10l2 -10l-26 -16l-9 -13h-6l-5 -4l-12 -4l-15 -7l-16 -3l-4 2l-10 -4h-9l-7 -4h-10l-25 -3l-6 -2l-18 -2l-4 2l-7 -3h-7l-19 -4h-170zM269 143l-1 -19l62 14l56 17l36 89l4 16l-4 27l-15 27l-9 9l-24 13h-4l-3 6l-11 3 l-21 9h-5l-6 3l-29 5l-16 6l-7 -2l-5 2h-9l-11 -8l9 -84v-20l5 -49l-3 -4l3 -5l2 -19l-1 -16zM235 540l1 -7l39 23l31 30l3 13l-28 42l-14 7l-20 2l-2 3l-4 -3h-17l-1 -13z" glyph-name="b" horiz-adv-x="603" unicode="b"/><glyph d="M182 13l-2 3l-17 11l-6 -3l-28 16l-2 4l-11 5l-29 43l-29 67l-17 72v11l-2 8l-8 81v24l-6 78l-5 25l16 101l15 58l10 24l27 47l22 21l4 16l4 8l1 10l25 25l46 21l28 7l44 4l60 -8l31 -11l30 -20l2 -3h5l18 -18l21 -15l4 -7l6 -4l12 -24l6 -17v-6l2 -4l-1 -20l8 -18 l-2 -44l-20 -12l-31 -15l-15 -19l-30 -23l-5 -2l-12 -11h-9l-6 8l-12 36l-4 54l-9 28l-36 29l-17 2l-47 -8l-25 -11l-5 -23l-1 -13l-4 -6v-11l-7 -26l-1 -19l-2 -4l-1 -23l-2 -5l3 -9l-4 -10l5 -17l-3 -19l4 -4v-4l4 -7l2 -23l-1 -15l2 -6l3 -47l2 -12l-1 -11l4 -6v-9 l21 -98v-6l28 -62l3 -4l5 -11v-4h4l15 -17l19 -9l19 -7l12 20l10 43v17l8 32l6 54l-2 65l11 12l17 3l2 3l8 3h20l1 6l6 2l5 -2l6 5h6l6 4l1 4l3 -4l4 4h11l21 -34l8 -30v-4l7 -12l4 -35v-19l1 -6l-1 -26l-2 -8l2 -5l-2 -8l-6 -2l3 -13l-2 -4l-4 -15l6 -3l-4 -22l-7 -12 l-11 -10l-9 -12l-21 -16l-8 -4l-8 -8l-20 -13l-16 -6l-18 -9l-16 -4l-17 -8h-29l-8 2l-11 -3l-13 -2h-12l-18 -3l-28 3l-5 -2h-7z" glyph-name="c" unicode="c"/><glyph d="M48 -21l-3 8l-3 23l-2 3v10l-11 46l4 9l16 2l49 10l-17 558h-13l-28 -5l-7 -3l-9 3l-4 13l6 15l5 34v13l3 9l-3 5l5 5v20l3 3l18 3l26 8l44 5l83 3l104 -12l14 -6l22 -6l15 -7l15 -16l4 -8l31 -21l19 -20l3 -11l21 -24l8 -17l3 -11l5 -8l4 -3l7 -12l2 -21l7 -10v-5l5 -5 v-18l6 -14l-1 -5l3 -7v-32l2 -12l-5 -4l5 -28l-4 -4l-1 -23l-2 -3l-6 -18v-9l-5 -15l-2 -20l-5 -10l-2 -10l-4 -3l-9 -18v-9l-4 -7l-5 -16l-8 -7l-9 -11l-1 -7l-5 -5l-7 -11l-9 -29l-5 -5l-8 -15l-5 -18l-13 -12l-2 -12l-8 -10l-2 -7l-13 -13l-2 -6l-8 -3l-10 -10l-1 -5 l-7 -7l-6 -3l-13 -10l-2 -5l-11 -11l-7 -5l-13 -6l-18 -13l-9 -8l-10 -2l-4 -4l-6 -1l-17 -8l-3 -4h-5l-8 -4l-50 -14l-20 -2l-68 -2zM225 158l31 20l24 26l52 176l5 10l4 16l9 66l-11 78l-10 24l-19 28l-12 12l-42 27l-23 3h-20v-18l7 -19v-72l1 -19l3 -6l-3 -12l2 -12v-37 l-2 -7l-1 -23l-2 -5v-35l-3 -7l3 -2v-112l2 -5v-31l3 -12v-34l2 -6v-12z" glyph-name="d" horiz-adv-x="529" unicode="d"/><glyph d="M75 -3l-7 11l-22 51l-8 31l-14 104l-2 49l-2 11v106l4 8l-3 1l4 25l5 99l3 9l4 105l6 57l2 5h-7l-6 10v13l5 2l2 8l4 4v4l2 14l8 11l6 5v6l6 4l5 12v4l-4 4l7 3l3 6l-3 9l28 7l43 4l4 -4l3 2l12 -2h27l7 -2h44l13 -2l80 -1l21 -2h26l6 -2h17l18 -2l3 -2l4 2l21 2l26 4 l3 -2l-9 -32l-16 -23v-7l-21 -30l2 -3l-11 -12l-12 -8v-4l-6 -7l-13 -8l-29 -4l-7 -6h-17l-11 -2l-35 2l-21 -2l-15 4l-8 -2l-16 3l-4 -3h-42v-39l2 -16l3 -74l-1 -6l3 2l16 2l28 -2l7 4h29l13 2l25 2l5 -3l7 3l19 -2l32 -6h32l-4 -36l-4 -13l-1 -13l-12 -33l-2 -16l-10 -13 l-12 -3l-11 -4h-6l-5 -10h-5l-5 -2l-35 -2l-6 -2h-93l-2 -10l-3 -40l3 -4v-67l4 -38v-28l-3 -3l7 -6v-5l-3 -6h24l9 2l4 4l23 2h17l54 7h79l27 4l3 -25l-7 -25v-18l-8 -18l-2 -10v-15l-19 -15l-15 -5l-6 -5l-11 -4l-3 -6l-54 -7l-4 -3h-17l-29 -2l-3 -4h-14l-164 -18z" glyph-name="e" unicode="e"/><glyph d="M40 767l12 7l99 3l18 -3l163 2l7 -4l21 -5l35 -5v-12l-3 -3v-22l7 -7v-26l4 -7l-5 -9l5 -4l1 -7l4 -4l-2 -22l-5 -11h-33l-6 2h-48l-8 -1l-7 3l-54 -1l-56 2v-69l-4 -27v-90l-4 -4v-4h79l31 -2l33 -7l13 -4l9 -1l3 -7l-3 -8l10 -24v-13l4 -3l1 -11v-4l8 -18v-26l-3 -5 h-24l-38 -3l-59 -11h-11l-7 -2l-20 -2h-35l-6 -284l-22 -14l-36 -2l-72 2l-2 18l-7 3l-4 15l-3 636l1 15l7 47l-3 35l3 4l12 -5v9z" glyph-name="f" horiz-adv-x="428" unicode="f"/><glyph d="M236 12l-36 6l-38 16l-18 11l-22 20l-33 42l-17 31l-18 48l-13 44l-4 2l-15 98l-2 26l7 69l25 101l31 81l45 81l46 52l30 23l74 24l22 -1l26 3l45 -7l5 -2l7 -1l20 -14l18 -22l7 -15l9 -25l2 -14l4 -4l3 -14l4 -38l-2 -35h-5l-2 -11l-7 -13l-1 -14l2 -17l-20 -25l-15 -9 v-5l-15 -8l-6 -10l-8 -1l-2 -3l-8 -3l-1 -6l-4 1l-6 11l-6 67l2 20l-1 30l-8 38l-12 24l-9 12l-15 11l-12 -17l-20 -36l1 -6l-6 -9v-9l-9 -20l-6 -20l-7 -29l-4 -2l-7 -58l-4 -4l-2 -25l-4 -7l2 -37l-1 -77l3 -17l-1 -20l2 -5l-2 -23l3 -7l-1 -9l4 -8l-1 -14l3 -2l4 -12 l1 -13l5 -15v-8l3 -4l-2 -7l7 -20l9 -21l-1 -3l14 -25l20 -25l17 -11l22 -7l21 55l5 56l-7 86l1 11l-2 27l-12 -2l-5 2l-3 -3l-10 1l-1 -5l-23 -1l-13 12l3 14l5 11l8 9l2 15l10 9l-2 5l3 8l-2 4l3 4l4 -1v10l5 4v8l26 12l81 15l84 1l64 -16l-5 -21l-17 -37l-1 -10l-4 -5 l-6 -4l-1 -5l1 -6h-6l-1 -6l16 -10l-21 4l-5 2l-3 -16l-7 -2l-18 5l-4 -2l-10 2l-1 -5l2 -7v-5l2 -12l3 -6v-4l2 -6l5 -29l-3 -2l5 -10l1 -14l-7 -6l9 -2l-4 -24l-1 -16l-6 -1l4 -6v-6l-6 1l-4 -10l-1 -7l-4 1l-9 -15l1 -4l-8 -1l-39 -32l20 7l-1 -4l-8 -9l-18 -11l-7 -10 l-7 -2l-11 -9l-6 -2l-2 -3l-19 -5l-7 2l-3 -4l-8 -2l-4 3l-5 -4h-8l-5 -4l-21 -5l-29 -1l-8 1l-6 -5z" glyph-name="g" horiz-adv-x="596" unicode="g"/><glyph d="M372 -28l-14 37l-2 3l-10 27v10l-5 27l-5 56l3 2l-4 8v28l-3 53v74l-6 2l-103 -1l-13 -4h-10l-3 -10v-63l2 -7l-2 -5l3 -26v-7l2 -4l4 -71l2 -5l-3 -3l3 -4l-2 -10l-6 -14l-6 -3l-3 -10l2 -13l7 -12l-12 -6l-12 -9l-18 -5l-11 -6l-15 -6l-8 -2l-7 -4h-12l-4 -3l-2 -10 l-2 10l-10 -2h-6l-12 7l-9 12l-19 34v7l-3 5l-11 64v190l-2 27v39l-5 76v141l7 69l1 23l8 47l7 16l11 8l8 1l16 7l11 -1l8 3l3 8h7l17 9h9l3 3h11l8 -14l11 -55v-25l4 -32v-16l2 -23l2 -9v-25l-2 -5l4 -19v-10l3 -32l4 -14v-45l2 -13h53l16 2h74l3 32l4 112l4 29v18l4 62 l5 32l2 4l-4 3l10 28l6 4l5 6l12 4l6 -3l5 5l21 -4l2 -4l3 7h10l2 4l11 -3l13 7l12 -4l4 5l10 -6l6 -8l2 -11l5 -61l2 -12l-2 -28v-4l4 -2l2 -45l2 -6l2 -82l-2 -5l2 -4v-46l-2 -5l2 -9v-14l1 -9v-4l2 -39l2 -5v-21l2 -7l-2 -12l4 -11l2 -27l-2 -19l4 -6l-4 -2l2 -3v-12 l4 -17l-2 -10l6 -57l-2 -11v-17l-2 -6v-19l-2 -5l4 -2l-2 -10l2 -3l-6 -4v-4l4 1v-5l-4 -9l2 -8v-12h-4v-8l4 3l-4 -12l-8 -11v-4l-3 -3v-6l-4 -12l-2 -19l-5 -2l-5 7l-2 -7l-3 2v-4h-4l-29 -11l-3 2l-4 -4l-14 -5h-21l-3 -2h-22z" glyph-name="h" horiz-adv-x="540" unicode="h"/><glyph d="M58 3l-14 32l-4 21l-12 25l-7 36l-1 19l18 537l-2 46l5 59l8 12l14 6h10l4 3l8 -1l3 2l9 -4l6 3l4 -3l3 5l6 -2l4 1v-4l7 8l8 -1l2 3h4l5 -5l3 8l16 -3l13 -17l12 -39l11 -60l2 -42l-2 -9l-4 -2l3 -5l-3 -32v-74l1 -5v-10l1 -7l-1 -14l-3 -4l1 -14l-2 -8l-1 -66l1 -7 l-2 -31l2 -9l-3 -2l3 -9l-2 -18l2 -3l-2 -14l4 -43l3 -103l-1 -5l1 -8l-3 -3l5 -5l-1 -9l3 -18l-3 -3v-5l3 -3v-5l-8 -2l-1 -5l-10 -12l-1 -9l-6 -16l2 -29l-5 -3l-8 3v-8l-13 1l-11 -6l-26 -4z" glyph-name="i" horiz-adv-x="223" unicode="i"/><glyph d="M343 -6l-24 -9l-25 -6l-39 4l-16 -2l-13 6l-21 6l-8 4l-25 6l-32 3l-22 19l-27 12l-5 -4h-4l-4 -1l-2 6l-4 -4l-18 12l-6 7l-2 -4l-15 14l-2 23l-5 15v16l-2 8l-2 52l7 49l19 76l14 14l6 4h14l8 -5l9 4l4 -4l13 -6l16 -5l4 -4l16 -5l6 -6h5l4 -4l-4 -114l7 -81l12 -46 l8 2l40 24l45 75l-7 567l5 53l6 10l11 5h9l3 3l5 -1l22 2l8 -4l5 3l2 -3l3 5l4 -2l4 1v-4l6 7l6 -1l5 3l4 -4l3 7l12 -3l11 -15l9 -36l9 -54l2 -36l-2 -8l-3 -2l3 -4l-3 -30v-66l1 -4v-9l1 -6l-1 -12l3 -262l-2 -35l-10 -77l-1 -25l-5 -17l-1 -3l-10 -36l-4 -4l-13 -25z" glyph-name="j" horiz-adv-x="440" unicode="j"/><glyph d="M38 1q-2 158 -16 719q0 7 -2 23l2 20l7 7h8l4 4q23 6 25 6l3 3h14l7 4l18 6q2 0 6.5 -0.5t6.5 -0.5q2 1 5.5 2.5t5.5 2.5h10q5 -14 13 -42q1 -2 1.5 -6.5t0.5 -5.5q1 -6 5 -19t5 -20v-18l-1 -2v-2l4 -8q1 -12 4 -35t4 -35v-58l48 42q5 7 15 18t13 15l9 4l2 3l36 37 q59 72 115 139l10 4q1 -2 2 -5.5t2 -5.5l13 -48v-8l5 -7l-5 -6l1 -8l3 -2l3 -6l10 -5l1 -3l-15 -22v-7l-9 -5l-9 -15t-10 -15l-6 -8q-6 -7 -16 -23l-7 -7l-32 -46v-4l-7 -4l-6 -11l-5 -6l-1 -5l-10 -9l-4 -5l-7 -5l-29 -40l-8 -7v-5q2 -1 9 -5t12 -7l9 -6l10 -4l12 -14l3 -2 l6 -8l15 -16l9 -16v-4q1 -2 11 -18.5t13 -25.5v-15l4 -3l1 -8l5 -7l4 -9l1 -3l4 -20v-8l4 -9q1 -2 2.5 -5.5t2.5 -5.5l-1 -4l3 -9l2 -10v-10l4 -7l1 -3l6 -20l-1 -8l6 -18l13 -23h5l2 -4l7 -7h18l24 11l3 -2l-15 -15l-4 -7q-5 -5 -27 -32q-3 -3 -11 -10.5t-12 -12.5l-28 -21 l-1 -11l-4 -5l-7 -3l-8 2l-4 4q-3 0 -9.5 -2t-8.5 -2l-12 4q-5 6 -17 16h-4q-1 2 -17 23q-14 27 -15 31q-2 8 -6.5 23.5t-6.5 23.5l-4 9l-4 21q-2 8 -7.5 33.5t-9.5 39.5q-9 27 -23 62l-1 3l-6 9q-2 4 -8 10.5t-8 9.5q-3 3 -9.5 7t-9.5 6l-7 4l-10 1v-11q0 -2 0.5 -5t0.5 -4 q-1 -14 -1 -43q0 -28 -1 -42q0 -7 1 -21t1 -21q0 -4 -0.5 -13t-0.5 -13q2 -14 2 -20l-4 -21l2 -32l-9 -11l-2 -7v-6l-6 -4l-3 1h-7l-2 -7l-5 -7l-4 -10q0 -7 -2 -21l-19 -4l-12 -8l-20 -8h-8l-5 -4h-7l-9 -4l-9 2q-6 -7 -14 -11z" glyph-name="k" horiz-adv-x="529" unicode="k"/><glyph d="M116 -14l-25 2l-13 -6l-18 7l-3 -1h-10l-2 3h-4l-11 11l1 9l3 99l-6 96v31l-6 67l-1 28l1 38l-2 18l7 31l4 160l13 144l6 25l6 7l12 1h20l22 5h11l24 2l9 6l6 -1l6 -6l5 -32l3 -52l-1 -28l2 -9l1 -32l-2 -4l2 -16l-1 -33l3 -4l-6 -72l-4 -12l-2 -101l-5 -3l5 -40v-102 l2 -4l4 -43l-2 -36l-5 -43l158 4l6 -3h13l2 -18v-12l4 -10l2 -10l4 -10l-4 -8v-13l6 -10l-5 -5l-9 -2l-3 -5l-6 -3l-24 -5h-193z" glyph-name="l" horiz-adv-x="376" unicode="l"/><glyph d="M45 -2l-13 2l-7 25l-5 73l105 586l25 57l5 8l5 12l4 14l21 11h17l21 8h19l2 3l10 3l-2 5h6l14 -9l21 -30l56 -181l59 141l34 51l18 11h12l14 6h9l4 2l5 -4l12 6h8l4 8l13 -6l9 -14l-3 -8l21 -7l6 -8h6v-7l-3 -5l23 -74v-22l4 -3v-15l3 -14l1 -31l4 -21l2 -24l4 -16v-11 l6 -18l5 -65v-31l5 -40l16 -73v-21l4 -24v-20l4 -11l8 -32l6 -31v-18l2 -4v-15l6 -13l-5 -9l4 -16l-13 -22l-5 -5v-24l-7 -5l-21 -8l-17 -3l-12 -9l-9 5l-17 4l-5 -4l-18 3l-40 83l-20 122l-3 8l-4 38l-22 108v10l-6 53h-6v-8l-72 -155l-22 -10h-14l-22 4h-18l-19 -4l-11 14 l-44 178l-5 -29v-26l-10 -35v-13l-5 -29l-9 -87l-3 -3v-43l-7 -2l3 -13l-4 -4l-3 -17l-4 -15l5 -27l-4 -29l-6 -19l-7 -11l-6 -17l-9 -5l-11 -14l-12 -7h-8l-9 -6l-18 -3l-15 -6h-31z" glyph-name="m" horiz-adv-x="700" unicode="m"/><glyph d="M404 -33l-27 25l-12 18l-21 18l-22 31l-10 18l-120 263l2 -9l-3 -2l3 -9l-2 -18l2 -3l-2 -14l4 -43l3 -103l-1 -5l1 -8l-3 -3l5 -5l-1 -9l3 -18l-3 -3v-5l3 -3v-5l-8 -2l-1 -5l-10 -12l-1 -9l-6 -16l2 -29l-5 -3l-8 3v-8l-13 1l-11 -6l-26 -4l-58 -2l-14 32l-4 21l-12 25 l-7 36l-1 19l18 537l-2 46l5 59l8 12l14 6h10l4 3l8 -1l3 2l9 -4l6 3l4 -3l3 5l6 -2l4 1v-4l7 8l8 -1l2 3h4l5 -5l3 8l16 -3l13 -17l1 -3l7 -3l194 -499l-4 114l-2 18l7 31l4 160l13 144l6 25l6 7l12 1h20l22 5h11l24 2l9 6l6 -1l6 -6l5 -32l3 -52l-1 -28l2 -9l1 -32l-2 -4 l2 -16l-1 -33l3 -4l-6 -72l-4 -12l-2 -101l-5 -3l5 -40v-102l2 -4l4 -43l-2 -36l-10 -91l-4 -4v-8l-2 -6l-1 -20l-3 1l-25 -10l-23 -15z" glyph-name="n" horiz-adv-x="552" unicode="n"/><glyph d="M236 -9l-22 4l-21 5h-21l-19 6l-24 14l-32 32l-24 37l-23 53l-18 69l-9 70l-3 88l3 60l7 45l22 95l12 34l14 31l4 11l3 3v5l22 41l21 26l15 12l4 1l22 13l28 20l37 19h6l3 -2v6l37 8h37l9 -1l33 -8l27 -13l30 -22l18 -21l21 -30l4 -9l4 -3v-6l3 -4l11 -27l14 -22l7 -19 l-5 -3l6 -11l13 -42l2 -15l7 -27l4 -26l3 -8l-2 -22l7 -4l-2 -13l2 -3l-3 -11l-4 -5l2 -4v-11l-2 -3v-19l-3 -6l-5 -2l3 -10l-4 -16l-4 -9l3 -7l-2 -13l-5 -4l2 -8l-4 -8l-6 -3l-4 -84l-6 -41l-9 -25l-16 -38l-12 -19l-28 -37l-16 -18l-12 -6l-4 -6l-18 -9l-7 -7h-6l-8 -8 l-38 -10l-40 -7zM257 122l46 -2l30 8h9l3 4l11 4l4 -1l2 5l14 11l-11 104l15 146l-6 65l-14 87l-21 65l-14 23l-12 13l-17 12h-9l-5 6h-17l-21 -40l-12 -33l-6 -24v-14l-14 -42l-1 -15l-2 -12l-3 -6l2 -4l-2 -30l-4 -24l-5 -4l3 -2v-18l-2 -11l2 -4l-2 -12l2 -6v-34l2 -5 l9 -87v-11l7 -31l8 -28v-19l6 -14l10 -16z" glyph-name="o" horiz-adv-x="553" unicode="o"/><glyph d="M57 -28l-5 6l-19 94l-5 13l-7 65l3 11l-1 23l1 34l2 3l-6 99l1 5l1 154l8 75l6 34l-8 146l10 16l11 7h10v7l-1 5l7 3l28 3l39 2l18 2h100l46 -4l73 -24l25 -11l14 -12l4 -8h7l7 -8l3 -9l16 -12l3 -12l3 -2l10 -15l2 -9l3 -5l-2 -3l6 -14l4 -4l-3 -4v-5l-4 -11l3 -7 l-2 -37l6 -8l-6 -13l1 -3l-2 -4l-3 -15v-6l4 -7h-4l-4 -3l-2 -23l1 -19l-3 -3l-11 -18l1 -12l-3 -7l-4 -2l-5 -18l-6 -4l-5 -16h-5l-2 -7l-4 -8h-5l-2 -7l-14 -9h-5l-7 -8l-7 -1l-2 -4l-50 -21h-8l-13 -7h-8l-27 -6l-18 -7l-67 -14h-8l-3 -2l4 -8l-5 -18l4 -152l3 -2l4 -23 l-3 -21l-5 -7l-12 -24l-6 -33l-8 -5h-8l-2 -3l-17 -5h-7l-15 -7h-23zM167 443l1 -32l87 22l59 28l44 32l-3 49l-5 17l-10 23l-20 31l-21 18l-24 11l-42 6l-62 3l2 -28l-1 -10l1 -18l-2 -7l2 -34l-4 -3l1 -18v-26l-2 -21z" glyph-name="p" horiz-adv-x="494" unicode="p"/><glyph d="M271 -21l-4 4l-3 -2l-59 12l-36 18l-42 30l-17 16l-24 36l-23 42l-20 53v4l-3 4l-11 40l-7 57l-2 67l2 45l10 83l29 120l38 89l21 31l47 37l42 22l12 3l5 6l18 9l38 10l12 2h52l47 -13l18 -7l14 -9l4 -1l15 -13l4 -7h6l36 -55l6 -18l3 -2l6 -16l6 -23l-2 -3l4 -5l4 -14 l-2 -13l5 -2l8 -22v-13l4 -7l-2 -13v-5l5 -2v-14h4l3 -23l7 -29v-9l2 -5v-50l-4 -6v-31l-5 -16v-16l-3 -7v-9l-7 -14l-2 -7l-4 -6v-4l-7 -10l-2 -9l-6 -2v-12l-12 -12l-9 -18l-2 -17l26 -17l65 -59h4l6 -4v-6l3 4l3 -2l24 -5h21v-9l-6 -6l-1 -6l-6 -8l-2 -5l-8 -12l-11 -20 l-8 -4l-11 -19l-17 -10l-21 -6h-27l-21 5l-19 12l-31 32l-5 -5l-11 -21l-3 -14l-12 -11l-4 -7l-9 -9l-1 -3l-7 -4l-6 -5l-19 -11l-13 -6l-27 -2l-32 -6h-31zM336 101l4 -2h21l7 25l-2 4l-49 14h-9l-17 11l8 23l5 2v5l5 2l2 9l16 14v18l5 4l11 21l10 5h42v48l2 17l2 34v57 l-13 97l-6 25l-8 53l-6 17l-1 16l-23 49l-17 18l-17 12l-29 9l-14 -22l-32 -63l-5 -13l-9 -34l-5 -6v-9l-2 -4l-3 -14l-11 -69l-4 -39v-59l-2 -7l2 -5v-26l2 -26l2 -10l1 -23l2 -5l18 -71l23 -49l28 -37l30 -12h8z" glyph-name="q" horiz-adv-x="660" unicode="q"/><glyph d="M140 4h-35q3 15 7 38q0 2 -0.5 6t-0.5 6l-15 136q1 121 13 323l-2 126h-74l-13 8v7l6 6q6 10 19 28.5t19 27.5l1 6l7 8v7l5 5l5 9q1 1 10 8.5t13 11.5l139 9h55q5 0 15.5 -2t15.5 -2l14 -6h10l18 -7h6l24 -7l7 -5l15 -5h5q4 -4 16 -12l10 -2q15 -11 45 -35l4 -8l4 -1 l15 -16l4 -6l5 -5l-4 -2l12 -12l5 -15q2 -10 4 -17q0 -3 -0.5 -10t-0.5 -11l-6 -12l-4 -23q-3 -4 -37 -49l-26 -46l-13 -14l-11 -5l-2 -10q-6 -6 -21.5 -22.5t-25.5 -24.5q5 -4 14.5 -10t13.5 -9q22 -19 23 -20l23 -49q3 -7 5 -22l-1 -11l4 -3l-1 -7l7 -26l-1 -6l6 -36 l2 -18l2 -10v-5l3 -9l8 -17q2 -3 26 -35l6 -6l7 -5l16 -7h25l-1 -4q-16 -16 -31 -26l-12 -12l-13 -6l-10 -11l-15 -12l-11 -12l-6 -4h-5l-12 -5q-4 0 -11.5 -0.5t-11.5 -0.5q-10 0 -15 1v6l-2 -5l-26 22l-18 28q-2 3 -4 10.5t-5 11.5q0 5 -3 14.5t-3 14.5v10l-14 94l1 6 l-17 45l-12 16q-4 3 -11 9t-11 9q-4 2 -11 7t-8 6q-4 1 -12.5 3t-12.5 4l-2 -7q0 -17 -15 -133v-24q-1 -2 -1.5 -6.5t-0.5 -5.5q0 -4 -0.5 -11t-0.5 -10l-1 -3q-2 -4 -4 -12l-4 -4v-7q-4 -5 -8 -17l-4 -3q-4 -7 -9 -21t-8 -21l-7 -4l-17 -2q-3 0 -10 -0.5t-10 -0.5l-15 -3 q-1 1 -3 1.5l-4 1t-3 0.5zM303 456l4 -2h20l42 9q5 2 13.5 5.5t11.5 4.5l8 7q2 4 4 12t4 12q0 5 -2 12.5t-2 10.5q-2 6 -7 16t-7 15q-4 6 -12 15t-10 12l-27 18q-6 2 -17 8t-15 8q-6 1 -17 4t-16 4q-1 -1 -11 -3q3 -37 3 -38l4 -24v-101q15 -4 20 -5h9z" glyph-name="r" horiz-adv-x="610" unicode="r"/><glyph d="M283 4l-3 3l-15 -1l-3 1h-5l-7 4l-9 1l-89 31h-7l-17 8l-24 18l-31 29l-17 27l-27 58v8l-5 14l-4 28l4 13l18 7l3 3h4l9 9l5 1l10 8h9l2 5h4l19 8l12 13h5l4 -6v-7l3 -3l17 -29l10 -13l1 -4l7 -8l29 -44l16 -16l18 -8h57l30 3l8 35l3 27l-5 25l-14 33l-32 41l-35 25l-8 1 l-5 5h-6l-12 5l-15 10l-16 6l-18 12l-7 2l-35 25l-14 14h-6v4l-21 13l-17 22l-1 4l-21 26l-12 23l-6 34v43l7 42l6 10l5 15l25 39l25 21l21 13l14 11l16 23l16 17l39 9h49l56 -11l40 -20l55 -41l5 -8l23 -23l10 -12l19 -39l3 -14l7 -14v-6l-11 -13l-2 -10l-8 -15l-7 -7v-6 l-19 -15l-21 -10l-21 -16h-5l-23 -8l-9 7l-19 57l-3 14l-20 42l-15 18l-11 5l-27 4l-30 -4l-11 -7l-11 -23l-5 -17l-9 -23v-26l40 -37l17 -13l30 -17l73 -31l20 -11l35 -24l23 -23l4 -2l4 -6l12 -13l22 -31l7 -7l18 -37l6 -15l9 -29l5 -39l3 -5l-4 -23l-9 -14l2 -11l-6 -19 l-15 -8l-4 -8l-16 -9l-4 -8l3 -6l-7 -11l-9 -9v-6l-11 -14l-8 -4l-15 -13l-5 -1l-5 -5l-28 -17l-16 -3l-6 -7h-9l-9 -12h-7l-5 -9z" glyph-name="s" horiz-adv-x="523" unicode="s"/><glyph d="M250 -30l-16 40l-8 16l-8 32v9l-5 27v57l-6 63v4l-2 32l1 85l-6 101v118l7 58v12h-36l-13 -3l-13 1l-5 -2l-24 2h-35l-32 8h-14l-10 12l-5 9h6l-4 7l4 2l3 9h4l5 5l-2 3l4 4v6l4 7l11 10l4 13v4l4 4v8l7 7v5l9 10l-3 3l9 3l31 -2l86 4l6 3l62 2l8 2l149 9h36l37 3l13 -3 h25l7 1l2 -3l-15 -30l-25 -44v-13l-6 -2l-11 -19v-13l-29 -5l-14 -7l-12 2l-6 -5h-9l-38 -6h-10l-7 -1v-112l2 -4l2 -69l13 -140v-183l1 -11v-42l-3 2v-9l-8 -18v-39l-7 -2l-4 2l-3 -8l-7 -2l-30 -13l-4 -4l-9 -6l-21 -5h-9l-3 -2l-21 -6z" glyph-name="t" horiz-adv-x="567" unicode="t"/><glyph d="M216 13h-9l-25 12l-4 4l-10 6l-19 15l-17 4l-8 8l-6 3l-28 19l-12 15h-4l-9 14l-10 9l-14 32l-15 59l-4 36l-2 61l2 32l-2 156l14 148v29l5 20l2 26l10 42l6 13l26 4l2 3l3 -3l26 -1l6 -2h8l11 -7l12 3l3 6l5 -3h6l4 5l7 -5l10 -21l-4 -4l2 -45l8 -65l-11 -152l14 -251 l5 -34l7 -26l17 -9l40 -14l32 -6l21 -1l5 32l1 31l-3 23l6 39l6 118l-7 136l1 29l-12 193l-5 22l1 15l7 7l11 3l8 -3l26 -2l7 -2l7 2l14 -6l9 6h7l12 -5l7 -5l23 -22h5l2 -6l2 -12l11 -25l5 -23l3 -28l16 -82l9 -130l-1 -35l4 -16l-1 -51l-5 -7l3 -7l-1 -26l-5 -19l-2 -91 l-7 -9l-7 -21v-5l-10 -24l-28 -36l-2 -6l-16 -16l-4 -2l-18 -15l-15 -10l-16 -13l-30 -17h5l26 10l6 5l30 19l-13 -10l-6 -7l8 -1l-19 -5l-8 -7l-6 -2l-4 -3l-14 -3l-8 -4h-14l-31 -9l-70 -9zM400 48l12 4h6l-15 -7l-3 -5v8zM423 58l2 -4l-5 -2z" glyph-name="u" horiz-adv-x="524" unicode="u"/><glyph d="M281 -4l-15 11l-25 1l-3 -1l-7 20l-3 5l-2 8l-5 3l-35 87l-11 35l-9 43l1 5l-27 100l-7 41l-5 2l-30 99l-7 11l-26 70l2 4l-10 32l-2 17l-3 3l-8 32v10l-10 26l-10 53l-4 32l4 9l6 2l11 -3l24 4l11 3l23 1l20 6l12 2l7 -5l14 -24l52 -138l48 -157l15 -29l3 -18l13 -38 l17 -95l-2 -3l21 94l12 38l3 18l15 29l48 157l52 138l14 24l7 5l12 -2l20 -6l23 -1l11 -3l24 -4l11 3l6 -2l4 -9l-4 -32l-10 -53l-10 -26v-10l-8 -32l-3 -3l-2 -17l-10 -32l2 -4l-26 -70l-7 -11l-30 -99l-5 -2l-7 -41l-27 -100l1 -5l-9 -43l-11 -35l-35 -87l-5 -3l-2 -8 l-3 -5l-7 -20l-3 1l-26 -1l-14 -3z" glyph-name="v" horiz-adv-x="601" unicode="v"/><glyph d="M185 -1l8 12h-40l-23 3l-8 -4v-8l-16 7h-4l-14 13l-10 13l-25 27l-14 37l-14 57l-5 118l5 90l2 17l-1 40l22 200l-4 25l25 112l11 16l8 4h6l4 3h4l2 -3l4 5l10 4l2 -4l4 2l2 7l9 -9l7 8l8 -4l7 8l1 -5l8 5l13 5l7 -9l3 -20l6 -103v-47l-2 -12v-21l-2 -10l-2 -129l-4 -19 v-29l-5 -37l-5 -9v-29l-3 -34l3 -17l-2 -47l7 -50l16 -56l15 -31l14 -18l11 -7l5 7l17 47l8 74v57l-17 130v99l17 16h13l13 5l4 4h14l4 5h10l4 2h7l7 7l4 6h4l11 11l4 8l18 -31l3 -10l5 -6l60 -154l12 -22l59 -150l16 -25l4 26l-4 58l-52 339l-7 113l-4 32l3 23l11 13l3 -3 l6 6h7l16 14h10l3 -5l5 12h8l3 7l1 -5h4l21 16l9 -6l17 -49l13 -72l2 -16l7 -37l8 -22l6 -54v-17l3 -3l13 -65v-19l6 -28l2 -16l4 -5v-19l4 -23v-20l5 -19l-3 -9l4 -14h6v-43l-8 -30l-11 -28l-11 -21l-22 -37l-32 -27l-20 -14l-11 -4l-8 -7l-15 -8l-25 -7l-4 -4l-25 -5h-37 l-11 9l-30 38l-30 68l-8 -28l-6 -9l-29 -31l-11 -7l-23 -22l-15 -16l-1 -7l-33 -22l-42 -13z" glyph-name="w" horiz-adv-x="702" unicode="w"/><glyph d="M430 0l-69 89l-67 115l-12 -2l-52 -146l-13 -16l-11 -29l-17 -8l-13 2l-37 -20l-11 1l-4 -1l-22 1l-20 7l-13 -1l-25 11l-24 6v4l8 6l15 23l155 339l-106 187l-61 126l-1 16l11 14h4l4 4l8 3l60 39l13 6l6 11l5 1l21 -20l89 -153l44 -57l87 206l16 22l23 -1l7 -6l15 1 l4 -7l14 -1l10 -5l16 -4l16 2l9 3l4 -5l2 -20l-4 -30l-23 -81l-29 -79l-5 -6l-3 -13l-45 -99l-8 -14l-2 -7l-14 -31l25 -43l19 -42l1 -9l12 -10l11 -27l4 -4l2 -9l7 -4l60 -126l33 -43v-9l-9 -6l-8 -13l-12 -4l-4 -5l-10 -3l-3 -4l-11 -6l-7 -2l-15 -9h-6l-17 -13l-11 -1z " glyph-name="x" horiz-adv-x="579" unicode="x"/><glyph d="M395 -10l-24 -9l-25 -6l-39 4l-16 -2l-13 6l-21 6l-8 4l-25 6l-32 3l-22 19l-27 12l-5 -4h-4l-4 -1l-2 6l-4 -4l-18 12l-6 7l-2 -4l-15 14l-2 23l-5 15v16l-2 8l-2 52l7 49l19 76l14 14l6 4h14l8 -5l9 4l4 -4l13 -6l16 -5l4 -4l16 -5l6 -6h5l4 -4l-4 -114l7 -81l12 -46 l8 2l40 24l45 75l-6 211l-7 -2l-13 -2l-4 -4l-17 -5l-9 2l-20 -1l-4 3l-7 -1l-33 4l-14 7l-9 -2l-7 6l-15 -4l-5 4l-10 -4l-20 19v4l-13 8l-2 3l-3 3l-3 7l-7 7l-51 79l-5 5l-9 16l-7 29l-5 93l3 32l15 62l5 7l5 14l14 24l11 8l18 -6l5 1l3 -3l12 2l5 -2h13l7 -6l5 3l3 -3 l20 -5l17 3l4 -3l-1 -8l-4 -5l1 -4l-5 -34v-16l-2 -4l1 -10l-4 -53l9 -91l58 -38l40 9l19 20l12 23l10 81l-1 84l5 53l6 10l11 5l6 1l3 -1l3 3l5 -1l22 2l8 -4l5 3l2 -3l3 5l4 -2l4 1v-4l6 7l6 -1l12 6l12 -3l11 -15l18 -90l2 -36l-2 -8l-3 -2l3 -4l-3 -30v-66l1 -4v-9l1 -6 l-1 -12l3 -262l-2 -35l-10 -77l-1 -25l-5 -17l-1 -3l-10 -36l-4 -4l-13 -25z" glyph-name="y" horiz-adv-x="492" unicode="y"/><glyph d="M323 4l-68 27h-33l-45 -9l-15 -7h-9l-5 -11l-3 2l-7 -5l-12 3l-6 6l-1 -8h-6v5l-15 3h-18l-4 -2l-14 5l-2 18h-6l-22 4l-9 8l-3 23l18 51l73 171l9 16l13 31l10 13l43 84l4 10l6 7l57 124l10 27l11 19l-1 5h-23l-3 2h-17l-62 6l-30 -2l-61 7l-47 11l-7 7l-1 10l1 6l-1 7 l3 9l5 6l-2 16l4 13l1 43l-1 9l5 12l243 -11l33 5l3 -4l3 2l36 5h52l15 -5l14 -13l8 -41l7 -10l-4 -3l1 -8l-9 -10l1 -6l-3 -6v-8l-13 -33l-4 -4l-1 -11l-19 -47l-21 -66l-3 -4l-10 -31l-8 -16l-7 -23h-5l-2 -10l-15 -37l-5 -3v-5l-48 -98l-4 -2l-6 -14l-8 -9l-3 -9l-6 -4 l1 -10l-6 -8l-6 -22l-12 -21v-6l56 -10l27 -11l54 -7l19 5h9l20 6l15 6l3 2l51 31h6l1 -27l-9 -28l1 -8l-3 -12l2 -20l-18 -11l-7 -17l-1 -10l-5 -7l-14 -27l-3 -15l-7 -11l-18 -7h-17l-17 4l-8 -2l-5 -4z" glyph-name="z" horiz-adv-x="507" unicode="z"/><glyph d="M280 1h-53l-17 6h-7l-14 9l-13 3l-27 15l-24 28l-13 27l-6 25l-4 39l2 36l13 64v23l6 27v25l-3 32l-7 19l-13 16l-18 16l-13 9l-12 6l-27 24l-7 3l-3 11l2 8h10l4 2h5v8l-3 3l66 61l11 19l4 17l10 99l8 28l13 29l17 21l15 10h16l8 12l21 10h5l11 5h10l13 3l30 -3l24 -8 l21 -11l14 -9h5l42 -33l-5 -18l-8 -14l-6 -21l-17 -26l3 -10h-11l-4 -6h-16l-11 7l-16 6l-12 8l-3 1l-16 7l-13 3l-5 3l-15 -48l-4 -20v-11l-7 -14l-2 -18v-37l-4 -15l-6 -42l-6 -2l-7 -7h-5l-16 -9l-15 -6l-3 6h-9l-13 -7l37 -28l39 -41l18 -25l9 -28l3 -32l-3 -8v-14 l-6 -13l-3 -25l-3 -10l-4 -4l-6 -16l3 -15l4 -5l-2 -16l-7 -3l9 -17l28 -18l43 -11h20l14 3l23 8l13 6l3 -2l-15 -37v-6l-10 -22v-6l12 -3v-4l-22 -8l-4 -5v-11l-3 -10l-11 -12l-12 -4h-13l-16 -4z" glyph-name="braceleft" horiz-adv-x="422" unicode="{"/><glyph d="M35 19l-4 12l3 99l-6 96v31l-6 67l-1 28l1 38l-2 18l7 31l4 160l13 144l6 25l6 7l12 1h20l22 5h11l24 2l9 6l6 -1l6 -6l5 -32l3 -52l-1 -28l2 -9l1 -32l-2 -4l2 -16l-1 -33l3 -4l-6 -72l-4 -12l-2 -101l-5 -3l5 -40v-102l2 -4l4 -43l-2 -36l-10 -91l-4 -4v-8l-2 -6 l-1 -20l-3 1l-25 -8l-47 -21z" glyph-name="bar" horiz-adv-x="198" unicode="|"/><glyph d="M195 1h-53l-8 -2l-16 4h-13l-12 4l-11 12l-3 10v11l-4 5l-22 8v4l12 3v6l-10 22v6l-15 37l3 2l13 -6l23 -8l14 -3h20l43 11l28 18l9 17l-7 3l-2 16l4 5l3 15l-6 16l-4 4l-3 10l-3 25l-6 13v14l-3 8l3 32l9 28l18 25l39 41l37 28l-13 7h-9l-3 -6l-15 6l-16 9h-5l-7 7l-6 2 l-6 42l-4 15v37l-2 18l-7 14v11l-4 20l-15 48l-5 -3l-13 -3l-16 -7l-3 -1l-12 -8l-16 -6l-11 -7h-16l-4 6h-11l3 10l-17 26l-6 21l-8 14l-5 18l42 33h5l14 9l21 11l24 8l30 3l13 -3h10l11 -5h5l21 -10l8 -12h16l15 -10l17 -21l13 -29l8 -28l10 -99l4 -17l11 -19l66 -61 l-3 -3v-8h5l4 -2h10l2 -8l-3 -11l-7 -3l-27 -24l-12 -6l-13 -9l-18 -16l-13 -16l-7 -19l-3 -32v-25l6 -27v-23l13 -64l2 -36l-4 -39l-6 -25l-13 -27l-24 -28l-27 -15l-13 -3l-14 -9h-7z" glyph-name="braceright" horiz-adv-x="422" unicode="}"/><glyph d="M473 275h-8l-63 15l-52 24l-79 58l-32 13l-39 4l-13 -2l-4 -8l-12 -11l-5 -11l-5 -4l-10 -3l-11 -13l-6 -11l-23 -32h-8l-8 -8h-12l-21 8l-25 19l-3 7l-14 13v7l3 8v15l9 34l11 21l32 28l67 42l41 14l32 5l28 -1l21 -4l7 -3h8l8 -4l19 -5l27 -12l4 -4l17 -9l2 -5h6 l28 -20v-4l39 -30l4 -5l9 -2l6 -5h4l17 -7l13 -3l2 -3l19 -1l24 4l34 20l18 17l-3 6l11 8l16 32l10 8l2 -5l7 7l8 13l13 -3l50 -23l9 -8l9 -14l-18 -33l-27 -41l-10 -4l-4 -4l-2 -6l-4 -2l-9 -11l-19 -15l-19 -10l-13 -12l-37 -20l-15 -4l-3 -3l-28 -3l-5 2l-5 -3z" glyph-name="asciitilde" horiz-adv-x="731" unicode="~"/><glyph d="M171 629l18 -9l24 -60v-277l-5 -78v-37l-7 -66l-9 -48l-9 -26l-7 -4h-7l-7 -4l-25 -3l-12 -4l-5 4l-4 -4l-24 -9l-21 -1l-7 -5l-11 5v10l-7 42l4 51v28l3 27v67l-2 26l2 10v49l-3 44v141l-4 9l4 6l-6 33v25l13 14v20l4 3h8l16 9l60 11h13l9 8zM133 809l18 -6h5l14 -5 l10 -7l8 -3h6l7 -4l14 -18v-5l-8 -19l-10 -5l-5 -10l-16 -11l-2 -5l-12 -14l-6 -4l-3 -10h-6l-4 -12h-4l-2 -4h-16l-17 12l-35 19l-22 7l-3 3h-5l-13 5h-6v9l5 3l7 16l16 16l9 13l4 8l12 11l12 6l17 14h31z" glyph-name="exclamdown" horiz-adv-x="235" unicode=""/><glyph d="M169 290l-2 8l1 53l-17 1l-4 -1h-5l-5 4l-13 6l-4 -1l-30 13l-21 23l-22 35l-12 39v5l-7 48v12l-5 42l-3 13l11 54l11 31l27 37l17 11l2 9l3 4l1 5l18 14l34 11l21 4h5l3 26l2 5l4 1h6l6 3h4l7 1l5 4l3 -26v-14l31 -3l22 -5l27 -13l14 -9l15 -8l3 -4l4 -2l14 -22l1 -5 l-1 -11l6 -9l-1 -24l-38 -14l-11 -10l-22 -12l-3 -1l-9 -6h-7l-4 4l-9 19l-3 29l-6 15l-22 12l1 -27l-2 -49l-2 -8v-166l1 -3l1 -40l12 -3l9 10l8 23v9l5 17l5 29l-2 34l8 7l40 9l4 -1l4 2h4l5 5l3 -2l3 2h8l15 -18l6 -18l5 -7l3 -18v-10l1 -4l-1 -20l-2 -5l-4 -1l1 -9 l-3 -8l4 -1l-3 -12l-5 -6l-14 -12l-42 -22l-12 -3l-13 -5l-12 -2l-12 -4h-21l-6 1l-3 -1l-1 -31l-2 -3l-1 -22l-8 -5l-14 -15zM154 458l14 -24l-4 81l1 26l-1 12l2 21l1 118l-8 -1l-18 -6l-4 -12v-7l-3 -3v-6l-5 -14l-3 -24l-2 -3l3 -5l-3 -5l3 -9l-2 -10l6 -8l1 -20l1 -3 l2 -25l2 -7l-1 -6l3 -3v-4z" glyph-name="cent" horiz-adv-x="376" unicode=""/><glyph d="M96 11l-6 17l-1 24l2 3l-3 23l-5 111l5 58l-3 4l-20 3l-40 18l-5 6l5 14v10l11 5l4 19l12 10l-1 12l4 6l3 12l9 10l7 3l10 172l16 70l7 23l10 15l9 19l25 22l7 12l10 27l18 24l30 19l44 14l55 3l35 -9l44 -20l22 -17l31 -29l12 -18l1 -12l9 -10l9 -18l3 -11l8 -16v-27 l8 -25l-1 -21l-4 -7l-2 -19l-6 -3l-3 -4l-14 -4l-4 -9v-6l-11 -8l-11 -6l-16 -1l-9 1l-24 -1l-4 -3l-22 4l-4 25l-1 67l-6 26l-24 41l-19 16h-10l-8 4l-16 -4l-19 -8l-7 -12l-3 -25l-1 -3l-1 -9l-7 -14l-2 -61l-2 -6l1 -6v-44l2 -14v-63l7 -35l54 1l15 -5l13 -1l15 -7l5 -7 l-4 -16l-24 -29l-24 -41h-33l-5 -6l1 -25l4 -26l-6 -17l-1 -8l1 -14l6 -1l10 11l11 6l25 -4l33 -10l27 -15l12 -1l34 -33l38 -22v25l-8 18v9l11 5l4 7l8 3l8 7l14 5l9 10l10 5l1 3l15 4l14 -11l19 -32l3 -12l-1 -42l-20 -33l-7 -4l-9 -8l-4 3l-12 -1l-7 -4h-5l-17 -10 l-31 -14l-1 -7l-45 -18h-4l8 10l-25 -7h-12l-6 -2l-21 1l-14 3l-34 17l-4 6l-10 7l-32 29l-18 -14l-11 -16l-3 -7l-14 -5l-4 -11l-8 -4l-6 -9l-32 2l-36 -9l-16 1z" glyph-name="sterling" horiz-adv-x="581" unicode=""/><glyph d="M69 174l-7 3l-2 16l-5 7v13l2 3l-5 3l-1 21l-5 11l12 11l33 19l-16 25l-14 31l-3 26v51l2 21l10 39l6 14l5 7l-26 11l-20 17l-9 11l-3 1l-3 4v14l8 10l6 3l10 14l10 7l17 19l2 7l42 -29l26 -14l23 15l15 3l12 11l19 10l30 9l29 4l21 -4l14 -5l8 -6h4l12 -6l12 18l6 12 l7 7h7l5 -1h7l3 -4l3 2l11 -3l45 -4l2 -6l-1 -19l-7 -17l-7 -6l-5 -8l-12 -10l-4 -8l-5 -5l11 -15l5 -11l5 -5l8 -25v-8l3 -3v-20l5 -25l2 -23l-2 -11v-15l-3 -23l-9 -27l10 -6l33 -13l34 -7v-4l-25 -38l-5 -2l-7 -8l-14 -13h-19l-50 4l-14 5l-10 5l-5 -3l-8 -11l-2 -7 l-18 -6l-12 -2l-6 -4l-19 -2l-9 -3v-7l-7 -3l-26 -1l-8 -3l-37 7l-28 18l-7 -5l-8 -13l-3 -1l-11 -18l-14 -14l-30 -11l-12 -1zM277 299l22 1l16 30l7 48l-8 67l-11 37l-10 11l-6 3l-7 7l-23 12h-6l-16 6l-24 -31v-5l-4 -4l-25 -59l-4 -32v-31l9 -11l46 -33l17 -9z" glyph-name="currency" horiz-adv-x="517" unicode=""/><glyph d="M352 26l-21 6h-20l-19 4l-9 14l-4 22l-10 79v38l-2 18v41l2 18l-3 69l-112 -11h-32l-18 -4h-17l-8 4l4 22l8 11l2 10l6 20l6 33l10 11l41 8l53 4l-3 7l-15 16l-55 82l-115 144l-1 8l19 21l8 3l2 6l12 9l17 18l4 11h7l11 6l18 -4l12 -5l7 -10l6 -3l27 -22l4 -6l44 -41 l39 -46l5 -8l21 -26l9 -8l8 -12l16 -18l17 28l16 20l55 81l63 69l14 10l11 4h6l15 6l15 2l8 3h16l7 4h14l14 -6l7 -14l7 -7v-17l-6 -13l-15 -18l-2 -7l-12 -22l-5 -6l-28 -42l-7 -15l-15 -20l-13 -25l-21 -29l-1 -6l-23 -25l-9 -18l-5 -17l-7 -9l-7 -13h138l13 2l4 -4 l-2 -13l-14 -27l-7 -18l-16 -33l-10 -5l-3 -6l-15 -8l-50 -3l-2 -4l-21 -1l-13 -5l-3 -10l4 -41l-3 -11l-3 -3l5 -1v-21l-6 -10l2 -3l-2 -23v-44l4 -7l-4 -9v-61l-6 -11l-2 -22l-6 -6l-9 -3l-17 -13l-3 -23z" glyph-name="yen" horiz-adv-x="621" unicode=""/><glyph d="M38 2l-5 5l-9 36l-3 77l7 162l14 103l5 10l9 4l14 -3l7 5l7 -2l5 1l4 -3l25 4l5 -2l4 5l5 -5l6 -44l4 -90l-4 -19v-212l-10 -2l-9 -21h-7l-36 -9l-20 3l-7 -3h-11zM47 445l-7 1h-9v30l-11 12l13 264l2 14l5 8l8 5l1 -4l4 3l8 -3l43 4l5 4l8 -5l10 12l5 -8v-134l5 -52 l3 -97l-5 -16l-8 -6l-11 -21l-64 -14l-3 -5z" glyph-name="brokenbar" horiz-adv-x="162" unicode=""/><glyph d="M46 829l-16 27l-5 5l-1 14l-3 5l-1 30l15 12l4 2l7 -2l6 6l5 1l14 -3l17 11l10 -8l6 11l5 -3l3 -5v-9l12 -32l5 -28l5 -10v-8l-25 -11l-23 -5h-17l-17 -14zM228 837l-16 27l-5 5l-1 14l-3 5l-1 30l15 12l4 2l7 -2l6 6l5 1l14 -3l17 11l10 -8l6 11l5 -3l3 -5v-9l12 -32 l5 -28l5 -10v-8l-25 -11l-23 -5h-17l-17 -14z" glyph-name="dieresis" horiz-adv-x="336" unicode=""/><glyph d="M195 341l-6 3l-2 3h-9l-32 11l-50 32l-26 26l-23 35l-19 37l-8 36v45l8 44l14 56l21 42l30 44l25 21l25 13l13 4l21 10l28 7l74 4l35 -8l25 -11l2 -3l8 -2l3 -4l5 -1l35 -38l-1 -3h4l12 -23l3 -11l7 -6l12 -80l-4 -6l4 -1l-3 -6l4 -1l1 -42l-2 -20l-3 -1l-2 -14l3 -2 l-2 -6l2 -11l-6 -9v-5l-6 -7v-4l-4 -2l-2 -5l-4 -1l-15 -41l-5 -7l-3 -9l-4 -3l-12 -19l-13 -9l-1 3l-3 -5l-15 -5l-4 -6l-41 -26l-39 -12h-6l-9 -3h-28zM265 421l11 3l52 40l11 58l5 102l-1 23l-4 21l-11 29l-21 25l-17 13l-36 13l-13 2l-64 -7l-30 -35l-29 -72l-5 -23 l-1 -24l-2 -5l-2 -28l-3 -2l3 -12l-2 -3l3 -8v-7l13 -43l4 -6l13 -12l18 -13l39 -19l32 -10h37zM201 460l-7 5l-3 -1l-16 8l-11 14l-11 21l-7 23l-5 31l-2 33l-2 7l6 32l10 26l11 15l9 7l3 11l10 8l18 6l28 4l24 -2l26 -11l20 -14l5 -8l2 -15l3 -6v-14l-21 -8l-5 -6l-19 -11 h-4l-7 14l-1 16l-3 9l-14 10l-26 -2l-9 -4l-7 -25l-3 -22l2 -13l2 -3v-12l4 -26l9 -36l10 -20l11 -11l15 -5l5 6l3 19l4 10l2 18l-1 20l4 4l19 5l19 3l8 -10l6 -15l2 -11l-3 -23l1 -4l-1 -14l-3 -4l-16 -12l-4 -1l-2 -3l-35 -13l-14 1l-21 -3z" glyph-name="copyright" horiz-adv-x="451" unicode=""/><glyph d="M108 420l-9 2l-4 4h-8l-42 25l-12 11l-7 10l-6 19v16l7 30l20 40l8 10l25 22l42 20l32 10l32 13l8 5l14 5l-9 36l-8 7l-12 -6l-19 -5l-26 -16l-12 -4l-14 -8l-2 -3h-29l-15 6v9l-3 5l-2 13l3 9l-3 10l2 10v23l13 17l19 19l36 17l18 5l43 6l35 -11l50 -27l5 -11l6 -6 l12 -20v-5l8 -15v-8l5 -2v-17l3 -2l11 -31v-19l4 -7l-1 -11l6 -26l-3 -4l4 -32v-21l2 -9l-6 -1l3 -9l-4 -7l-5 -2l4 -9l6 -3l-3 -8l-7 -7l-3 -6l-16 -18v-4l-18 -15v-4h-4l-5 -5h-4l-5 -3l-14 10l-8 12l-6 15l-9 -4l-24 -23l-29 -14h-5l-3 -4l-23 -4l-22 -8zM143 508v-4h12 l12 3l33 13l3 4l21 13l-10 64h-13l-2 -6l-7 -3l-4 -6l-18 -15l-13 -24v-6l-8 -12z" glyph-name="ordfeminine" horiz-adv-x="355" unicode=""/><glyph d="M229 157l-11 12l-11 -6h-7l-82 76l-10 12h-4l-73 98l-8 16l-3 2v14l18 28l5 4l23 32l71 80l69 66l25 19l3 -5l6 -4l17 -22l5 -3l16 -29l22 -7l-9 -6v-10l7 -6l-2 -5l-25 -25l-9 -6v-6l-7 -2l-3 -9l-11 -6l-1 -4l-33 -29l-5 -10l-9 -7l-27 -32l-7 -3l-2 -6l26 -31l30 -32 l15 -13l63 -65l2 -8l-4 -2l-3 -5l-10 -7l-3 -6l-8 -4l-2 -8l-6 -6v-4h-5l-13 -5h-7l-3 -5l3 -16zM477 160l-11 12l-11 -6h-7l-82 76l-10 12h-4l-73 98l-8 16l-3 2v14l18 28l5 4l23 32l71 80l69 66l25 19l3 -5l6 -4l17 -22l5 -3l16 -29l22 -7l-9 -6v-10l7 -6l-2 -5l-25 -25 l-9 -6v-6l-7 -2l-3 -9l-11 -6l-1 -4l-33 -29l-5 -10l-9 -7l-27 -32l-7 -3l-2 -6l26 -31l30 -32l15 -13l63 -65l2 -8l-4 -2l-3 -5l-10 -7l-3 -6l-8 -4l-2 -8l-6 -6v-4h-5l-13 -5h-7l-3 -5l3 -16z" glyph-name="guillemotleft" horiz-adv-x="568" unicode=""/><glyph d="M436 211l-12 3l-1 5v9l-3 19l1 60l-2 26l-30 1l-3 -2l-41 -2l-6 -1l-4 1l-3 -1l-22 -1l-7 -2l-76 -1l-37 -3l-4 -1h-16l-3 -1h-121l-6 -3h-7l-6 4l-5 7l-2 12l5 9l2 10l1 12l3 11l1 14l2 7v19l54 11h12l34 4h14l42 5h18l148 12l108 2l46 -5l25 -14l3 -16l-3 -18l-2 -6 v-13l-2 -9v-16l5 -8l-5 -2l-2 -45l2 -12l1 -67l-23 -18h-16l-7 -1l-41 1l-5 -7z" glyph-name="logicalnot" horiz-adv-x="558" unicode=""/><glyph d="M250 343l-72 5l-33 11l-14 7l-35 24l-26 27l-22 29l-20 42l-8 36v46l8 44l14 55l20 43l31 43l25 21l25 14l13 4l21 10l28 7l74 4l35 -9l25 -11l2 -3l8 -2l13 -10l30 -32l15 -26l3 -11l7 -6l12 -81l-4 -5l4 -1l-3 -6l2 -3v4l2 -3l1 -51l-2 -10l-3 -2l-2 -14l3 -2l-2 -5 l2 -11l-6 -9v-5l-6 -11l-4 -2l-2 -5l-4 -1l-15 -41l-5 -7l-3 -9l-13 -16l-3 -7l-13 -9l-1 4l-3 -5l-15 -6l-4 -5l-22 -14l-11 -5l-28 -18zM168 734l-16 -19l6 5l50 2l31 -1l26 -6l10 -4l27 -17l14 -17l4 -11l-3 -19l-23 -33l-6 -5l-4 -1v-4l-19 -16l21 -13l10 -17l3 -13 l15 -37l6 -10l12 -12l7 37l5 102l-1 22l-4 22l-11 29l-21 25l-17 13l-51 14l-48 -3l-14 -4zM138 464l5 -2l9 -8l-3 55l8 122v43h-25l-14 -37v-6l-5 -17l-1 -24l-2 -6l-2 -27l-3 -3v-5l1 3l2 -9l-2 -3l2 -16l3 -5l4 -21l7 -16zM265 421l11 4l33 22l-18 1l-13 8l-10 10l-7 21 l-8 33l-7 18l-20 16l-10 2l-4 -27l-1 -40l-2 -13l-15 -29l-25 -3l27 -12l32 -11h37zM229 612l25 2l11 5l3 9l-1 8l-5 11l-8 9l-10 6l-23 8l-5 -1l3 -22v-34z" glyph-name="registered" horiz-adv-x="451" unicode=""/><glyph d="M55 828h-24v4l-7 5l-4 6l1 21l2 8l5 5l-4 2l3 3v4l-3 2l4 2v5l-3 5l5 6l68 11h105l62 -4l-1 -24l-9 -45l2 -3l-13 -5l1 -4l-4 -2h-15l-3 -2l-74 -2l-12 2l-6 -3l-4 3h-23l-8 -2h-35z" glyph-name="macron" horiz-adv-x="285" unicode=""/><glyph d="M146 508l-15 9l-8 2h-7l-7 4h-8l-17 9l-7 7l-20 15l-14 15l-16 32l-6 36l-1 49l2 7l-1 9l4 28l7 19l21 41l16 23l17 13l64 22l23 3h46l10 -4l13 -2l26 -13l26 -15l20 -16l22 -24l12 -20l8 -16l6 -19l6 -27v-20l-2 -8l-1 -11l-6 -11l1 -5l-6 -6l-17 -30l-10 -5l-1 -6 l-3 -5l-18 -15l-5 -2l-30 -32l-6 -4l-11 -13l-70 -12l-14 1l-11 -4zM188 567l18 -2h21l6 2l17 14l14 27l12 47l1 16l-2 22l-3 14l-13 26l-19 23l-22 14l-24 8l-12 -16l-18 -35l1 -7l-7 -8l-12 -37l2 -9l-2 -13v-32l4 -38l17 -9z" glyph-name="degree" horiz-adv-x="388" unicode=""/><glyph d="M51 96l-5 4l-3 1l-6 11l4 3l-5 5l7 10l-1 15l1 15l3 3v45l10 6l121 12l2 4l-7 84l-3 8v58l-112 -3l-16 2l-3 -3l-8 3l-7 8l-3 6l1 8l3 4v23l4 29l-2 5v22h-5l8 8l26 2l51 12l54 8l6 134l4 32v16l13 11l15 1l1 -3l3 3h9l4 2l12 -2l6 -3l3 3l2 -3l9 2l2 5l4 -4h7l14 7l5 -2 l2 -16l9 -29v-147l15 -2l69 4l4 -2h12l5 -4l19 -2l20 -5l2 -18l-2 -50l-4 -8l-1 -15l-3 -5l15 -4l-5 -2h-9l-9 -7l-6 -8l-6 -3l-101 -5l-4 -3l6 -144l2 -3v-5h42l16 3l47 -7h4l8 -5l18 3v-54l-3 -30l-3 -15l2 -7l4 -4l-11 -2l-17 -12l-3 -6l-14 2h-38l-6 -2l-3 3l-7 -3h-96 l-16 2h-166l-12 -4z" glyph-name="plusminus" horiz-adv-x="464" unicode=""/><glyph d="M30 810l-8 10l2 5l-4 2v6l20 18l13 21l25 30l25 19l33 18l15 6l4 6l19 -2l20 -9l22 -24v-4l-6 -15l-28 -38l-10 -1l-6 -5l-19 -1l-38 -15l-19 -3l-48 -21l-9 -9z" glyph-name="acute" horiz-adv-x="236" unicode=""/><glyph d="M331 -6h-15l-10 25l-9 372l9 293l-9 -3l-22 -1l-4 2l-6 -2h-20l2 -7l2 -20l5 -24v-26l2 -12l-1 -8l3 -19v-28l-3 -12l-1 -28l2 -4v-14l2 -7v-25l-2 -13l2 -16v-35l-2 -3l3 -5l-4 -16l3 -9l2 -26l-4 -18v-28l2 -19l-3 -9l2 -7l-2 -81l-2 -3l1 -10v-84l-9 -21v-8l-6 -8h-7 l-4 -3l-24 -8h-29l-5 7l-14 93v21l-10 139l1 9l-7 169l-11 2l-4 -2l-11 2h-24l-20 12l-10 16l-15 15l-7 12l-10 25l-8 36v64l6 38l6 22l18 36l26 29l20 16l18 8h12l21 8l31 3h103l22 3l60 -3l24 2h41l26 -3l35 3l2 -5l-9 -49l-13 -35l-11 -7l-32 -8l-4 -5l-17 -1l-6 -4 l-2 -5l-3 -29l2 -3v-73l2 -29l-2 -6l3 -12v-58l-2 -7l2 -3v-7l-2 -3l-1 -22l3 -11l-2 -8l-1 -42l3 -6v-41l-3 -2l3 -2v-95l-3 -16v-110l-2 -5l2 -14l-2 -24l-7 -30v-22l-12 -1l-9 -4h-15l-6 -2z" glyph-name="paragraph" horiz-adv-x="511" unicode=""/><glyph d="M53 349l-15 21l-5 9l-6 6l-4 13l3 3l-5 6l-1 33l7 5l9 9h4l4 2l5 -2h5l7 7l6 1l18 -3l7 3l15 9l13 -9l7 13h6v-4l5 -5v-11l14 -36l7 -32l6 -11v-9l-32 -13l-29 -5h-21l-22 -16z" glyph-name="periodcentered" horiz-adv-x="185" unicode=""/><glyph d="M109 -247h-4l-6 3h-11l-11 6l-31 27l-18 28l-8 44l2 8l6 8l5 1l12 8l1 3l13 1l14 9l5 8l6 -3l4 -7l1 -6l14 -28l16 -21l11 -9l25 -11h7l5 18v31l-5 17l-7 13l-9 8l-22 11h-7l-20 6l-21 3l-20 -2v-4h-4l-3 4l-3 12l3 3l-2 33l1 23l5 26l6 16l5 3l12 3l2 3l26 2l6 -2l17 1 l7 -14l-1 -3l2 -6v-24l43 -8l12 -6l2 -3l17 -10l16 -18l15 -32l4 -38l-3 -4v-34l-12 -29l-33 -31l-19 -13l-33 -12l-16 -13z" glyph-name="cedilla" horiz-adv-x="264" unicode=""/><glyph d="M202 407h-5l-28 6l-44 14l-17 12l-15 4l-16 10l-19 24l-21 41l-8 29l-9 46l10 67l8 21l27 52l19 14l8 12l20 20l27 12l9 6l42 15l40 6l23 -2l3 -3l2 3l36 -9l37 -25l30 -31l21 -44l5 -27l4 -10v-48l-3 -6l-4 -2l4 -13l2 -16l-3 -5l-5 -19l-4 -34l-3 -3l-1 -15l-4 -3 l-1 -13l-3 -2l-16 -25l-2 -7l-4 -2v-5h-4l-14 -11l-25 -10l-10 -10l-17 -6h-7v-4h-8l-3 -4h-39l-6 -2zM234 496l22 -2l5 10l35 23l14 18l-2 17l2 53l-23 70l-9 18l-21 16l-16 6l-16 3l-37 -3l-21 -11l-6 -7v-4l-3 -2l-6 -19l-3 -2l-3 -20l-4 -11v-15l-4 -21l1 -31l3 -8 l1 -13l7 -24l13 -24l32 -11z" glyph-name="ordmasculine" horiz-adv-x="411" unicode=""/><glyph d="M102 172l-11 -12l-3 -6l3 16l-3 5h-7l-13 5h-5v4l-6 6l-2 8l-8 4l-3 6l-10 7l-3 5l-4 2l2 8l63 65l15 13l30 32l26 31l-2 6l-7 3l-27 32l-9 7l-5 10l-33 29l-1 4l-11 6l-3 9l-7 2v6l-9 6l-25 25l-2 5l7 6v10l-9 6l22 7l16 29l5 3l17 22l6 4l3 5l25 -19l69 -66l71 -80 l23 -32l5 -4l18 -28v-14l-3 -2l-8 -16l-73 -98h-4l-10 -12l-82 -76h-7zM350 169l-11 -12l-3 -6l3 16l-3 5h-7l-13 5h-5v4l-6 6l-2 8l-8 4l-3 6l-10 7l-3 5l-4 2l2 8l63 65l15 13l30 32l26 31l-2 6l-7 3l-27 32l-9 7l-5 10l-33 29l-1 4l-11 6l-3 9l-7 2v6l-9 6l-25 25l-2 5 l7 6v10l-9 6l22 7l16 29l5 3l17 22l6 4l3 5l25 -19l69 -66l71 -80l23 -32l5 -4l18 -28v-14l-3 -2l-8 -16l-73 -98h-4l-10 -12l-82 -76h-7z" glyph-name="guillemotright" horiz-adv-x="568" unicode=""/><glyph d="M232 648l10 -3l18 -2l6 3h12l13 -4l16 -15l8 -24l6 -30l-4 -58l-10 -66l-20 -55l-32 -61l-28 -36l-19 -39l-10 -59l-1 -26l5 -19l16 -6h20l18 6l16 15l15 23v7l3 2l3 14l9 22l5 23l3 28l5 2l-3 3v32l-3 3l13 12h10l6 -5l3 -13l12 -17l13 -13l1 -5l3 -2l2 -5l12 -10l3 -6 l5 -3h4l5 -11l4 -27l-7 -69l-9 -30l-16 -29l-16 -20l-19 -19l-2 -3l-24 -22l-10 -7l-12 -4l-16 -11l-11 -3l-50 -9l-28 4l-4 -2l-11 6h-11l-2 3l-19 3l-10 5l-3 7l-13 3l-7 4l1 5l-7 -2l-2 5l-11 10l-12 9l-18 24l-2 9l-4 5v5l-4 3v10l-9 11l2 4l-6 11v7l-11 19l1 34l-3 16 v16l4 6l4 11v6l5 7l4 12l4 5l5 15l2 12l17 29h4v5l9 13l3 11l5 2l2 11l9 8l4 11l7 5v8l6 6l6 10l7 3l26 50l5 3v7l5 13h4l6 30l-1 31l2 3l-1 20l-3 4l4 6v6l4 13v11l-13 12l2 5l30 9h28zM272 804l18 -9l7 -1l7 -6l6 -12v-9l-5 -11l-1 -11l-6 -10l-5 -2l3 -3l-6 -2l-1 -5 l-7 -7v-8l-7 -5l-4 -14l-42 9l-23 10l-36 12l10 30l20 36l17 22h38z" glyph-name="questiondown" horiz-adv-x="425" unicode=""/><glyph d="M87 14h-4l-7 5l-8 1l-26 6l-14 5l-8 5l3 29l11 44l28 82l14 52l21 62l1 8l11 36l-3 8l97 404l8 12l11 9l17 6h16l27 -3l9 5l12 4l15 13l11 3l4 -3l15 -3l5 -5l10 -3l6 -11l33 -38l9 -20l24 -65l2 -16l5 -15l1 -8l3 -4l2 -17l4 -11l5 -41l4 -18l2 -38l8 -72l4 -24l5 -76 l10 -8l2 -17l-2 -5l-2 -13l12 -90l-2 -20l8 -43l-2 -17l-8 -5l4 -7l-7 -14l-3 -11l-6 -11l-5 -23l-4 -8l-11 -8l-24 -3l-30 -13l-17 -4l-5 3l-27 126l-10 72l-11 1l-13 -6l-10 1l-9 -2l-20 -1l-13 1l-4 -6l-3 6l-12 -2l-15 1l-29 -1l-10 -18v-5l-23 -61l-5 -6l-15 -28 l-12 -12l-21 -33v-5l-5 -7l-7 -5l-14 -4l-12 -12zM246 340l5 -5l84 1l2 18l-23 207l-9 26l-6 -17l-21 -104l-8 -17zM382 834l-8 -10l-3 -6l-9 9l-48 21l-19 3l-38 15l-19 1l-6 5l-10 1l-28 38l-6 15v4l22 24l20 9l19 2l4 -6l15 -6l33 -18l25 -19l25 -30l13 -21l20 -18v-6 l-4 -2z" glyph-name="Agrave" horiz-adv-x="526" unicode=""/><glyph d="M87 14h-4l-7 5l-8 1l-26 6l-14 5l-8 5l3 29l11 44l28 82l14 52l21 62l1 8l11 36l-3 8l97 404l8 12l11 9l17 6h16l27 -3l9 5l12 4l15 13l11 3l4 -3l15 -3l5 -5l10 -3l6 -11l33 -38l9 -20l24 -65l2 -16l5 -15l1 -8l3 -4l2 -17l4 -11l5 -41l4 -18l2 -38l8 -72l4 -24l5 -76 l10 -8l2 -17l-2 -5l-2 -13l12 -90l-2 -20l8 -43l-2 -17l-8 -5l4 -7l-7 -14l-3 -11l-6 -11l-5 -23l-4 -8l-11 -8l-24 -3l-30 -13l-17 -4l-5 3l-27 126l-10 72l-11 1l-13 -6l-10 1l-9 -2l-20 -1l-13 1l-4 -6l-3 6l-12 -2l-15 1l-29 -1l-10 -18v-5l-23 -61l-5 -6l-15 -28 l-12 -12l-21 -33v-5l-5 -7l-7 -5l-14 -4l-12 -12zM246 340l5 -5l84 1l2 18l-23 207l-9 26l-6 -17l-21 -104l-8 -17zM198 824l-8 10l2 5l-4 2v6l20 18l13 21l25 30l25 19l33 18l15 6l4 6l19 -2l20 -9l22 -24v-4l-6 -15l-28 -38l-10 -1l-6 -5l-19 -1l-38 -15l-19 -3l-48 -21 l-9 -9z" glyph-name="Aacute" horiz-adv-x="526" unicode=""/><glyph d="M87 14h-4l-7 5l-8 1l-26 6l-14 5l-8 5l3 29l11 44l28 82l14 52l21 62l1 8l11 36l-3 8l97 404l8 12l11 9l17 6h16l27 -3l9 5l12 4l15 13l11 3l4 -3l15 -3l5 -5l10 -3l6 -11l33 -38l9 -20l24 -65l2 -16l5 -15l1 -8l3 -4l2 -17l4 -11l5 -41l4 -18l2 -38l8 -72l4 -24l5 -76 l10 -8l2 -17l-2 -5l-2 -13l12 -90l-2 -20l8 -43l-2 -17l-8 -5l4 -7l-7 -14l-3 -11l-6 -11l-5 -23l-4 -8l-11 -8l-24 -3l-30 -13l-17 -4l-5 3l-27 126l-10 72l-11 1l-13 -6l-10 1l-9 -2l-20 -1l-13 1l-4 -6l-3 6l-12 -2l-15 1l-29 -1l-10 -18v-5l-23 -61l-5 -6l-15 -28 l-12 -12l-21 -33v-5l-5 -7l-7 -5l-14 -4l-12 -12zM246 340l5 -5l84 1l2 18l-23 207l-9 26l-6 -17l-21 -104l-8 -17zM168 824l-8 6l3 18l3 6l3 17v16l6 10l53 56l44 41l10 6l2 13l10 4h7l5 -9l12 -7l3 -4l18 -9l7 -9l12 -11l2 -6l7 -3l20 -23l16 -14l6 -9l-1 -4l4 -2l-1 -8 l5 -11l-1 -7l-21 -39l-14 -20l-18 14l-37 38l-25 33l-17 13l-9 -5l-4 -15l-22 -29l-2 -5l-5 -5l-5 -2l-4 -5l-4 -2l-5 -10l-23 -16l-11 -4z" glyph-name="Acircumflex" horiz-adv-x="526" unicode=""/><glyph d="M87 14h-4l-7 5l-8 1l-26 6l-14 5l-8 5l3 29l11 44l28 82l14 52l21 62l1 8l11 36l-3 8l97 404l8 12l11 9l17 6h16l27 -3l9 5l12 4l15 13l11 3l4 -3l15 -3l5 -5l10 -3l6 -11l33 -38l9 -20l24 -65l2 -16l5 -15l1 -8l3 -4l2 -17l4 -11l5 -41l4 -18l2 -38l8 -72l4 -24l5 -76 l10 -8l2 -17l-2 -5l-2 -13l12 -90l-2 -20l8 -43l-2 -17l-8 -5l4 -7l-7 -14l-3 -11l-6 -11l-5 -23l-4 -8l-11 -8l-24 -3l-30 -13l-17 -4l-5 3l-27 126l-10 72l-11 1l-13 -6l-10 1l-9 -2l-20 -1l-13 1l-4 -6l-3 6l-12 -2l-15 1l-29 -1l-10 -18v-5l-23 -61l-5 -6l-15 -28 l-12 -12l-21 -33v-5l-5 -7l-7 -5l-14 -4l-12 -12zM246 340l5 -5l84 1l2 18l-23 207l-9 26l-6 -17l-21 -104l-8 -17zM323 836l-27 2l-14 6l-11 9l-29 32l-15 9h-6l-5 -3l-3 -11l-4 -5l3 -6v-5l-7 -3v-4l-5 -6h-24l-11 2l-4 8l-9 11l-7 14l-3 11l1 29l12 33l20 19l20 9l14 2 h24l39 -14v-4l6 -2l18 -14l1 -3l3 -1l6 -7l4 -2l2 -4h4l-1 -5l13 -12l13 10l7 12l6 22h5l7 23l4 -4h6l3 -2l37 -4l6 -3l3 -4h4l1 -10l-2 -14l2 -3l-10 -38l-7 -15l-8 -10l-2 -14l-6 -3l-12 -13l-31 -15h-8l-8 3z" glyph-name="Atilde" horiz-adv-x="526" unicode=""/><glyph d="M87 14h-4l-7 5l-8 1l-26 6l-14 5l-8 5l3 29l11 44l28 82l14 52l21 62l1 8l11 36l-3 8l97 404l8 12l11 9l17 6h16l27 -3l9 5l12 4l15 13l11 3l4 -3l15 -3l5 -5l10 -3l6 -11l33 -38l9 -20l24 -65l2 -16l5 -15l1 -8l3 -4l2 -17l4 -11l5 -41l4 -18l2 -38l8 -72l4 -24l5 -76 l10 -8l2 -17l-2 -5l-2 -13l12 -90l-2 -20l8 -43l-2 -17l-8 -5l4 -7l-7 -14l-3 -11l-6 -11l-5 -23l-4 -8l-11 -8l-24 -3l-30 -13l-17 -4l-5 3l-27 126l-10 72l-11 1l-13 -6l-10 1l-9 -2l-20 -1l-13 1l-4 -6l-3 6l-12 -2l-15 1l-29 -1l-10 -18v-5l-23 -61l-5 -6l-15 -28 l-12 -12l-21 -33v-5l-5 -7l-7 -5l-14 -4l-12 -12zM246 340l5 -5l84 1l2 18l-23 207l-9 26l-6 -17l-21 -104l-8 -17zM164 847l-16 27l-5 5l-1 14l-3 5l-1 30l15 12l4 2l7 -2l6 6l5 1l14 -3l17 11l10 -8l6 11l5 -3l3 -5v-9l12 -32l5 -28l5 -10v-8l-25 -11l-23 -5h-17l-17 -14z M346 855l-16 27l-5 5l-1 14l-3 5l-1 30l15 12l4 2l7 -2l6 6l5 1l14 -3l17 11l10 -8l6 11l5 -3l3 -5v-9l12 -32l5 -28l5 -10v-8l-25 -11l-23 -5h-17l-17 -14z" glyph-name="Adieresis" horiz-adv-x="526" unicode=""/><glyph d="M87 14h-4l-7 5l-8 1l-26 6l-14 5l-8 5l3 29l11 44l28 82l14 52l21 62l1 8l11 36l-3 8l97 404l8 12l6 5l-19 17l-2 6l-10 11l-18 32l-5 27l-2 27l4 26l8 22l14 27l18 19l13 10l17 7h5l12 11l26 8h21l17 -3l19 -9l13 -10l12 -13l15 -24l6 -22l4 -7l7 -40v-22l-4 -30 l-14 -27l-11 -8l-9 -14l9 -3l6 -11l33 -38l9 -20l24 -65l2 -16l5 -15l1 -8l3 -4l2 -17l4 -11l5 -41l4 -18l2 -38l8 -72l4 -24l5 -76l10 -8l2 -17l-2 -5l-2 -13l12 -90l-2 -20l8 -43l-2 -17l-8 -5l4 -7l-7 -14l-3 -11l-6 -11l-5 -23l-4 -8l-11 -8l-24 -3l-30 -13l-17 -4l-5 3 l-27 126l-10 72l-11 1l-13 -6l-10 1l-9 -2l-20 -1l-13 1l-4 -6l-3 6l-12 -2l-15 1l-29 -1l-10 -18v-5l-23 -61l-5 -6l-15 -28l-12 -12l-21 -33v-5l-5 -7l-7 -5l-14 -4l-12 -12zM246 340l5 -5l84 1l2 18l-23 207l-9 26l-6 -17l-21 -104l-8 -17zM307 823l3 6l7 35l1 16l-3 27 l-14 36l-17 15l-6 -3l-9 -14v-6l-6 -7l-3 -14l-4 -2l-6 -19l-1 -13l5 -17l11 -19l8 -9l14 -4l12 -12z" glyph-name="Aring" horiz-adv-x="526" unicode=""/><glyph d="M372 19l-12 7v9l-12 -5l-3 4l3 46l-7 47l-1 15v24l-5 35l-8 -3l-10 1l-9 -2l-20 -1l-13 1l-4 -6l-3 6l-12 -2l-15 1l-29 -1l-10 -18v-5l-23 -61l-5 -6l-15 -28l-12 -12l-21 -33v-5l-5 -7l-7 -5l-14 -4l-12 -12l-1 15h-4l-7 5l-8 1l-26 6l-14 5l-8 5l3 29l11 44l28 82 l14 52l21 62l1 8l11 36l-3 8l97 404l8 12l11 9l17 6h16l27 -3l9 5l203 8l29 -2h20l18 -5h22l66 -13l9 -1l59 -14l3 -8v-17l-4 -7v-5l-17 -41v-9l-7 -15l-4 -18h-18l-14 -3l-18 -2l-11 -3h-57l-34 2l-95 11v-44l6 -108h76l20 -2l7 -2h11l59 -11l38 -3h24l3 -5v-26l-8 -18v-4 l-1 -11l-4 -3v-13l-10 -24l3 -8l-3 -7l-9 -1l-13 -4l-33 -7l-31 -2h-124v-4l4 -4v-90l4 -7v-69l56 2l100 -2l7 3l8 -1h48l6 2h33l5 -11l2 -22l-4 -4l-1 -7l-5 -4l5 -9l-4 -7v-26l-7 -7v-8l3 -3v-12l-35 -5l-21 -5l-7 -4l-28 -3l-14 -4l-4 -3h-9l-7 -4l-6 2l-7 -3h-15l-3 -2 l-39 -6h-77l-18 -2zM246 340l5 -5l68 1l7 117l-12 108l-9 26l-6 -17l-21 -104l-8 -17z" glyph-name="AE" horiz-adv-x="745" unicode=""/><glyph d="M279 -219h-4l-6 3h-11l-11 6l-31 27l-18 28l-8 44l2 8l6 8l5 1l12 8l1 3l13 1l14 9l5 8l6 -3l4 -7l1 -6l14 -28l16 -21l11 -9l25 -11h7l5 18v31l-5 17l-7 13l-9 8l-22 11h-7l-20 6l-21 3l-20 -2v-4h-4l-3 4l-3 12l3 3l-2 33l1 23l1 7h-22l-42 -4l-26 6l-27 9l-32 27 l-14 25l-5 4l-16 54l-2 25l-7 9l-6 99v116l5 79l4 20l5 56l6 37v9l18 54l20 37l8 21v10l8 20l8 11l33 32l73 20l34 2l13 6l5 -9l26 -3l36 -12l41 -27l2 -5l27 -29l14 -19l4 -10l2 -10l5 -5l8 -19l5 -25l-11 -9l-5 -18l-8 -10l-2 -8v-11l-63 -59l-5 -6l-14 -13l-6 6l-5 53 l-15 48l-21 30l-24 13h-11l-5 2h-29l-15 -4l-2 -14l-5 -17v-34l1 -8l-6 -196l-2 -7l-2 -39l9 -85l15 -66l16 -40l29 -28l49 -28l9 -2l13 44l8 79l-5 110l5 4h5l6 6l18 5l4 4l18 5l13 6l5 4l10 -4l8 5h15l7 -4l15 -14l21 -74l7 -47l-2 -50l-2 -8v-16l-5 -15l-3 -21l-16 -14 l-2 4l-7 -7l-8 -6l-11 -6l-5 4l-2 -6l-4 1h-4l-6 4l-28 -12l-24 -17l-35 -3l-6 -2v-22l43 -8l12 -6l2 -3l17 -10l16 -18l15 -32l4 -38l-3 -4v-34l-12 -29l-33 -31l-19 -13l-33 -12l-16 -13z" glyph-name="Ccedilla" horiz-adv-x="495" unicode=""/><glyph d="M76 29l-12 7v9l-12 -5l-3 4l3 46l-7 47l-1 15v24l-6 41l-18 66l27 485l4 15l7 3l4 12l-4 1l7 9h182l29 -2h20l18 -5h22l66 -13l9 -1l59 -14l3 -8v-17l-4 -7v-5l-17 -41v-9l-7 -15l-4 -18h-18l-14 -3l-18 -2l-11 -3h-57l-34 2l-95 11v-44l6 -108h76l20 -2l7 -2h11l59 -11 l38 -3h24l3 -5v-26l-8 -18v-4l-1 -11l-4 -3v-13l-10 -24l3 -8l-3 -7l-9 -1l-13 -4l-33 -7l-31 -2h-124v-4l4 -4v-90l4 -7v-69l56 2l100 -2l7 3l8 -1h48l6 2h33l5 -11l2 -22l-4 -4l-1 -7l-5 -4l5 -9l-4 -7v-26l-7 -7v-8l3 -3v-12l-35 -5l-21 -5l-7 -4l-28 -3l-14 -4l-4 -3h-9 l-7 -4l-6 2l-7 -3h-15l-3 -2l-39 -6h-77l-18 -2zM324 840l-8 -10l-3 -6l-9 9l-48 21l-19 3l-38 15l-19 1l-6 5l-10 1l-28 38l-6 15v4l22 24l20 9l19 2l4 -6l15 -6l33 -18l25 -19l25 -30l13 -21l20 -18v-6l-4 -2z" glyph-name="Egrave" horiz-adv-x="498" unicode=""/><glyph d="M76 29l-12 7v9l-12 -5l-3 4l3 46l-7 47l-1 15v24l-6 41l-18 66l27 485l4 15l7 3l4 12l-4 1l7 9h182l29 -2h20l18 -5h22l66 -13l9 -1l59 -14l3 -8v-17l-4 -7v-5l-17 -41v-9l-7 -15l-4 -18h-18l-14 -3l-18 -2l-11 -3h-57l-34 2l-95 11v-44l6 -108h76l20 -2l7 -2h11l59 -11 l38 -3h24l3 -5v-26l-8 -18v-4l-1 -11l-4 -3v-13l-10 -24l3 -8l-3 -7l-9 -1l-13 -4l-33 -7l-31 -2h-124v-4l4 -4v-90l4 -7v-69l56 2l100 -2l7 3l8 -1h48l6 2h33l5 -11l2 -22l-4 -4l-1 -7l-5 -4l5 -9l-4 -7v-26l-7 -7v-8l3 -3v-12l-35 -5l-21 -5l-7 -4l-28 -3l-14 -4l-4 -3h-9 l-7 -4l-6 2l-7 -3h-15l-3 -2l-39 -6h-77l-18 -2zM140 830l-8 10l2 5l-4 2v6l20 18l13 21l25 30l25 19l33 18l15 6l4 6l19 -2l20 -9l22 -24v-4l-6 -15l-28 -38l-10 -1l-6 -5l-19 -1l-38 -15l-19 -3l-48 -21l-9 -9z" glyph-name="Eacute" horiz-adv-x="498" unicode=""/><glyph d="M76 29l-12 7v9l-12 -5l-3 4l3 46l-7 47l-1 15v24l-6 41l-18 66l27 485l4 15l7 3l4 12l-4 1l7 9h182l29 -2h20l18 -5h22l66 -13l9 -1l59 -14l3 -8v-17l-4 -7v-5l-17 -41v-9l-7 -15l-4 -18h-18l-14 -3l-18 -2l-11 -3h-57l-34 2l-95 11v-44l6 -108h76l20 -2l7 -2h11l59 -11 l38 -3h24l3 -5v-26l-8 -18v-4l-1 -11l-4 -3v-13l-10 -24l3 -8l-3 -7l-9 -1l-13 -4l-33 -7l-31 -2h-124v-4l4 -4v-90l4 -7v-69l56 2l100 -2l7 3l8 -1h48l6 2h33l5 -11l2 -22l-4 -4l-1 -7l-5 -4l5 -9l-4 -7v-26l-7 -7v-8l3 -3v-12l-35 -5l-21 -5l-7 -4l-28 -3l-14 -4l-4 -3h-9 l-7 -4l-6 2l-7 -3h-15l-3 -2l-39 -6h-77l-18 -2zM110 830l-8 6l3 18l3 6l3 17v16l6 10l53 56l44 41l10 6l2 13l10 4h7l5 -9l12 -7l3 -4l18 -9l7 -9l12 -11l2 -6l7 -3l20 -23l16 -14l6 -9l-1 -4l4 -2l-1 -8l5 -11l-1 -7l-21 -39l-14 -20l-18 14l-37 38l-25 33l-17 13l-9 -5 l-4 -15l-22 -29l-2 -5l-5 -5l-5 -2l-4 -5l-4 -2l-5 -10l-23 -16l-11 -4z" glyph-name="Ecircumflex" horiz-adv-x="498" unicode=""/><glyph d="M76 29l-12 7v9l-12 -5l-3 4l3 46l-7 47l-1 15v24l-6 41l-18 66l27 485l4 15l7 3l4 12l-4 1l7 9h182l29 -2h20l18 -5h22l66 -13l9 -1l59 -14l3 -8v-17l-4 -7v-5l-17 -41v-9l-7 -15l-4 -18h-18l-14 -3l-18 -2l-11 -3h-57l-34 2l-95 11v-44l6 -108h76l20 -2l7 -2h11l59 -11 l38 -3h24l3 -5v-26l-8 -18v-4l-1 -11l-4 -3v-13l-10 -24l3 -8l-3 -7l-9 -1l-13 -4l-33 -7l-31 -2h-124v-4l4 -4v-90l4 -7v-69l56 2l100 -2l7 3l8 -1h48l6 2h33l5 -11l2 -22l-4 -4l-1 -7l-5 -4l5 -9l-4 -7v-26l-7 -7v-8l3 -3v-12l-35 -5l-21 -5l-7 -4l-28 -3l-14 -4l-4 -3h-9 l-7 -4l-6 2l-7 -3h-15l-3 -2l-39 -6h-77l-18 -2zM106 853l-16 27l-5 5l-1 14l-3 5l-1 30l15 12l4 2l7 -2l6 6l5 1l14 -3l17 11l10 -8l6 11l5 -3l3 -5v-9l12 -32l5 -28l5 -10v-8l-25 -11l-23 -5h-17l-17 -14zM288 861l-16 27l-5 5l-1 14l-3 5l-1 30l15 12l4 2l7 -2l6 6l5 1 l14 -3l17 11l10 -8l6 11l5 -3l3 -5v-9l12 -32l5 -28l5 -10v-8l-25 -11l-23 -5h-17l-17 -14z" glyph-name="Edieresis" horiz-adv-x="498" unicode=""/><glyph d="M28 2l-3 22v7l-5 23l18 698l3 4l11 -1l6 8l6 -1l39 10l4 4l10 1l9 8l16 5l4 -3l6 2l16 -15l11 -152l-2 -38l2 -8l-5 -477l-7 -6v-5l-11 -21l-5 -33l-5 -7l-15 -7l-15 -5l-14 1l-5 -2h-8l-6 -3l-28 -7h-7l-8 -4h-4l-4 -11zM184 810l-8 -10l-3 -6l-9 9l-48 21l-19 3l-38 15 l-19 1l-6 5l-10 1l-28 38l-6 15v4l22 24l20 9l19 2l4 -6l15 -6l33 -18l25 -19l25 -30l13 -21l20 -18v-6l-4 -2z" glyph-name="Igrave" horiz-adv-x="199" unicode=""/><glyph d="M28 2l-3 22v7l-5 23l18 698l3 4l11 -1l6 8l6 -1l39 10l4 4l10 1l9 8l16 5l4 -3l6 2l16 -15l11 -152l-2 -38l2 -8l-5 -477l-7 -6v-5l-11 -21l-5 -33l-5 -7l-15 -7l-15 -5l-14 1l-5 -2h-8l-6 -3l-28 -7h-7l-8 -4h-4l-4 -11zM0 800l-8 10l2 5l-4 2v6l20 18l13 21l25 30 l25 19l33 18l15 6l4 6l19 -2l20 -9l22 -24v-4l-6 -15l-28 -38l-10 -1l-6 -5l-19 -1l-38 -15l-19 -3l-48 -21l-9 -9z" glyph-name="Iacute" horiz-adv-x="199" unicode=""/><glyph d="M28 2l-3 22v7l-5 23l18 698l3 4l11 -1l6 8l6 -1l39 10l4 4l10 1l9 8l16 5l4 -3l6 2l16 -15l11 -152l-2 -38l2 -8l-5 -477l-7 -6v-5l-11 -21l-5 -33l-5 -7l-15 -7l-15 -5l-14 1l-5 -2h-8l-6 -3l-28 -7h-7l-8 -4h-4l-4 -11zM-30 800l-8 6l3 18l3 6l3 17v16l6 10l53 56 l44 41l10 6l2 13l10 4h7l5 -9l12 -7l3 -4l18 -9l7 -9l12 -11l2 -6l7 -3l20 -23l16 -14l6 -9l-1 -4l4 -2l-1 -8l5 -11l-1 -7l-21 -39l-14 -20l-18 14l-37 38l-25 33l-17 13l-9 -5l-4 -15l-22 -29l-2 -5l-5 -5l-5 -2l-4 -5l-4 -2l-5 -10l-23 -16l-11 -4z" glyph-name="Icircumflex" horiz-adv-x="199" unicode=""/><glyph d="M28 2l-3 22v7l-5 23l18 698l3 4l11 -1l6 8l6 -1l39 10l4 4l10 1l9 8l16 5l4 -3l6 2l16 -15l11 -152l-2 -38l2 -8l-5 -477l-7 -6v-5l-11 -21l-5 -33l-5 -7l-15 -7l-15 -5l-14 1l-5 -2h-8l-6 -3l-28 -7h-7l-8 -4h-4l-4 -11zM-34 823l-16 27l-5 5l-1 14l-3 5l-1 30l15 12 l4 2l7 -2l6 6l5 1l14 -3l17 11l10 -8l6 11l5 -3l3 -5v-9l12 -32l5 -28l5 -10v-8l-25 -11l-23 -5h-17l-17 -14zM148 831l-16 27l-5 5l-1 14l-3 5l-1 30l15 12l4 2l7 -2l6 6l5 1l14 -3l17 11l10 -8l6 11l5 -3l3 -5v-9l12 -32l5 -28l5 -10v-8l-25 -11l-23 -5h-17l-17 -14z" glyph-name="Idieresis" horiz-adv-x="199" unicode=""/><glyph d="M77 -4l-4 48l-4 3l-1 9l3 14l-4 12v16l19 7l4 237h-21v4l-7 5l-4 6l1 21l2 8l5 5l-4 2l3 3v4l-3 2l4 2v5l-3 5l5 6l23 4l4 244l-45 -11l-21 -1l-8 8l-1 12l3 2l5 21l2 21l4 4l-3 2v11l4 15l1 17l13 8l28 14l30 11l17 4l48 2l88 -5l93 -14l30 -12l3 -2l10 -5l10 -12l10 -5 l24 -27l25 -43l5 -11l5 -1l8 -19v-8l5 -8l10 -25l9 -32l3 -7l5 -22l8 -65v-23l-1 -8v-18l-3 -9l2 -36l-4 -14l1 -6l-6 -19v-7l-3 -16v-7l-3 -10l-3 -22v-5l-5 -20l-1 -13l-4 -11l-4 -3v-4l-2 -3l-11 -31l-7 -15l-6 -6v-6l-24 -21l-37 -42l-7 -13l-13 -7l1 -12l-107 -48 l-127 -33l-54 -4zM230 156l1 -8l19 7l37 26l33 28l20 26l15 30l22 88l11 91l-7 86l-15 44l-20 40l-35 42l-12 10l-41 9l-4 -3l-7 4l-5 -2l-9 2l-15 -6l7 -171l-1 -13v-55h17l62 -4l-1 -24l-9 -45l2 -3l-13 -5l1 -4l-4 -2h-15l-3 -2l-36 -1l3 -59l-1 -91z" glyph-name="Eth" horiz-adv-x="543" unicode=""/><glyph d="M20 37l8 53v43l-3 51l7 177l10 103l-7 174l-15 122l5 11l9 3l3 4l4 -2h13l2 5l5 -5l2 3l10 4h17l13 5l7 5l6 10l12 4l20 -17l3 -5l12 -12l19 -25l27 -47l24 -48l3 -11l8 -15l50 -120v-4l8 -15l2 -7l8 -18l2 -13l4 -3l43 -102l5 -5l4 -14l4 -8l4 -3l2 -6v43l-5 76v102 l3 30l2 7v23l2 16l1 41l7 78v25l4 7v22l9 21h4l5 7l16 3l2 -3l9 4l18 2l13 -5l9 6l5 -3l3 2l6 2l5 -3l3 7l6 -6l11 6l7 -7l14 -70v-17l2 -5l5 -67v-45l3 -4l-3 -50v-78l-3 -2l3 -3v-61l7 -53v-18l1 -4v-35l-1 -4l1 -3l4 -23v-126l-2 -6l2 -3l-12 -21l-5 -18l-3 3l-2 -3 l-15 -18l-10 -5l-4 2l-5 -4l-9 -2l-4 -3h-5l-8 -4h-8l-7 -4l-36 -4l-6 -15l-2 13l-8 -2l-11 2l-6 4l-14 -6l-15 -3l-17 17l-28 33l-4 11l-4 3l-20 26l-57 109l-51 125l-2 -7v-42l-5 -70v-34l-2 -24v-38l-7 -4l2 -5l-9 -25l-28 -58l-10 -2l-22 -10l-28 -7l-11 -5v5l-14 -5z M317 808l-27 2l-14 6l-11 9l-29 32l-15 9h-6l-5 -3l-3 -11l-4 -5l3 -6v-5l-7 -3v-4l-5 -6h-24l-11 2l-4 8l-9 11l-7 14l-3 11l1 29l12 33l20 19l20 9l14 2h24l39 -14v-4l6 -2l18 -14l1 -3l3 -1l6 -7l4 -2l2 -4h4l-1 -5l13 -12l13 10l7 12l6 22h5l7 23l4 -4h6l3 -2l37 -4 l6 -3l3 -4h4l1 -10l-2 -14l2 -3l-10 -38l-7 -15l-8 -10l-2 -14l-6 -3l-12 -13l-31 -15h-8l-8 3z" glyph-name="Ntilde" horiz-adv-x="578" unicode=""/><glyph d="M235 4l-72 22l-32 17l-17 18l-17 25l-12 10l-17 21l-11 21l-17 49l-10 61v12l-10 93v80l7 71l17 82l20 61l15 30v4l31 47l29 25l20 15l12 4h9l30 22l15 9l34 11l39 3l27 -6l36 -13l46 -23l18 -18l4 -7l5 -3l21 -35l11 -26l5 -9v-4l5 -4l2 -9l8 -24l2 -10l5 -7l14 -52 l13 -72l-3 -10l3 -3l4 -20v-29l-4 -3l3 -6l-8 -91l2 -13l5 -3l-4 -14v-14l-9 -31l-4 -10l-8 -12l-12 -25l-14 -40l-27 -45l-12 -12l-12 -17h-4v-4l-6 -6l-5 -10l-5 -3l-4 -9l-4 -2l-5 -7l-37 -27l-16 -6h-17l-3 -5l-15 -7l-26 -15zM317 126l17 -1l19 4v122l13 169l-28 169 l-18 61l-12 23l-13 11l-11 5h-6l-19 -25l-27 -43l-20 -42v-10l-7 -17l-14 -70l-3 -140l3 -16l-3 -7l3 -12l2 -25l2 -10l1 -29l4 -11l8 -13l7 -15l10 -8l5 -12l4 -2l3 -7l21 -18l4 -2l5 -6l7 -4l2 -4zM358 844l-8 -10l-3 -6l-9 9l-48 21l-19 3l-38 15l-19 1l-6 5l-10 1 l-28 38l-6 15v4l22 24l20 9l19 2l4 -6l15 -6l33 -18l25 -19l25 -30l13 -21l20 -18v-6l-4 -2z" glyph-name="Ograve" horiz-adv-x="544" unicode=""/><glyph d="M235 4l-72 22l-32 17l-17 18l-17 25l-12 10l-17 21l-11 21l-17 49l-10 61v12l-10 93v80l7 71l17 82l20 61l15 30v4l31 47l29 25l20 15l12 4h9l30 22l15 9l34 11l39 3l27 -6l36 -13l46 -23l18 -18l4 -7l5 -3l21 -35l11 -26l5 -9v-4l5 -4l2 -9l8 -24l2 -10l5 -7l14 -52 l13 -72l-3 -10l3 -3l4 -20v-29l-4 -3l3 -6l-8 -91l2 -13l5 -3l-4 -14v-14l-9 -31l-4 -10l-8 -12l-12 -25l-14 -40l-27 -45l-12 -12l-12 -17h-4v-4l-6 -6l-5 -10l-5 -3l-4 -9l-4 -2l-5 -7l-37 -27l-16 -6h-17l-3 -5l-15 -7l-26 -15zM317 126l17 -1l19 4v122l13 169l-28 169 l-18 61l-12 23l-13 11l-11 5h-6l-19 -25l-27 -43l-20 -42v-10l-7 -17l-14 -70l-3 -140l3 -16l-3 -7l3 -12l2 -25l2 -10l1 -29l4 -11l8 -13l7 -15l10 -8l5 -12l4 -2l3 -7l21 -18l4 -2l5 -6l7 -4l2 -4zM174 834l-8 10l2 5l-4 2v6l20 18l13 21l25 30l25 19l33 18l15 6l4 6 l19 -2l20 -9l22 -24v-4l-6 -15l-28 -38l-10 -1l-6 -5l-19 -1l-38 -15l-19 -3l-48 -21l-9 -9z" glyph-name="Oacute" horiz-adv-x="544" unicode=""/><glyph d="M235 4l-72 22l-32 17l-17 18l-17 25l-12 10l-17 21l-11 21l-17 49l-10 61v12l-10 93v80l7 71l17 82l20 61l15 30v4l31 47l29 25l20 15l12 4h9l30 22l15 9l34 11l39 3l27 -6l36 -13l46 -23l18 -18l4 -7l5 -3l21 -35l11 -26l5 -9v-4l5 -4l2 -9l8 -24l2 -10l5 -7l14 -52 l13 -72l-3 -10l3 -3l4 -20v-29l-4 -3l3 -6l-8 -91l2 -13l5 -3l-4 -14v-14l-9 -31l-4 -10l-8 -12l-12 -25l-14 -40l-27 -45l-12 -12l-12 -17h-4v-4l-6 -6l-5 -10l-5 -3l-4 -9l-4 -2l-5 -7l-37 -27l-16 -6h-17l-3 -5l-15 -7l-26 -15zM317 126l17 -1l19 4v122l13 169l-28 169 l-18 61l-12 23l-13 11l-11 5h-6l-19 -25l-27 -43l-20 -42v-10l-7 -17l-14 -70l-3 -140l3 -16l-3 -7l3 -12l2 -25l2 -10l1 -29l4 -11l8 -13l7 -15l10 -8l5 -12l4 -2l3 -7l21 -18l4 -2l5 -6l7 -4l2 -4zM144 834l-8 6l3 18l3 6l3 17v16l6 10l53 56l44 41l10 6l2 13l10 4h7l5 -9 l12 -7l3 -4l18 -9l7 -9l12 -11l2 -6l7 -3l20 -23l16 -14l6 -9l-1 -4l4 -2l-1 -8l5 -11l-1 -7l-21 -39l-14 -20l-18 14l-37 38l-25 33l-17 13l-9 -5l-4 -15l-22 -29l-2 -5l-5 -5l-5 -2l-4 -5l-4 -2l-5 -10l-23 -16l-11 -4z" glyph-name="Ocircumflex" horiz-adv-x="544" unicode=""/><glyph d="M235 4l-72 22l-32 17l-17 18l-17 25l-12 10l-17 21l-11 21l-17 49l-10 61v12l-10 93v80l7 71l17 82l20 61l15 30v4l31 47l29 25l20 15l12 4h9l30 22l15 9l34 11l39 3l27 -6l36 -13l46 -23l18 -18l4 -7l5 -3l21 -35l11 -26l5 -9v-4l5 -4l2 -9l8 -24l2 -10l5 -7l14 -52 l13 -72l-3 -10l3 -3l4 -20v-29l-4 -3l3 -6l-8 -91l2 -13l5 -3l-4 -14v-14l-9 -31l-4 -10l-8 -12l-12 -25l-14 -40l-27 -45l-12 -12l-12 -17h-4v-4l-6 -6l-5 -10l-5 -3l-4 -9l-4 -2l-5 -7l-37 -27l-16 -6h-17l-3 -5l-15 -7l-26 -15zM317 126l17 -1l19 4v122l13 169l-28 169 l-18 61l-12 23l-13 11l-11 5h-6l-19 -25l-27 -43l-20 -42v-10l-7 -17l-14 -70l-3 -140l3 -16l-3 -7l3 -12l2 -25l2 -10l1 -29l4 -11l8 -13l7 -15l10 -8l5 -12l4 -2l3 -7l21 -18l4 -2l5 -6l7 -4l2 -4zM299 846l-27 2l-14 6l-11 9l-29 32l-15 9h-6l-5 -3l-3 -11l-4 -5l3 -6v-5 l-7 -3v-4l-5 -6h-24l-11 2l-4 8l-9 11l-7 14l-3 11l1 29l12 33l20 19l20 9l14 2h24l39 -14v-4l6 -2l18 -14l1 -3l3 -1l6 -7l4 -2l2 -4h4l-1 -5l13 -12l13 10l7 12l6 22h5l7 23l4 -4h6l3 -2l37 -4l6 -3l3 -4h4l1 -10l-2 -14l2 -3l-10 -38l-7 -15l-8 -10l-2 -14l-6 -3l-12 -13 l-31 -15h-8l-8 3z" glyph-name="Otilde" horiz-adv-x="544" unicode=""/><glyph d="M235 4l-72 22l-32 17l-17 18l-17 25l-12 10l-17 21l-11 21l-17 49l-10 61v12l-10 93v80l7 71l17 82l20 61l15 30v4l31 47l29 25l20 15l12 4h9l30 22l15 9l34 11l39 3l27 -6l36 -13l46 -23l18 -18l4 -7l5 -3l21 -35l11 -26l5 -9v-4l5 -4l2 -9l8 -24l2 -10l5 -7l14 -52 l13 -72l-3 -10l3 -3l4 -20v-29l-4 -3l3 -6l-8 -91l2 -13l5 -3l-4 -14v-14l-9 -31l-4 -10l-8 -12l-12 -25l-14 -40l-27 -45l-12 -12l-12 -17h-4v-4l-6 -6l-5 -10l-5 -3l-4 -9l-4 -2l-5 -7l-37 -27l-16 -6h-17l-3 -5l-15 -7l-26 -15zM317 126l17 -1l19 4v122l13 169l-28 169 l-18 61l-12 23l-13 11l-11 5h-6l-19 -25l-27 -43l-20 -42v-10l-7 -17l-14 -70l-3 -140l3 -16l-3 -7l3 -12l2 -25l2 -10l1 -29l4 -11l8 -13l7 -15l10 -8l5 -12l4 -2l3 -7l21 -18l4 -2l5 -6l7 -4l2 -4zM140 857l-16 27l-5 5l-1 14l-3 5l-1 30l15 12l4 2l7 -2l6 6l5 1l14 -3 l17 11l10 -8l6 11l5 -3l3 -5v-9l12 -32l5 -28l5 -10v-8l-25 -11l-23 -5h-17l-17 -14zM322 865l-16 27l-5 5l-1 14l-3 5l-1 30l15 12l4 2l7 -2l6 6l5 1l14 -3l17 11l10 -8l6 11l5 -3l3 -5v-9l12 -32l5 -28l5 -10v-8l-25 -11l-23 -5h-17l-17 -14z" glyph-name="Odieresis" horiz-adv-x="544" unicode=""/><glyph d="M103 161h-17l-5 4l-2 5l-11 10v9l-9 4l-6 11l3 6l-9 9v5l-4 8l-9 10v7l8 17l27 30l28 35l4 2l50 56l-111 107h-8l-12 21v13l13 15l5 4l5 12l32 31l3 12l7 5l43 -22l30 -23l17 -8l9 -7l64 -59l4 3l29 34v6l63 66l29 18l13 -16l20 -31l9 -4l-3 -9l4 -2l8 5l6 -20h4l10 5 l2 -4l-7 -5v-9l-4 -4l3 -12l-8 -17l-18 -21l-6 -9l-9 -9l-1 -5l-14 -22l-5 -1l-14 -22v-4l-8 -14l77 -75l9 -13l6 -14l-6 -10l-1 -16l-8 -15l-4 -2l-5 -16l-6 -7l-2 -6l-6 -3l-10 -17l-7 -3l-9 2l-11 -8l-29 16l-7 5l-74 70l-9 11l-5 -1l-71 -66l-13 -14l-4 -2l-17 -18 l-13 -8l-3 -4l-9 -5l-6 -7l-6 -2z" glyph-name="multiply" horiz-adv-x="467" unicode=""/><glyph d="M235 4l-20 6l-34 -5l-10 18l-40 20l-17 18l-17 25l-12 10l-17 21l-11 21l-17 49l-10 61v12l-10 93v80l7 71l17 82l20 61l15 30v4l31 47l49 40l12 4h9l45 31l34 11l39 3l47 -11l7 -5l9 -3l30 -15l6 3l3 -3l1 -5l6 -3l18 -18l4 -7l5 -3l21 -35l16 -35v-4l5 -4l12 -43l5 -7 l14 -52l13 -72l-3 -10l3 -3l4 -20v-29l-4 -3l3 -6l-8 -91l2 -13l5 -3l-4 -14v-14l-13 -41l-8 -12l-12 -25l-14 -40l-27 -45l-12 -12l-12 -17h-4v-4l-6 -6l-5 -10l-5 -3l-4 -9l-4 -2l-5 -7l-37 -27l-16 -6h-17l-3 -5l-41 -22zM255 471l49 205l-9 8l-11 5h-6l-19 -25l-27 -43 l-20 -42v-10l-7 -17l-14 -70l-3 -140l3 -16l-3 -7l3 -12l4 -35l1 -29l6 -15l13 56l11 72l16 66l3 20zM317 126l17 -1l19 4v122l13 169l-16 94l-8 -31l-5 -10l-24 -103l-4 -1l-10 -42l-32 -178l7 -4l2 -4z" glyph-name="Oslash" horiz-adv-x="544" unicode=""/><glyph d="M230 28l-7 6l-2 -3l-26 7l-11 -2l-6 -4l-10 4l-20 13l-18 8l-29 20l-16 20l-18 30l-13 27l-19 61l-8 37l-3 77l-4 16v99l8 121l2 6l15 128v8l8 49l18 21l6 2l4 6h4l6 3h4l7 8l18 12l10 11h14l20 -11l12 -14l4 -11l6 -6l2 -46l7 -17l2 -48l3 -8l2 -86l-5 -38v-55l-2 -35 l-4 -18l4 -18v-29l-3 -10l8 -53v-41l14 -60v-6l6 -5l6 -15l10 -16l21 -5l23 -2h52l8 4l9 26l13 68l3 126l-4 106l3 41l-11 119v114l16 5l5 6h6l16 11h9v6l19 8l26 -8l13 -10l13 -30l2 -12l8 -17l10 -39v-8l5 -14v-6l2 -4v-5l8 -34l5 -39l3 -7v-28l4 -19v-15l3 -15v-21l2 -7 l-1 -11l9 -56l2 -26v-36l-2 -13v-26l-2 -10v-20l-3 -11l-7 -9l-9 -25l-24 -14l-3 -9v-6l-12 -21l-5 -6v-7l-7 -11l-7 -15l-7 -11l-3 -2l-3 -7l-9 -10v-6l-14 -14l-2 -4l-8 -7l-19 -9l-10 -2l-12 -10l-7 -9l-18 -7l-62 -18zM358 814l-8 -10l-3 -6l-9 9l-48 21l-19 3l-38 15 l-19 1l-6 5l-10 1l-28 38l-6 15v4l22 24l20 9l19 2l4 -6l15 -6l33 -18l25 -19l25 -30l13 -21l20 -18v-6l-4 -2z" glyph-name="Ugrave" horiz-adv-x="558" unicode=""/><glyph d="M230 28l-7 6l-2 -3l-26 7l-11 -2l-6 -4l-10 4l-20 13l-18 8l-29 20l-16 20l-18 30l-13 27l-19 61l-8 37l-3 77l-4 16v99l8 121l2 6l15 128v8l8 49l18 21l6 2l4 6h4l6 3h4l7 8l18 12l10 11h14l20 -11l12 -14l4 -11l6 -6l2 -46l7 -17l2 -48l3 -8l2 -86l-5 -38v-55l-2 -35 l-4 -18l4 -18v-29l-3 -10l8 -53v-41l14 -60v-6l6 -5l6 -15l10 -16l21 -5l23 -2h52l8 4l9 26l13 68l3 126l-4 106l3 41l-11 119v114l16 5l5 6h6l16 11h9v6l19 8l26 -8l13 -10l13 -30l2 -12l8 -17l10 -39v-8l5 -14v-6l2 -4v-5l8 -34l5 -39l3 -7v-28l4 -19v-15l3 -15v-21l2 -7 l-1 -11l9 -56l2 -26v-36l-2 -13v-26l-2 -10v-20l-3 -11l-7 -9l-9 -25l-24 -14l-3 -9v-6l-12 -21l-5 -6v-7l-7 -11l-7 -15l-7 -11l-3 -2l-3 -7l-9 -10v-6l-14 -14l-2 -4l-8 -7l-19 -9l-10 -2l-12 -10l-7 -9l-18 -7l-62 -18zM174 826l-8 10l2 5l-4 2v6l20 18l13 21l25 30 l25 19l33 18l15 6l4 6l19 -2l20 -9l22 -24v-4l-6 -15l-28 -38l-10 -1l-6 -5l-19 -1l-38 -15l-19 -3l-48 -21l-9 -9z" glyph-name="Uacute" horiz-adv-x="558" unicode=""/><glyph d="M230 28l-7 6l-2 -3l-26 7l-11 -2l-6 -4l-10 4l-20 13l-18 8l-29 20l-16 20l-18 30l-13 27l-19 61l-8 37l-3 77l-4 16v99l8 121l2 6l15 128v8l8 49l18 21l6 2l4 6h4l6 3h4l7 8l18 12l10 11h14l20 -11l12 -14l4 -11l6 -6l2 -46l7 -17l2 -48l3 -8l2 -86l-5 -38v-55l-2 -35 l-4 -18l4 -18v-29l-3 -10l8 -53v-41l14 -60v-6l6 -5l6 -15l10 -16l21 -5l23 -2h52l8 4l9 26l13 68l3 126l-4 106l3 41l-11 119v114l16 5l5 6h6l16 11h9v6l19 8l26 -8l13 -10l13 -30l2 -12l8 -17l10 -39v-8l5 -14v-6l2 -4v-5l8 -34l5 -39l3 -7v-28l4 -19v-15l3 -15v-21l2 -7 l-1 -11l9 -56l2 -26v-36l-2 -13v-26l-2 -10v-20l-3 -11l-7 -9l-9 -25l-24 -14l-3 -9v-6l-12 -21l-5 -6v-7l-7 -11l-7 -15l-7 -11l-3 -2l-3 -7l-9 -10v-6l-14 -14l-2 -4l-8 -7l-19 -9l-10 -2l-12 -10l-7 -9l-18 -7l-62 -18zM150 834l-8 6l3 18l3 6l3 17v16l6 10l53 56l44 41 l10 6l2 13l10 4h7l5 -9l12 -7l3 -4l18 -9l7 -9l12 -11l2 -6l7 -3l20 -23l16 -14l6 -9l-1 -4l4 -2l-1 -8l5 -11l-1 -7l-21 -39l-14 -20l-18 14l-37 38l-25 33l-17 13l-9 -5l-4 -15l-22 -29l-2 -5l-5 -5l-5 -2l-4 -5l-4 -2l-5 -10l-23 -16l-11 -4z" glyph-name="Ucircumflex" horiz-adv-x="558" unicode=""/><glyph d="M230 28l-7 6l-2 -3l-26 7l-11 -2l-6 -4l-10 4l-20 13l-18 8l-29 20l-16 20l-18 30l-13 27l-19 61l-8 37l-3 77l-4 16v99l8 121l2 6l15 128v8l8 49l18 21l6 2l4 6h4l6 3h4l7 8l18 12l10 11h14l20 -11l12 -14l4 -11l6 -6l2 -46l7 -17l2 -48l3 -8l2 -86l-5 -38v-55l-2 -35 l-4 -18l4 -18v-29l-3 -10l8 -53v-41l14 -60v-6l6 -5l6 -15l10 -16l21 -5l23 -2h52l8 4l9 26l13 68l3 126l-4 106l3 41l-11 119v114l16 5l5 6h6l16 11h9v6l19 8l26 -8l13 -10l13 -30l2 -12l8 -17l10 -39v-8l5 -14v-6l2 -4v-5l8 -34l5 -39l3 -7v-28l4 -19v-15l3 -15v-21l2 -7 l-1 -11l9 -56l2 -26v-36l-2 -13v-26l-2 -10v-20l-3 -11l-7 -9l-9 -25l-24 -14l-3 -9v-6l-12 -21l-5 -6v-7l-7 -11l-7 -15l-7 -11l-3 -2l-3 -7l-9 -10v-6l-14 -14l-2 -4l-8 -7l-19 -9l-10 -2l-12 -10l-7 -9l-18 -7l-62 -18zM142 851l-16 27l-5 5l-1 14l-3 5l-1 30l15 12l4 2 l7 -2l6 6l5 1l14 -3l17 11l10 -8l6 11l5 -3l3 -5v-9l12 -32l5 -28l5 -10v-8l-25 -11l-23 -5h-17l-17 -14zM324 859l-16 27l-5 5l-1 14l-3 5l-1 30l15 12l4 2l7 -2l6 6l5 1l14 -3l17 11l10 -8l6 11l5 -3l3 -5v-9l12 -32l5 -28l5 -10v-8l-25 -11l-23 -5h-17l-17 -14z" glyph-name="Udieresis" horiz-adv-x="558" unicode=""/><glyph d="M229 22h-14l-9 10l-12 45l-4 72v57l-2 25v96l2 14v45l-19 22l-27 43l-27 55l-8 8l-66 137v4l-23 56l7 16l5 2v5l15 12l8 14l8 3l3 -2l2 8h4l16 11l5 8l2 8l11 3l22 -18l56 -77l2 -6l16 -24l4 -8l44 -69l7 -16l6 -6l17 33l73 115l11 24l14 24l7 7l10 6h17l5 2h20l5 -6l4 2 l19 -4l4 2l3 7l10 -5l6 5l4 -6l8 -23l-7 -54l-8 -24l-4 -4l1 -5l-29 -58l-4 -5l-5 -15l-9 -16h-5v-8l-11 -27l-3 -4l-16 -36l-6 -8l-5 -15l-5 -8h-4l2 -6l-22 -55l-3 -43l-2 -6l4 -36v-35l2 -7l-3 -4l2 -3v-31l-1 -4l3 -4v-39l2 -19l-2 -3l2 -6v-25l-2 -4v-60l2 -16l-7 -8 v-7l-9 -5v10h-4v-10l-10 -1l-9 -10l-2 -5l-12 -3l-29 -4h-41l-7 -6zM166 796l-8 10l2 5l-4 2v6l20 18l13 21l25 30l25 19l33 18l15 6l4 6l19 -2l20 -9l22 -24v-4l-6 -15l-28 -38l-10 -1l-6 -5l-19 -1l-38 -15l-19 -3l-48 -21l-9 -9z" glyph-name="Yacute" horiz-adv-x="520" unicode=""/><glyph d="M146 5h-11l-22 5l-20 -4l-9 3h-26l-3 5l-14 53l-9 57l-6 63l3 8h-4v57l-2 7v77l2 28v150l-5 31v27l11 95l3 14l11 109l12 1l4 5l9 2l3 4h9l10 5l7 -2l5 7h8l2 3l19 -6l11 -11h7l15 -8l9 -8l-5 -35l5 -28l-3 -23l2 -22h18l35 -5l53 -14l32 -15l18 -14l37 -40l8 -12l3 -10 l6 -5l2 -11l16 -24v-7l6 -18l-2 -25l-12 -43v-33l-5 -17l-7 -12l-3 -17l-9 -14v-7l-9 -9l-18 -41l-6 -7l-2 -8l-17 -27l-17 -17l-29 -20l-8 -2l-3 -4l-20 -5l-42 -17h-8l-15 -3v-28l-2 -7v-26l-4 -14l-2 -29l-3 -8l1 -6l-5 -44l-11 5zM176 359v-42l12 2l23 10l42 25l24 18 l2 7l21 31l-9 31l-17 42l-10 17l-10 9l-41 15h-9l-2 5l-13 3l-5 -5l1 -10v-23z" glyph-name="Thorn" horiz-adv-x="428" unicode=""/><glyph d="M155 9l-12 5l-43 2l-56 17l-8 52l-7 78l-3 8l-4 87l-2 5l14 304l10 47l16 50l16 31l25 27l10 16l32 33l12 6l4 6l67 19h48l39 -14l15 -7l19 -2l3 -7l2 -17l4 -8l2 -21l-3 -3l3 -6l-8 -36v-33l-5 -26l-7 -12l4 -17v-26l-2 -8l2 -6l40 -8l7 -6h6l25 -10l35 -21l8 -11l6 -2 l18 -18l6 -13l7 -9l4 -16l13 -24v-10l4 -19l-2 -22l2 -20l-2 -8l-4 -3v-11l-5 -8l-4 -14v-45l-4 -7l-1 -36l-11 -21l-2 -10l-3 -5l-2 -17l-12 -17v-20l-4 -3l-9 -13l-3 -18l-9 -12l-2 -11l-12 -12l-5 -19l-26 -13l-70 -11l-35 4l-28 7l-33 15l-14 14l-7 14v22l4 3l3 32l2 6 v32l2 3v9l6 8v4h31l7 -6l7 -3l35 -9l21 -2l22 2l35 14l7 10l-3 2v38l2 5v18l5 15l2 17l-7 43l-13 39l-14 18l-20 18l-8 5l-48 17l-21 2l-16 5h-22l-6 7l4 12v41l2 7l2 61l-2 12l28 19l16 20l8 19v9l-9 12l-14 14l-17 6l-24 -3l-3 -3l-34 -20l-7 -15v-24l-5 -17v-16l4 -21 l-11 -74l-2 -27l2 -35l-2 -38l-3 -14l3 -24v-29l-2 -13v-33l4 -11v-22l-2 -17v-16l-2 -10l4 -11v-15l-2 -5l2 -4l-2 -15l4 -7l1 -38l4 -17l2 -30l-2 -6l7 -28v-8l-5 -3h-9z" glyph-name="germandbls" horiz-adv-x="541" unicode=""/><glyph d="M74 19l-18 7h-5l-17 8l-7 8l-7 23l2 47l5 47l4 24l36 160l8 50l12 56l-2 8l36 173l30 81l15 52l19 29l18 5l3 3l3 -3l9 2l18 2l27 -4l13 4l7 -3l17 -5l28 -25l25 -33l9 -23l22 -44l9 -40l13 -31l8 -33l-1 -11l2 -4v-6l11 -39v-16l3 -13l-1 -17l4 -8l-1 -17l5 -19v-15 l4 -4l8 -63l-1 -23l10 -23l2 -13l19 -79l9 -16l1 -17l3 -11l3 -17v-6l3 -4v-19l3 -7l-11 -6l-9 -14l11 -19l-40 -27l-14 -4l-14 -8l-4 1l-8 -4h-4l-3 -4l-15 1l-11 11l-20 43l-4 20l-15 55l3 14l-5 2l-5 20v10h-4l-9 -5h-6l-8 -4l-10 1l-15 -1l-14 -2l-21 -1l-51 -6l-4 -10 l-3 -14l-4 -3v-22l-9 -15l-4 -4v-11l-1 -9l-9 -10l-1 -13l-8 -7v-13l-11 -5l6 -7l-6 -6l-25 1l-9 -1l-17 -4zM225 328l3 -2l63 2l3 3l2 20l-33 217l-9 -30l1 -4v-12l-3 -4l-9 -90l-5 -15l-4 -3l-1 -53l-4 -8zM324 842l-8 -10l-3 -6l-9 9l-48 21l-19 3l-38 15l-19 1l-6 5 l-10 1l-28 38l-6 15v4l22 24l20 9l19 2l4 -6l15 -6l33 -18l25 -19l25 -30l13 -21l20 -18v-6l-4 -2z" glyph-name="agrave" horiz-adv-x="520" unicode=""/><glyph d="M74 19l-18 7h-5l-17 8l-7 8l-7 23l2 47l5 47l4 24l36 160l8 50l12 56l-2 8l36 173l30 81l15 52l19 29l18 5l3 3l3 -3l9 2l18 2l27 -4l13 4l7 -3l17 -5l28 -25l25 -33l9 -23l22 -44l9 -40l13 -31l8 -33l-1 -11l2 -4v-6l11 -39v-16l3 -13l-1 -17l4 -8l-1 -17l5 -19v-15 l4 -4l8 -63l-1 -23l10 -23l2 -13l19 -79l9 -16l1 -17l3 -11l3 -17v-6l3 -4v-19l3 -7l-11 -6l-9 -14l11 -19l-40 -27l-14 -4l-14 -8l-4 1l-8 -4h-4l-3 -4l-15 1l-11 11l-20 43l-4 20l-15 55l3 14l-5 2l-5 20v10h-4l-9 -5h-6l-8 -4l-10 1l-15 -1l-14 -2l-21 -1l-51 -6l-4 -10 l-3 -14l-4 -3v-22l-9 -15l-4 -4v-11l-1 -9l-9 -10l-1 -13l-8 -7v-13l-11 -5l6 -7l-6 -6l-25 1l-9 -1l-17 -4zM225 328l3 -2l63 2l3 3l2 20l-33 217l-9 -30l1 -4v-12l-3 -4l-9 -90l-5 -15l-4 -3l-1 -53l-4 -8zM140 832l-8 10l2 5l-4 2v6l20 18l13 21l25 30l25 19l33 18l15 6 l4 6l19 -2l20 -9l22 -24v-4l-6 -15l-28 -38l-10 -1l-6 -5l-19 -1l-38 -15l-19 -3l-48 -21l-9 -9z" glyph-name="aacute" horiz-adv-x="520" unicode=""/><glyph d="M74 19l-18 7h-5l-17 8l-7 8l-7 23l2 47l5 47l4 24l36 160l8 50l12 56l-2 8l36 173l30 81l15 52l19 29l18 5l3 3l3 -3l9 2l18 2l27 -4l13 4l7 -3l17 -5l28 -25l25 -33l9 -23l22 -44l9 -40l13 -31l8 -33l-1 -11l2 -4v-6l11 -39v-16l3 -13l-1 -17l4 -8l-1 -17l5 -19v-15 l4 -4l8 -63l-1 -23l10 -23l2 -13l19 -79l9 -16l1 -17l3 -11l3 -17v-6l3 -4v-19l3 -7l-11 -6l-9 -14l11 -19l-40 -27l-14 -4l-14 -8l-4 1l-8 -4h-4l-3 -4l-15 1l-11 11l-20 43l-4 20l-15 55l3 14l-5 2l-5 20v10h-4l-9 -5h-6l-8 -4l-10 1l-15 -1l-14 -2l-21 -1l-51 -6l-4 -10 l-3 -14l-4 -3v-22l-9 -15l-4 -4v-11l-1 -9l-9 -10l-1 -13l-8 -7v-13l-11 -5l6 -7l-6 -6l-25 1l-9 -1l-17 -4zM225 328l3 -2l63 2l3 3l2 20l-33 217l-9 -30l1 -4v-12l-3 -4l-9 -90l-5 -15l-4 -3l-1 -53l-4 -8zM110 832l-8 6l3 18l3 6l3 17v16l6 10l53 56l44 41l10 6l2 13 l10 4h7l5 -9l12 -7l3 -4l18 -9l7 -9l12 -11l2 -6l7 -3l20 -23l16 -14l6 -9l-1 -4l4 -2l-1 -8l5 -11l-1 -7l-21 -39l-14 -20l-18 14l-37 38l-25 33l-17 13l-9 -5l-4 -15l-22 -29l-2 -5l-5 -5l-5 -2l-4 -5l-4 -2l-5 -10l-23 -16l-11 -4z" glyph-name="acircumflex" horiz-adv-x="520" unicode=""/><glyph d="M74 19l-18 7h-5l-17 8l-7 8l-7 23l2 47l5 47l4 24l36 160l8 50l12 56l-2 8l36 173l30 81l15 52l19 29l18 5l3 3l3 -3l9 2l18 2l27 -4l13 4l7 -3l17 -5l28 -25l25 -33l9 -23l22 -44l9 -40l13 -31l8 -33l-1 -11l2 -4v-6l11 -39v-16l3 -13l-1 -17l4 -8l-1 -17l5 -19v-15 l4 -4l8 -63l-1 -23l10 -23l2 -13l19 -79l9 -16l1 -17l3 -11l3 -17v-6l3 -4v-19l3 -7l-11 -6l-9 -14l11 -19l-40 -27l-14 -4l-14 -8l-4 1l-8 -4h-4l-3 -4l-15 1l-11 11l-20 43l-4 20l-15 55l3 14l-5 2l-5 20v10h-4l-9 -5h-6l-8 -4l-10 1l-15 -1l-14 -2l-21 -1l-51 -6l-4 -10 l-3 -14l-4 -3v-22l-9 -15l-4 -4v-11l-1 -9l-9 -10l-1 -13l-8 -7v-13l-11 -5l6 -7l-6 -6l-25 1l-9 -1l-17 -4zM225 328l3 -2l63 2l3 3l2 20l-33 217l-9 -30l1 -4v-12l-3 -4l-9 -90l-5 -15l-4 -3l-1 -53l-4 -8zM275 828l-27 2l-14 6l-11 9l-29 32l-15 9h-6l-5 -3l-3 -11l-4 -5 l3 -6v-5l-7 -3v-4l-5 -6h-24l-11 2l-4 8l-9 11l-7 14l-3 11l1 29l12 33l20 19l20 9l14 2h24l39 -14v-4l6 -2l18 -14l1 -3l3 -1l6 -7l4 -2l2 -4h4l-1 -5l13 -12l13 10l7 12l6 22h5l7 23l4 -4h6l3 -2l37 -4l6 -3l3 -4h4l1 -10l-2 -14l2 -3l-10 -38l-7 -15l-8 -10l-2 -14l-6 -3 l-12 -13l-31 -15h-8l-8 3z" glyph-name="atilde" horiz-adv-x="520" unicode=""/><glyph d="M74 19l-18 7h-5l-17 8l-7 8l-7 23l2 47l5 47l4 24l36 160l8 50l12 56l-2 8l36 173l30 81l15 52l19 29l18 5l3 3l3 -3l9 2l18 2l27 -4l13 4l7 -3l17 -5l28 -25l25 -33l9 -23l22 -44l9 -40l13 -31l8 -33l-1 -11l2 -4v-6l11 -39v-16l3 -13l-1 -17l4 -8l-1 -17l5 -19v-15 l4 -4l8 -63l-1 -23l10 -23l2 -13l19 -79l9 -16l1 -17l3 -11l3 -17v-6l3 -4v-19l3 -7l-11 -6l-9 -14l11 -19l-40 -27l-14 -4l-14 -8l-4 1l-8 -4h-4l-3 -4l-15 1l-11 11l-20 43l-4 20l-15 55l3 14l-5 2l-5 20v10h-4l-9 -5h-6l-8 -4l-10 1l-15 -1l-14 -2l-21 -1l-51 -6l-4 -10 l-3 -14l-4 -3v-22l-9 -15l-4 -4v-11l-1 -9l-9 -10l-1 -13l-8 -7v-13l-11 -5l6 -7l-6 -6l-25 1l-9 -1l-17 -4zM225 328l3 -2l63 2l3 3l2 20l-33 217l-9 -30l1 -4v-12l-3 -4l-9 -90l-5 -15l-4 -3l-1 -53l-4 -8zM124 843l-16 27l-5 5l-1 14l-3 5l-1 30l15 12l4 2l7 -2l6 6l5 1 l14 -3l17 11l10 -8l6 11l5 -3l3 -5v-9l12 -32l5 -28l5 -10v-8l-25 -11l-23 -5h-17l-17 -14zM306 851l-16 27l-5 5l-1 14l-3 5l-1 30l15 12l4 2l7 -2l6 6l5 1l14 -3l17 11l10 -8l6 11l5 -3l3 -5v-9l12 -32l5 -28l5 -10v-8l-25 -11l-23 -5h-17l-17 -14z" glyph-name="adieresis" horiz-adv-x="520" unicode=""/><glyph d="M74 19l-18 7h-5l-17 8l-7 8l-7 23l2 47l5 47l4 24l36 160l8 50l12 56l-2 8l36 173l30 81l15 52l19 29l18 5l3 3l3 -3l9 2l18 2l27 -4l13 4l7 -3l17 -5l28 -25l25 -33l9 -23l22 -44l9 -40l13 -31l8 -33l-1 -11l2 -4v-6l11 -39v-16l3 -13l-1 -17l4 -8l-1 -17l5 -19v-15 l4 -4l8 -63l-1 -23l10 -23l2 -13l19 -79l9 -16l1 -17l3 -11l3 -17v-6l3 -4v-19l3 -7l-11 -6l-9 -14l11 -19l-40 -27l-14 -4l-14 -8l-4 1l-8 -4h-4l-3 -4l-15 1l-11 11l-20 43l-4 20l-15 55l3 14l-5 2l-5 20v10h-4l-9 -5h-6l-8 -4l-10 1l-15 -1l-14 -2l-21 -1l-51 -6l-4 -10 l-3 -14l-4 -3v-22l-9 -15l-4 -4v-11l-1 -9l-9 -10l-1 -13l-8 -7v-13l-11 -5l6 -7l-6 -6l-25 1l-9 -1l-17 -4zM225 328l3 -2l63 2l3 3l2 20l-33 217l-9 -30l1 -4v-12l-3 -4l-9 -90l-5 -15l-4 -3l-1 -53l-4 -8zM205 848l-12 4l-10 1l-21 12l-20 18l-2 6l-10 11l-18 32l-5 27 l-2 27l4 26l8 22l14 27l18 19l13 10l17 7h5l12 11l26 8h21l17 -3l19 -9l13 -10l12 -13l15 -24l6 -22l4 -7l7 -40v-22l-4 -30l-14 -27l-11 -8l-9 -14l-27 -21l-21 -13l-13 -5h-32zM251 911l3 6l7 35l1 16l-3 27l-14 36l-17 15l-6 -3l-9 -14v-6l-6 -7l-3 -14l-4 -2l-6 -19 l-1 -13l5 -17l11 -19l8 -9l14 -4l12 -12z" glyph-name="aring" horiz-adv-x="520" unicode=""/><glyph d="M84 -2l-17 8l-22 5l-19 9h-5l-1 29l10 77l60 188v7l18 45l16 60v6l2 3l23 92l23 57l2 14l4 9l14 50l15 44l11 26l7 22l13 19h15l4 9l29 4l197 4l27 -3l49 4h55l6 -3l3 2l7 -11l-4 -27l-6 -11v-9l-17 -36l-1 -11l-13 -9l-2 -4l-3 1l-6 -5h-22l-52 -12l-101 -6l9 -38v-12 l3 -3l5 -30l1 -20l3 -3v-12l2 -5l7 -42v-16l4 -4v-21l6 -31l36 3h38l3 -2l4 2l4 -2h68v-24l-7 -17l-5 -22l-10 -21v-14l-11 -8l-29 -12l-10 -1l-5 -3h-6l-3 -4l-26 -5l-11 -4h-9l-6 -6v-16l2 -6v-12l2 -3v-6l9 -40l2 -16l2 -33l63 5l76 11h44l18 -2l18 -5l5 -9l-5 -25 l-9 -32l-9 -17l-4 -19l-12 -5l-37 -12l-9 -2h-7l-11 -4l-18 -1l-8 -5l-4 5l-1 -4l-15 -2l-3 -2l-30 -2l-5 -4l-5 5l-7 -5l-10 1l-11 -2h-24l-8 -7l-5 -2h-21l-27 9l-14 2l-12 -3l-3 5l-2 28l-38 162l-4 47l-52 -9h-11l-5 -2l-37 -4v-5l-6 -13l-1 -9l-6 -3l-2 -13l-3 -5v-17 l-22 -56l-3 -14l-10 -26l-6 -3l-3 -10l-22 -14l-4 -9l-4 -1l-6 -12l-5 -16l-10 -13zM260 375v-4l48 10l-13 130l-2 7l-7 -20l-2 -18l-2 -3v-9l-3 -4v-8l-6 -17v-17z" glyph-name="ae" horiz-adv-x="719" unicode=""/><glyph d="M307 -249h-4l-6 3h-11l-11 6l-31 27l-18 28l-8 44l2 8l6 8l5 1l12 8l1 3l13 1l14 9l5 8l6 -3l4 -7l1 -6l14 -28l16 -21l11 -9l25 -11h7l5 18v31l-5 17l-7 13l-9 8l-22 11h-7l-20 6l-21 3l-20 -2v-4h-4l-3 4l-3 12l3 3l-2 33l1 23l-1 14l-18 -3l-28 3l-5 -2h-7l-5 5l-2 3 l-17 11l-6 -3l-28 16l-2 4l-11 5l-29 43l-29 67l-17 72v11l-2 8l-8 81v24l-6 78l-5 25l16 101l15 58l10 24l27 47l22 21l4 16l4 8l1 10l25 25l46 21l28 7l44 4l60 -8l31 -11l30 -20l2 -3h5l18 -18l21 -15l4 -7l6 -4l12 -24l6 -17v-6l2 -4l-1 -20l8 -18l-2 -44l-20 -12 l-31 -15l-15 -19l-30 -23l-5 -2l-12 -11h-9l-6 8l-12 36l-4 54l-9 28l-36 29l-17 2l-47 -8l-25 -11l-5 -23l-1 -13l-4 -6v-11l-7 -26l-1 -19l-2 -4l-1 -23l-2 -5l3 -9l-4 -10l5 -17l-3 -19l4 -4v-4l4 -7l2 -23l-1 -15l2 -6l3 -47l2 -12l-1 -11l4 -6v-9l21 -98v-6l28 -62 l3 -4l5 -11v-4h4l15 -17l19 -9l19 -7l12 20l10 43v17l8 32l6 54l-2 65l11 12l17 3l2 3l8 3h20l1 6l6 2l5 -2l6 5h6l6 4l1 4l3 -4l4 4h11l21 -34l8 -30v-4l7 -12l4 -35v-19l1 -6l-1 -26l-2 -8l2 -5l-2 -8l-6 -2l3 -13l-2 -4l-4 -15l6 -3l-4 -22l-7 -12l-11 -10l-9 -12 l-21 -16l-8 -4l-8 -8l-20 -13l-16 -6l-18 -9l-18 -5v-19l43 -8l12 -6l2 -3l17 -10l16 -18l15 -32l4 -38l-3 -4v-34l-12 -29l-33 -31l-19 -13l-33 -12l-16 -13z" glyph-name="ccedilla" unicode=""/><glyph d="M75 -3l-7 11l-22 51l-8 31l-14 104l-2 49l-2 11v106l4 8l-3 1l4 25l5 99l3 9l4 105l6 57l2 5h-7l-6 10v13l5 2l2 8l4 4v4l2 14l8 11l6 5v6l6 4l5 12v4l-4 4l7 3l3 6l-3 9l28 7l43 4l4 -4l3 2l12 -2h27l7 -2h44l13 -2l80 -1l21 -2h26l6 -2h17l18 -2l3 -2l4 2l21 2l26 4 l3 -2l-9 -32l-16 -23v-7l-21 -30l2 -3l-11 -12l-12 -8v-4l-6 -7l-13 -8l-29 -4l-7 -6h-17l-11 -2l-35 2l-21 -2l-15 4l-8 -2l-16 3l-4 -3h-42v-39l2 -16l3 -74l-1 -6l3 2l16 2l28 -2l7 4h29l13 2l25 2l5 -3l7 3l19 -2l32 -6h32l-4 -36l-4 -13l-1 -13l-12 -33l-2 -16l-10 -13 l-12 -3l-11 -4h-6l-5 -10h-5l-5 -2l-35 -2l-6 -2h-93l-2 -10l-3 -40l3 -4v-67l4 -38v-28l-3 -3l7 -6v-5l-3 -6h24l9 2l4 4l23 2h17l54 7h79l27 4l3 -25l-7 -25v-18l-8 -18l-2 -10v-15l-19 -15l-15 -5l-6 -5l-11 -4l-3 -6l-54 -7l-4 -3h-17l-29 -2l-3 -4h-14l-164 -18z M348 828l-8 -10l-3 -6l-9 9l-48 21l-19 3l-38 15l-19 1l-6 5l-10 1l-28 38l-6 15v4l22 24l20 9l19 2l4 -6l15 -6l33 -18l25 -19l25 -30l13 -21l20 -18v-6l-4 -2z" glyph-name="egrave" unicode=""/><glyph d="M75 -3l-7 11l-22 51l-8 31l-14 104l-2 49l-2 11v106l4 8l-3 1l4 25l5 99l3 9l4 105l6 57l2 5h-7l-6 10v13l5 2l2 8l4 4v4l2 14l8 11l6 5v6l6 4l5 12v4l-4 4l7 3l3 6l-3 9l28 7l43 4l4 -4l3 2l12 -2h27l7 -2h44l13 -2l80 -1l21 -2h26l6 -2h17l18 -2l3 -2l4 2l21 2l26 4 l3 -2l-9 -32l-16 -23v-7l-21 -30l2 -3l-11 -12l-12 -8v-4l-6 -7l-13 -8l-29 -4l-7 -6h-17l-11 -2l-35 2l-21 -2l-15 4l-8 -2l-16 3l-4 -3h-42v-39l2 -16l3 -74l-1 -6l3 2l16 2l28 -2l7 4h29l13 2l25 2l5 -3l7 3l19 -2l32 -6h32l-4 -36l-4 -13l-1 -13l-12 -33l-2 -16l-10 -13 l-12 -3l-11 -4h-6l-5 -10h-5l-5 -2l-35 -2l-6 -2h-93l-2 -10l-3 -40l3 -4v-67l4 -38v-28l-3 -3l7 -6v-5l-3 -6h24l9 2l4 4l23 2h17l54 7h79l27 4l3 -25l-7 -25v-18l-8 -18l-2 -10v-15l-19 -15l-15 -5l-6 -5l-11 -4l-3 -6l-54 -7l-4 -3h-17l-29 -2l-3 -4h-14l-164 -18z M164 818l-8 10l2 5l-4 2v6l20 18l13 21l25 30l25 19l33 18l15 6l4 6l19 -2l20 -9l22 -24v-4l-6 -15l-28 -38l-10 -1l-6 -5l-19 -1l-38 -15l-19 -3l-48 -21l-9 -9z" glyph-name="eacute" unicode=""/><glyph d="M75 -3l-7 11l-22 51l-8 31l-14 104l-2 49l-2 11v106l4 8l-3 1l4 25l5 99l3 9l4 105l6 57l2 5h-7l-6 10v13l5 2l2 8l4 4v4l2 14l8 11l6 5v6l6 4l5 12v4l-4 4l7 3l3 6l-3 9l28 7l43 4l4 -4l3 2l12 -2h27l7 -2h44l13 -2l80 -1l21 -2h26l6 -2h17l18 -2l3 -2l4 2l21 2l26 4 l3 -2l-9 -32l-16 -23v-7l-21 -30l2 -3l-11 -12l-12 -8v-4l-6 -7l-13 -8l-29 -4l-7 -6h-17l-11 -2l-35 2l-21 -2l-15 4l-8 -2l-16 3l-4 -3h-42v-39l2 -16l3 -74l-1 -6l3 2l16 2l28 -2l7 4h29l13 2l25 2l5 -3l7 3l19 -2l32 -6h32l-4 -36l-4 -13l-1 -13l-12 -33l-2 -16l-10 -13 l-12 -3l-11 -4h-6l-5 -10h-5l-5 -2l-35 -2l-6 -2h-93l-2 -10l-3 -40l3 -4v-67l4 -38v-28l-3 -3l7 -6v-5l-3 -6h24l9 2l4 4l23 2h17l54 7h79l27 4l3 -25l-7 -25v-18l-8 -18l-2 -10v-15l-19 -15l-15 -5l-6 -5l-11 -4l-3 -6l-54 -7l-4 -3h-17l-29 -2l-3 -4h-14l-164 -18z M134 818l-8 6l3 18l3 6l3 17v16l6 10l53 56l44 41l10 6l2 13l10 4h7l5 -9l12 -7l3 -4l18 -9l7 -9l12 -11l2 -6l7 -3l20 -23l16 -14l6 -9l-1 -4l4 -2l-1 -8l5 -11l-1 -7l-21 -39l-14 -20l-18 14l-37 38l-25 33l-17 13l-9 -5l-4 -15l-22 -29l-2 -5l-5 -5l-5 -2l-4 -5l-4 -2 l-5 -10l-23 -16l-11 -4z" glyph-name="ecircumflex" unicode=""/><glyph d="M75 -3l-7 11l-22 51l-8 31l-14 104l-2 49l-2 11v106l4 8l-3 1l4 25l5 99l3 9l4 105l6 57l2 5h-7l-6 10v13l5 2l2 8l4 4v4l2 14l8 11l6 5v6l6 4l5 12v4l-4 4l7 3l3 6l-3 9l28 7l43 4l4 -4l3 2l12 -2h27l7 -2h44l13 -2l80 -1l21 -2h26l6 -2h17l18 -2l3 -2l4 2l21 2l26 4 l3 -2l-9 -32l-16 -23v-7l-21 -30l2 -3l-11 -12l-12 -8v-4l-6 -7l-13 -8l-29 -4l-7 -6h-17l-11 -2l-35 2l-21 -2l-15 4l-8 -2l-16 3l-4 -3h-42v-39l2 -16l3 -74l-1 -6l3 2l16 2l28 -2l7 4h29l13 2l25 2l5 -3l7 3l19 -2l32 -6h32l-4 -36l-4 -13l-1 -13l-12 -33l-2 -16l-10 -13 l-12 -3l-11 -4h-6l-5 -10h-5l-5 -2l-35 -2l-6 -2h-93l-2 -10l-3 -40l3 -4v-67l4 -38v-28l-3 -3l7 -6v-5l-3 -6h24l9 2l4 4l23 2h17l54 7h79l27 4l3 -25l-7 -25v-18l-8 -18l-2 -10v-15l-19 -15l-15 -5l-6 -5l-11 -4l-3 -6l-54 -7l-4 -3h-17l-29 -2l-3 -4h-14l-164 -18z M130 841l-16 27l-5 5l-1 14l-3 5l-1 30l15 12l4 2l7 -2l6 6l5 1l14 -3l17 11l10 -8l6 11l5 -3l3 -5v-9l12 -32l5 -28l5 -10v-8l-25 -11l-23 -5h-17l-17 -14zM312 849l-16 27l-5 5l-1 14l-3 5l-1 30l15 12l4 2l7 -2l6 6l5 1l14 -3l17 11l10 -8l6 11l5 -3l3 -5v-9l12 -32 l5 -28l5 -10v-8l-25 -11l-23 -5h-17l-17 -14z" glyph-name="edieresis" unicode=""/><glyph d="M58 3l-14 32l-4 21l-12 25l-7 36l-1 19l18 537l-2 46l5 59l8 12l14 6h10l4 3l8 -1l3 2l9 -4l6 3l4 -3l3 5l6 -2l4 1v-4l7 8l8 -1l2 3h4l5 -5l3 8l16 -3l13 -17l12 -39l11 -60l2 -42l-2 -9l-4 -2l3 -5l-3 -32v-74l1 -5v-10l1 -7l-1 -14l-3 -4l1 -14l-2 -8l-1 -66l1 -7 l-2 -31l2 -9l-3 -2l3 -9l-2 -18l2 -3l-2 -14l4 -43l3 -103l-1 -5l1 -8l-3 -3l5 -5l-1 -9l3 -18l-3 -3v-5l3 -3v-5l-8 -2l-1 -5l-10 -12l-1 -9l-6 -16l2 -29l-5 -3l-8 3v-8l-13 1l-11 -6l-26 -4zM208 820l-8 -10l-3 -6l-9 9l-48 21l-19 3l-38 15l-19 1l-6 5l-10 1l-28 38 l-6 15v4l22 24l20 9l19 2l4 -6l15 -6l33 -18l25 -19l25 -30l13 -21l20 -18v-6l-4 -2z" glyph-name="igrave" horiz-adv-x="223" unicode=""/><glyph d="M58 3l-14 32l-4 21l-12 25l-7 36l-1 19l18 537l-2 46l5 59l8 12l14 6h10l4 3l8 -1l3 2l9 -4l6 3l4 -3l3 5l6 -2l4 1v-4l7 8l8 -1l2 3h4l5 -5l3 8l16 -3l13 -17l12 -39l11 -60l2 -42l-2 -9l-4 -2l3 -5l-3 -32v-74l1 -5v-10l1 -7l-1 -14l-3 -4l1 -14l-2 -8l-1 -66l1 -7 l-2 -31l2 -9l-3 -2l3 -9l-2 -18l2 -3l-2 -14l4 -43l3 -103l-1 -5l1 -8l-3 -3l5 -5l-1 -9l3 -18l-3 -3v-5l3 -3v-5l-8 -2l-1 -5l-10 -12l-1 -9l-6 -16l2 -29l-5 -3l-8 3v-8l-13 1l-11 -6l-26 -4zM24 810l-8 10l2 5l-4 2v6l20 18l13 21l25 30l25 19l33 18l15 6l4 6l19 -2 l20 -9l22 -24v-4l-6 -15l-28 -38l-10 -1l-6 -5l-19 -1l-38 -15l-19 -3l-48 -21l-9 -9z" glyph-name="iacute" horiz-adv-x="223" unicode=""/><glyph d="M58 3l-14 32l-4 21l-12 25l-7 36l-1 19l18 537l-2 46l5 59l8 12l14 6h10l4 3l8 -1l3 2l9 -4l6 3l4 -3l3 5l6 -2l4 1v-4l7 8l8 -1l2 3h4l5 -5l3 8l16 -3l13 -17l12 -39l11 -60l2 -42l-2 -9l-4 -2l3 -5l-3 -32v-74l1 -5v-10l1 -7l-1 -14l-3 -4l1 -14l-2 -8l-1 -66l1 -7 l-2 -31l2 -9l-3 -2l3 -9l-2 -18l2 -3l-2 -14l4 -43l3 -103l-1 -5l1 -8l-3 -3l5 -5l-1 -9l3 -18l-3 -3v-5l3 -3v-5l-8 -2l-1 -5l-10 -12l-1 -9l-6 -16l2 -29l-5 -3l-8 3v-8l-13 1l-11 -6l-26 -4zM-8 804l-8 6l3 18l3 6l3 17v16l6 10l53 56l44 41l10 6l2 13l10 4h7l5 -9l12 -7 l3 -4l18 -9l7 -9l12 -11l2 -6l7 -3l20 -23l16 -14l6 -9l-1 -4l4 -2l-1 -8l5 -11l-1 -7l-21 -39l-14 -20l-18 14l-37 38l-25 33l-17 13l-9 -5l-4 -15l-22 -29l-2 -5l-5 -5l-5 -2l-4 -5l-4 -2l-5 -10l-23 -16l-11 -4z" glyph-name="icircumflex" horiz-adv-x="223" unicode=""/><glyph d="M58 3l-14 32l-4 21l-12 25l-7 36l-1 19l18 537l-2 46l5 59l8 12l14 6h10l4 3l8 -1l3 2l9 -4l6 3l4 -3l3 5l6 -2l4 1v-4l7 8l8 -1l2 3h4l5 -5l3 8l16 -3l13 -17l12 -39l11 -60l2 -42l-2 -9l-4 -2l3 -5l-3 -32v-74l1 -5v-10l1 -7l-1 -14l-3 -4l1 -14l-2 -8l-1 -66l1 -7 l-2 -31l2 -9l-3 -2l3 -9l-2 -18l2 -3l-2 -14l4 -43l3 -103l-1 -5l1 -8l-3 -3l5 -5l-1 -9l3 -18l-3 -3v-5l3 -3v-5l-8 -2l-1 -5l-10 -12l-1 -9l-6 -16l2 -29l-5 -3l-8 3v-8l-13 1l-11 -6l-26 -4zM-10 829l-16 27l-5 5l-1 14l-3 5l-1 30l15 12l4 2l7 -2l6 6l5 1l14 -3l17 11 l10 -8l6 11l5 -3l3 -5v-9l12 -32l5 -28l5 -10v-8l-25 -11l-23 -5h-17l-17 -14zM172 837l-16 27l-5 5l-1 14l-3 5l-1 30l15 12l4 2l7 -2l6 6l5 1l14 -3l17 11l10 -8l6 11l5 -3l3 -5v-9l12 -32l5 -28l5 -10v-8l-25 -11l-23 -5h-17l-17 -14z" glyph-name="idieresis" horiz-adv-x="223" unicode=""/><glyph d="M87 350h-24v4l-7 5l-4 6l1 21l2 8l5 5l-4 2l3 3v4l-3 2l4 2v5l-3 5l5 6l25 4l-6 216h-13l-28 -5l-7 -3l-9 3l-4 13l6 15l5 34v13l3 9l-3 5l5 5v20l3 3l18 3l26 8l44 5l83 3l104 -12l14 -6l22 -6l15 -7l15 -16l4 -8l31 -21l19 -20l3 -11l21 -24l8 -17l3 -11l5 -8l4 -3 l7 -12l2 -21l7 -10v-5l5 -5v-18l6 -14l-1 -5l3 -7v-32l2 -12l-5 -4l5 -28l-4 -4l-1 -23l-2 -3l-6 -18v-9l-5 -15l-2 -20l-5 -10l-2 -10l-4 -3l-9 -18v-9l-4 -7l-5 -16l-8 -7l-9 -11l-1 -7l-5 -5l-7 -11l-9 -29l-5 -5l-8 -15l-5 -18l-13 -12l-2 -12l-8 -10l-2 -7l-13 -13 l-2 -6l-8 -3l-10 -10l-1 -5l-7 -7l-6 -3l-13 -10l-2 -5l-11 -11l-7 -5l-13 -6l-18 -13l-9 -8l-10 -2l-4 -4l-6 -1l-17 -8l-3 -4h-5l-8 -4l-50 -14l-20 -2l-68 -2l-19 3l-3 8l-3 23l-2 3v10l-11 46l4 9l16 2l49 10l-8 259zM225 158l31 20l24 26l52 176l5 10l4 16l9 66l-11 78 l-10 24l-19 28l-12 12l-42 27l-23 3h-20v-18l7 -19v-72l1 -19l3 -6l-3 -12l2 -12v-37l-2 -10h14l62 -4l-1 -24l-9 -45l2 -3l-13 -5l1 -4l-4 -2h-15l-3 -2l-37 -1v-91l2 -5v-31l3 -12v-34l2 -6v-12z" glyph-name="eth" horiz-adv-x="529" unicode=""/><glyph d="M404 -33l-27 25l-12 18l-21 18l-22 31l-10 18l-120 263l2 -9l-3 -2l3 -9l-2 -18l2 -3l-2 -14l4 -43l3 -103l-1 -5l1 -8l-3 -3l5 -5l-1 -9l3 -18l-3 -3v-5l3 -3v-5l-8 -2l-1 -5l-10 -12l-1 -9l-6 -16l2 -29l-5 -3l-8 3v-8l-13 1l-11 -6l-26 -4l-58 -2l-14 32l-4 21l-12 25 l-7 36l-1 19l18 537l-2 46l5 59l8 12l14 6h10l4 3l8 -1l3 2l9 -4l6 3l4 -3l3 5l6 -2l4 1v-4l7 8l8 -1l2 3h4l5 -5l3 8l16 -3l13 -17l1 -3l7 -3l194 -499l-4 114l-2 18l7 31l4 160l13 144l6 25l6 7l12 1h20l22 5h11l24 2l9 6l6 -1l6 -6l5 -32l3 -52l-1 -28l2 -9l1 -32l-2 -4 l2 -16l-1 -33l3 -4l-6 -72l-4 -12l-2 -101l-5 -3l5 -40v-102l2 -4l4 -43l-2 -36l-10 -91l-4 -4v-8l-2 -6l-1 -20l-3 1l-25 -10l-23 -15zM327 802l-27 2l-14 6l-11 9l-29 32l-15 9h-6l-5 -3l-3 -11l-4 -5l3 -6v-5l-7 -3v-4l-5 -6h-24l-11 2l-4 8l-9 11l-7 14l-3 11l1 29 l12 33l20 19l20 9l14 2h24l39 -14v-4l6 -2l18 -14l1 -3l3 -1l6 -7l4 -2l2 -4h4l-1 -5l13 -12l13 10l7 12l6 22h5l7 23l4 -4h6l3 -2l37 -4l6 -3l3 -4h4l1 -10l-2 -14l2 -3l-10 -38l-7 -15l-8 -10l-2 -14l-6 -3l-12 -13l-31 -15h-8l-8 3z" glyph-name="ntilde" horiz-adv-x="552" unicode=""/><glyph d="M236 -9l-22 4l-21 5h-21l-19 6l-24 14l-32 32l-24 37l-23 53l-18 69l-9 70l-3 88l3 60l7 45l22 95l12 34l14 31l4 11l3 3v5l22 41l21 26l15 12l4 1l22 13l28 20l37 19h6l3 -2v6l37 8h37l9 -1l33 -8l27 -13l30 -22l18 -21l21 -30l4 -9l4 -3v-6l3 -4l11 -27l14 -22l7 -19 l-5 -3l6 -11l13 -42l2 -15l7 -27l4 -26l3 -8l-2 -22l7 -4l-2 -13l2 -3l-3 -11l-4 -5l2 -4v-11l-2 -3v-19l-3 -6l-5 -2l3 -10l-4 -16l-4 -9l3 -7l-2 -13l-5 -4l2 -8l-4 -8l-6 -3l-4 -84l-6 -41l-9 -25l-16 -38l-12 -19l-28 -37l-16 -18l-12 -6l-4 -6l-18 -9l-7 -7h-6l-8 -8 l-38 -10l-40 -7zM257 122l46 -2l30 8h9l3 4l11 4l4 -1l2 5l14 11l-11 104l15 146l-6 65l-14 87l-21 65l-14 23l-12 13l-17 12h-9l-5 6h-17l-21 -40l-12 -33l-6 -24v-14l-14 -42l-1 -15l-2 -12l-3 -6l2 -4l-2 -30l-4 -24l-5 -4l3 -2v-18l-2 -11l2 -4l-2 -12l2 -6v-34l2 -5 l9 -87v-11l7 -31l8 -28v-19l6 -14l10 -16zM374 832l-8 -10l-3 -6l-9 9l-48 21l-19 3l-38 15l-19 1l-6 5l-10 1l-28 38l-6 15v4l22 24l20 9l19 2l4 -6l15 -6l33 -18l25 -19l25 -30l13 -21l20 -18v-6l-4 -2z" glyph-name="ograve" horiz-adv-x="553" unicode=""/><glyph d="M236 -9l-22 4l-21 5h-21l-19 6l-24 14l-32 32l-24 37l-23 53l-18 69l-9 70l-3 88l3 60l7 45l22 95l12 34l14 31l4 11l3 3v5l22 41l21 26l15 12l4 1l22 13l28 20l37 19h6l3 -2v6l37 8h37l9 -1l33 -8l27 -13l30 -22l18 -21l21 -30l4 -9l4 -3v-6l3 -4l11 -27l14 -22l7 -19 l-5 -3l6 -11l13 -42l2 -15l7 -27l4 -26l3 -8l-2 -22l7 -4l-2 -13l2 -3l-3 -11l-4 -5l2 -4v-11l-2 -3v-19l-3 -6l-5 -2l3 -10l-4 -16l-4 -9l3 -7l-2 -13l-5 -4l2 -8l-4 -8l-6 -3l-4 -84l-6 -41l-9 -25l-16 -38l-12 -19l-28 -37l-16 -18l-12 -6l-4 -6l-18 -9l-7 -7h-6l-8 -8 l-38 -10l-40 -7zM257 122l46 -2l30 8h9l3 4l11 4l4 -1l2 5l14 11l-11 104l15 146l-6 65l-14 87l-21 65l-14 23l-12 13l-17 12h-9l-5 6h-17l-21 -40l-12 -33l-6 -24v-14l-14 -42l-1 -15l-2 -12l-3 -6l2 -4l-2 -30l-4 -24l-5 -4l3 -2v-18l-2 -11l2 -4l-2 -12l2 -6v-34l2 -5 l9 -87v-11l7 -31l8 -28v-19l6 -14l10 -16zM190 822l-8 10l2 5l-4 2v6l20 18l13 21l25 30l25 19l33 18l15 6l4 6l19 -2l20 -9l22 -24v-4l-6 -15l-28 -38l-10 -1l-6 -5l-19 -1l-38 -15l-19 -3l-48 -21l-9 -9z" glyph-name="oacute" horiz-adv-x="553" unicode=""/><glyph d="M236 -9l-22 4l-21 5h-21l-19 6l-24 14l-32 32l-24 37l-23 53l-18 69l-9 70l-3 88l3 60l7 45l22 95l12 34l14 31l4 11l3 3v5l22 41l21 26l15 12l4 1l22 13l28 20l37 19h6l3 -2v6l37 8h37l9 -1l33 -8l27 -13l30 -22l18 -21l21 -30l4 -9l4 -3v-6l3 -4l11 -27l14 -22l7 -19 l-5 -3l6 -11l13 -42l2 -15l7 -27l4 -26l3 -8l-2 -22l7 -4l-2 -13l2 -3l-3 -11l-4 -5l2 -4v-11l-2 -3v-19l-3 -6l-5 -2l3 -10l-4 -16l-4 -9l3 -7l-2 -13l-5 -4l2 -8l-4 -8l-6 -3l-4 -84l-6 -41l-9 -25l-16 -38l-12 -19l-28 -37l-16 -18l-12 -6l-4 -6l-18 -9l-7 -7h-6l-8 -8 l-38 -10l-40 -7zM257 122l46 -2l30 8h9l3 4l11 4l4 -1l2 5l14 11l-11 104l15 146l-6 65l-14 87l-21 65l-14 23l-12 13l-17 12h-9l-5 6h-17l-21 -40l-12 -33l-6 -24v-14l-14 -42l-1 -15l-2 -12l-3 -6l2 -4l-2 -30l-4 -24l-5 -4l3 -2v-18l-2 -11l2 -4l-2 -12l2 -6v-34l2 -5 l9 -87v-11l7 -31l8 -28v-19l6 -14l10 -16zM160 822l-8 6l3 18l3 6l3 17v16l6 10l53 56l44 41l10 6l2 13l10 4h7l5 -9l12 -7l3 -4l18 -9l7 -9l12 -11l2 -6l7 -3l20 -23l16 -14l6 -9l-1 -4l4 -2l-1 -8l5 -11l-1 -7l-21 -39l-14 -20l-18 14l-37 38l-25 33l-17 13l-9 -5l-4 -15 l-22 -29l-2 -5l-5 -5l-5 -2l-4 -5l-4 -2l-5 -10l-23 -16l-11 -4z" glyph-name="ocircumflex" horiz-adv-x="553" unicode=""/><glyph d="M236 -9l-22 4l-21 5h-21l-19 6l-24 14l-32 32l-24 37l-23 53l-18 69l-9 70l-3 88l3 60l7 45l22 95l12 34l14 31l4 11l3 3v5l22 41l21 26l15 12l4 1l22 13l28 20l37 19h6l3 -2v6l37 8h37l9 -1l33 -8l27 -13l30 -22l18 -21l21 -30l4 -9l4 -3v-6l3 -4l11 -27l14 -22l7 -19 l-5 -3l6 -11l13 -42l2 -15l7 -27l4 -26l3 -8l-2 -22l7 -4l-2 -13l2 -3l-3 -11l-4 -5l2 -4v-11l-2 -3v-19l-3 -6l-5 -2l3 -10l-4 -16l-4 -9l3 -7l-2 -13l-5 -4l2 -8l-4 -8l-6 -3l-4 -84l-6 -41l-9 -25l-16 -38l-12 -19l-28 -37l-16 -18l-12 -6l-4 -6l-18 -9l-7 -7h-6l-8 -8 l-38 -10l-40 -7zM257 122l46 -2l30 8h9l3 4l11 4l4 -1l2 5l14 11l-11 104l15 146l-6 65l-14 87l-21 65l-14 23l-12 13l-17 12h-9l-5 6h-17l-21 -40l-12 -33l-6 -24v-14l-14 -42l-1 -15l-2 -12l-3 -6l2 -4l-2 -30l-4 -24l-5 -4l3 -2v-18l-2 -11l2 -4l-2 -12l2 -6v-34l2 -5 l9 -87v-11l7 -31l8 -28v-19l6 -14l10 -16zM315 834l-27 2l-14 6l-11 9l-29 32l-15 9h-6l-5 -3l-3 -11l-4 -5l3 -6v-5l-7 -3v-4l-5 -6h-24l-11 2l-4 8l-9 11l-7 14l-3 11l1 29l12 33l20 19l20 9l14 2h24l39 -14v-4l6 -2l18 -14l1 -3l3 -1l6 -7l4 -2l2 -4h4l-1 -5l13 -12 l13 10l7 12l6 22h5l7 23l4 -4h6l3 -2l37 -4l6 -3l3 -4h4l1 -10l-2 -14l2 -3l-10 -38l-7 -15l-8 -10l-2 -14l-6 -3l-12 -13l-31 -15h-8l-8 3z" glyph-name="otilde" horiz-adv-x="553" unicode=""/><glyph d="M236 -9l-22 4l-21 5h-21l-19 6l-24 14l-32 32l-24 37l-23 53l-18 69l-9 70l-3 88l3 60l7 45l22 95l12 34l14 31l4 11l3 3v5l22 41l21 26l15 12l4 1l22 13l28 20l37 19h6l3 -2v6l37 8h37l9 -1l33 -8l27 -13l30 -22l18 -21l21 -30l4 -9l4 -3v-6l3 -4l11 -27l14 -22l7 -19 l-5 -3l6 -11l13 -42l2 -15l7 -27l4 -26l3 -8l-2 -22l7 -4l-2 -13l2 -3l-3 -11l-4 -5l2 -4v-11l-2 -3v-19l-3 -6l-5 -2l3 -10l-4 -16l-4 -9l3 -7l-2 -13l-5 -4l2 -8l-4 -8l-6 -3l-4 -84l-6 -41l-9 -25l-16 -38l-12 -19l-28 -37l-16 -18l-12 -6l-4 -6l-18 -9l-7 -7h-6l-8 -8 l-38 -10l-40 -7zM257 122l46 -2l30 8h9l3 4l11 4l4 -1l2 5l14 11l-11 104l15 146l-6 65l-14 87l-21 65l-14 23l-12 13l-17 12h-9l-5 6h-17l-21 -40l-12 -33l-6 -24v-14l-14 -42l-1 -15l-2 -12l-3 -6l2 -4l-2 -30l-4 -24l-5 -4l3 -2v-18l-2 -11l2 -4l-2 -12l2 -6v-34l2 -5 l9 -87v-11l7 -31l8 -28v-19l6 -14l10 -16zM156 845l-16 27l-5 5l-1 14l-3 5l-1 30l15 12l4 2l7 -2l6 6l5 1l14 -3l17 11l10 -8l6 11l5 -3l3 -5v-9l12 -32l5 -28l5 -10v-8l-25 -11l-23 -5h-17l-17 -14zM338 853l-16 27l-5 5l-1 14l-3 5l-1 30l15 12l4 2l7 -2l6 6l5 1l14 -3 l17 11l10 -8l6 11l5 -3l3 -5v-9l12 -32l5 -28l5 -10v-8l-25 -11l-23 -5h-17l-17 -14z" glyph-name="odieresis" horiz-adv-x="553" unicode=""/><glyph d="M338 336h-27l-14 5l-252 10l-8 -2l-8 6l-9 17l4 5l1 21l-1 22l4 2l-3 2l3 14l-3 5l1 28l35 6l2 8l109 -2l183 -16h96l40 -4l11 -4l17 -2l2 -12l2 -48l-4 -22v-14l7 -8l-20 -12l-6 -8h-113zM259 175h-6l-3 2h-6l-48 25l-7 8l-9 6l-13 17l-3 9l10 28v10l9 14l2 9l4 3v6l3 2 l4 5v9h4l3 5h10l33 -8l51 -22l21 -15l17 -6l20 -4l2 -6l-2 -8l-4 -3l2 -4v-7l-4 -8l-4 -18l-22 -43l-25 -7l-6 3l-4 -2l-16 -2l-8 -12zM233 515l-24 10l-24 16l-7 2l-5 8l-4 18l6 3l9 13v9l3 5v6l9 8v7h5l2 8l6 10l-2 5l6 3v4l14 3l30 -6l24 -11l7 -1l15 -7h47l-4 -17l-4 -8 l-9 -27l-23 -43l-10 -6l-26 -8l-5 -4h-8l-4 -3h-16z" glyph-name="divide" horiz-adv-x="546" unicode=""/><glyph d="M236 -9l-22 4l-21 5h-21l-19 6l-24 14l-32 32l-24 37l-23 53l-18 69l-9 70l-3 88l3 60l7 45l22 95l12 34l14 31l4 11l3 3v5l22 41l21 26l15 12l4 1l22 13l28 20l37 19h6l3 -2v6l37 8h37l9 -1l33 -8l27 -13l30 -22l18 -21l21 -30l4 -9l4 -3v-6l3 -4l11 -27l14 -22l7 -19 l-5 -3l6 -11l13 -42l2 -15l7 -27l4 -26l3 -8l-2 -22l7 -4l-2 -13l2 -3l-3 -11l-4 -5l2 -4v-11l-2 -3v-19l-3 -6l-5 -2l3 -10l-4 -16l-4 -9l3 -7l-2 -13l-5 -4l2 -8l-4 -8l-6 -3l-4 -84l-6 -41l-9 -25l-16 -38l-12 -19l-28 -37l-16 -18l-12 -6l-4 -6l-18 -9l-7 -7h-6l-8 -8 l-38 -10l-40 -7zM263 134l-4 -12l44 -2l30 8h9l3 4l11 4l4 -1l2 5l14 11l-11 104l15 146l-6 65l-14 86l-18 -69l-5 -10l-24 -103l-4 -1l-6 -43l-23 -105l-8 -50zM255 471l38 164l9 26l-6 5h-9l-5 6h-17l-21 -40l-12 -33l-6 -24v-14l-14 -42l-1 -15l-2 -12l-3 -6l2 -4l-2 -30 l-4 -24l-5 -4l3 -2v-18l-2 -11l2 -4l-2 -12l2 -6v-34l2 -5l7 -70l6 22l11 72l16 66l3 20z" glyph-name="oslash" horiz-adv-x="553" unicode=""/><glyph d="M216 13h-9l-25 12l-4 4l-10 6l-19 15l-17 4l-8 8l-6 3l-28 19l-12 15h-4l-9 14l-10 9l-14 32l-15 59l-4 36l-2 61l2 32l-2 156l14 148v29l5 20l2 26l10 42l6 13l26 4l2 3l3 -3l26 -1l6 -2h8l11 -7l12 3l3 6l5 -3h6l4 5l7 -5l10 -21l-4 -4l2 -45l8 -65l-11 -152l14 -251 l5 -34l7 -26l17 -9l40 -14l32 -6l21 -1l5 32l1 31l-3 23l6 39l6 118l-7 136l1 29l-12 193l-5 22l1 15l7 7l11 3l8 -3l26 -2l7 -2l7 2l14 -6l9 6h7l12 -5l7 -5l23 -22h5l2 -6l2 -12l11 -25l5 -23l3 -28l16 -82l9 -130l-1 -35l4 -16l-1 -51l-5 -7l3 -7l-1 -26l-5 -19l-2 -91 l-7 -9l-7 -21v-5l-10 -24l-28 -36l-2 -6l-16 -16l-4 -2l-18 -15l-15 -10l-16 -13l-30 -17h5l26 10l6 5l30 19l-13 -10l-6 -7l8 -1l-19 -5l-8 -7l-6 -2l-4 -3l-14 -3l-8 -4h-14l-31 -9l-70 -9zM400 48l12 4h6l-15 -7l-3 -5v8zM423 58l2 -4l-5 -2zM338 818l-8 -10l-3 -6l-9 9 l-48 21l-19 3l-38 15l-19 1l-6 5l-10 1l-28 38l-6 15v4l22 24l20 9l19 2l4 -6l15 -6l33 -18l25 -19l25 -30l13 -21l20 -18v-6l-4 -2z" glyph-name="ugrave" horiz-adv-x="524" unicode=""/><glyph d="M216 13h-9l-25 12l-4 4l-10 6l-19 15l-17 4l-8 8l-6 3l-28 19l-12 15h-4l-9 14l-10 9l-14 32l-15 59l-4 36l-2 61l2 32l-2 156l14 148v29l5 20l2 26l10 42l6 13l26 4l2 3l3 -3l26 -1l6 -2h8l11 -7l12 3l3 6l5 -3h6l4 5l7 -5l10 -21l-4 -4l2 -45l8 -65l-11 -152l14 -251 l5 -34l7 -26l17 -9l40 -14l32 -6l21 -1l5 32l1 31l-3 23l6 39l6 118l-7 136l1 29l-12 193l-5 22l1 15l7 7l11 3l8 -3l26 -2l7 -2l7 2l14 -6l9 6h7l12 -5l7 -5l23 -22h5l2 -6l2 -12l11 -25l5 -23l3 -28l16 -82l9 -130l-1 -35l4 -16l-1 -51l-5 -7l3 -7l-1 -26l-5 -19l-2 -91 l-7 -9l-7 -21v-5l-10 -24l-28 -36l-2 -6l-16 -16l-4 -2l-18 -15l-15 -10l-16 -13l-30 -17h5l26 10l6 5l30 19l-13 -10l-6 -7l8 -1l-19 -5l-8 -7l-6 -2l-4 -3l-14 -3l-8 -4h-14l-31 -9l-70 -9zM400 48l12 4h6l-15 -7l-3 -5v8zM423 58l2 -4l-5 -2zM154 808l-8 10l2 5l-4 2v6 l20 18l13 21l25 30l25 19l33 18l15 6l4 6l19 -2l20 -9l22 -24v-4l-6 -15l-28 -38l-10 -1l-6 -5l-19 -1l-38 -15l-19 -3l-48 -21l-9 -9z" glyph-name="uacute" horiz-adv-x="524" unicode=""/><glyph d="M216 13h-9l-25 12l-4 4l-10 6l-19 15l-17 4l-8 8l-6 3l-28 19l-12 15h-4l-9 14l-10 9l-14 32l-15 59l-4 36l-2 61l2 32l-2 156l14 148v29l5 20l2 26l10 42l6 13l26 4l2 3l3 -3l26 -1l6 -2h8l11 -7l12 3l3 6l5 -3h6l4 5l7 -5l10 -21l-4 -4l2 -45l8 -65l-11 -152l14 -251 l5 -34l7 -26l17 -9l40 -14l32 -6l21 -1l5 32l1 31l-3 23l6 39l6 118l-7 136l1 29l-12 193l-5 22l1 15l7 7l11 3l8 -3l26 -2l7 -2l7 2l14 -6l9 6h7l12 -5l7 -5l23 -22h5l2 -6l2 -12l11 -25l5 -23l3 -28l16 -82l9 -130l-1 -35l4 -16l-1 -51l-5 -7l3 -7l-1 -26l-5 -19l-2 -91 l-7 -9l-7 -21v-5l-10 -24l-28 -36l-2 -6l-16 -16l-4 -2l-18 -15l-15 -10l-16 -13l-30 -17h5l26 10l6 5l30 19l-13 -10l-6 -7l8 -1l-19 -5l-8 -7l-6 -2l-4 -3l-14 -3l-8 -4h-14l-31 -9l-70 -9zM400 48l12 4h6l-15 -7l-3 -5v8zM423 58l2 -4l-5 -2zM124 808l-8 6l3 18l3 6l3 17 v16l6 10l53 56l44 41l10 6l2 13l10 4h7l5 -9l12 -7l3 -4l18 -9l7 -9l12 -11l2 -6l7 -3l20 -23l16 -14l6 -9l-1 -4l4 -2l-1 -8l5 -11l-1 -7l-21 -39l-14 -20l-18 14l-37 38l-25 33l-17 13l-9 -5l-4 -15l-22 -29l-2 -5l-5 -5l-5 -2l-4 -5l-4 -2l-5 -10l-23 -16l-11 -4z" glyph-name="ucircumflex" horiz-adv-x="524" unicode=""/><glyph d="M216 13h-9l-25 12l-4 4l-10 6l-19 15l-17 4l-8 8l-6 3l-28 19l-12 15h-4l-9 14l-10 9l-14 32l-15 59l-4 36l-2 61l2 32l-2 156l14 148v29l5 20l2 26l10 42l6 13l26 4l2 3l3 -3l26 -1l6 -2h8l11 -7l12 3l3 6l5 -3h6l4 5l7 -5l10 -21l-4 -4l2 -45l8 -65l-11 -152l14 -251 l5 -34l7 -26l17 -9l40 -14l32 -6l21 -1l5 32l1 31l-3 23l6 39l6 118l-7 136l1 29l-12 193l-5 22l1 15l7 7l11 3l8 -3l26 -2l7 -2l7 2l14 -6l9 6h7l12 -5l7 -5l23 -22h5l2 -6l2 -12l11 -25l5 -23l3 -28l16 -82l9 -130l-1 -35l4 -16l-1 -51l-5 -7l3 -7l-1 -26l-5 -19l-2 -91 l-7 -9l-7 -21v-5l-10 -24l-28 -36l-2 -6l-16 -16l-4 -2l-18 -15l-15 -10l-16 -13l-30 -17h5l26 10l6 5l30 19l-13 -10l-6 -7l8 -1l-19 -5l-8 -7l-6 -2l-4 -3l-14 -3l-8 -4h-14l-31 -9l-70 -9zM400 48l12 4h6l-15 -7l-3 -5v8zM423 58l2 -4l-5 -2zM120 831l-16 27l-5 5l-1 14 l-3 5l-1 30l15 12l4 2l7 -2l6 6l5 1l14 -3l17 11l10 -8l6 11l5 -3l3 -5v-9l12 -32l5 -28l5 -10v-8l-25 -11l-23 -5h-17l-17 -14zM302 839l-16 27l-5 5l-1 14l-3 5l-1 30l15 12l4 2l7 -2l6 6l5 1l14 -3l17 11l10 -8l6 11l5 -3l3 -5v-9l12 -32l5 -28l5 -10v-8l-25 -11l-23 -5 h-17l-17 -14z" glyph-name="udieresis" horiz-adv-x="524" unicode=""/><glyph d="M395 -10l-24 -9l-25 -6l-39 4l-16 -2l-13 6l-21 6l-8 4l-25 6l-32 3l-22 19l-27 12l-5 -4h-4l-4 -1l-2 6l-4 -4l-18 12l-6 7l-2 -4l-15 14l-2 23l-5 15v16l-2 8l-2 52l7 49l19 76l14 14l6 4h14l8 -5l9 4l4 -4l13 -6l16 -5l4 -4l16 -5l6 -6h5l4 -4l-4 -114l7 -81l12 -46 l8 2l40 24l45 75l-6 211l-7 -2l-13 -2l-4 -4l-17 -5l-9 2l-20 -1l-4 3l-7 -1l-33 4l-14 7l-9 -2l-7 6l-15 -4l-5 4l-10 -4l-20 19v4l-13 8l-2 3l-3 3l-3 7l-7 7l-51 79l-5 5l-9 16l-7 29l-5 93l3 32l15 62l5 7l5 14l14 24l11 8l18 -6l5 1l3 -3l12 2l5 -2h13l7 -6l5 3l3 -3 l20 -5l17 3l4 -3l-1 -8l-4 -5l1 -4l-5 -34v-16l-2 -4l1 -10l-4 -53l9 -91l58 -38l40 9l19 20l12 23l10 81l-1 84l5 53l6 10l11 5l6 1l3 -1l3 3l5 -1l22 2l8 -4l5 3l2 -3l3 5l4 -2l4 1v-4l6 7l6 -1l12 6l12 -3l11 -15l18 -90l2 -36l-2 -8l-3 -2l3 -4l-3 -30v-66l1 -4v-9l1 -6 l-1 -12l3 -262l-2 -35l-10 -77l-1 -25l-5 -17l-1 -3l-10 -36l-4 -4l-13 -25zM164 786l-8 10l2 5l-4 2v6l20 18l13 21l25 30l25 19l33 18l15 6l4 6l19 -2l20 -9l22 -24v-4l-6 -15l-28 -38l-10 -1l-6 -5l-19 -1l-38 -15l-19 -3l-48 -21l-9 -9z" glyph-name="yacute" horiz-adv-x="492" unicode=""/><glyph d="M33 8v12l-5 29v147l-8 42v232l5 54l-3 28v73l11 123l13 4l13 10l16 4l4 4l19 9v5h8l10 10l10 2v5l22 -6l3 -3l11 -45v-86l52 -2l64 -11l29 -11l10 -11l4 -1l31 -27l19 -25l3 -15l4 -6l1 -22l6 -21v-31l-6 -5v-19h-9l3 -10l-6 -10v-11l-5 -8v-28l-6 -12l-4 -16h-4l-7 -10 l-2 -14l-11 -19l-1 -7l-5 -3l-5 -15l-4 -4l-3 -12l-6 -4l4 -4l-11 -25l-13 -20l-16 -10l-5 -10l-15 -11l-54 -15h-11l-26 -5l-2 -5l2 -3v-49l-2 -6v-16l-10 -12l-9 -16l-2 -27l-24 -12l-15 -5l-3 -3l-10 -4l-11 -10l-25 -9l-6 -4h-4zM164 326v-20l52 3l45 19l15 9l22 21 l15 23v54l-10 28l-13 20l-39 31l-22 8l-25 3l-31 1l-4 -46v-46l2 -14v-23l-7 -34v-21l-2 -4z" glyph-name="thorn" horiz-adv-x="405" unicode=""/><glyph d="M395 -10l-24 -9l-25 -6l-39 4l-16 -2l-13 6l-21 6l-8 4l-25 6l-32 3l-22 19l-27 12l-5 -4h-4l-4 -1l-2 6l-4 -4l-18 12l-6 7l-2 -4l-15 14l-2 23l-5 15v16l-2 8l-2 52l7 49l19 76l14 14l6 4h14l8 -5l9 4l4 -4l13 -6l16 -5l4 -4l16 -5l6 -6h5l4 -4l-4 -114l7 -81l12 -46 l8 2l40 24l45 75l-6 211l-7 -2l-13 -2l-4 -4l-17 -5l-9 2l-20 -1l-4 3l-7 -1l-33 4l-14 7l-9 -2l-7 6l-15 -4l-5 4l-10 -4l-20 19v4l-13 8l-2 3l-3 3l-3 7l-7 7l-51 79l-5 5l-9 16l-7 29l-5 93l3 32l15 62l5 7l5 14l14 24l11 8l18 -6l5 1l3 -3l12 2l5 -2h13l7 -6l5 3l3 -3 l20 -5l17 3l4 -3l-1 -8l-4 -5l1 -4l-5 -34v-16l-2 -4l1 -10l-4 -53l9 -91l58 -38l40 9l19 20l12 23l10 81l-1 84l5 53l6 10l11 5l6 1l3 -1l3 3l5 -1l22 2l8 -4l5 3l2 -3l3 5l4 -2l4 1v-4l6 7l6 -1l12 6l12 -3l11 -15l18 -90l2 -36l-2 -8l-3 -2l3 -4l-3 -30v-66l1 -4v-9l1 -6 l-1 -12l3 -262l-2 -35l-10 -77l-1 -25l-5 -17l-1 -3l-10 -36l-4 -4l-13 -25zM130 809l-16 27l-5 5l-1 14l-3 5l-1 30l15 12l4 2l7 -2l6 6l5 1l14 -3l17 11l10 -8l6 11l5 -3l3 -5v-9l12 -32l5 -28l5 -10v-8l-25 -11l-23 -5h-17l-17 -14zM312 817l-16 27l-5 5l-1 14l-3 5 l-1 30l15 12l4 2l7 -2l6 6l5 1l14 -3l17 11l10 -8l6 11l5 -3l3 -5v-9l12 -32l5 -28l5 -10v-8l-25 -11l-23 -5h-17l-17 -14z" glyph-name="ydieresis" horiz-adv-x="492" unicode=""/><glyph d="M87 14h-4l-7 5l-8 1l-26 6l-14 5l-8 5l3 29l11 44l28 82l14 52l21 62l1 8l11 36l-3 8l97 404l8 12l11 9l17 6h16l27 -3l9 5l12 4l15 13l11 3l4 -3l15 -3l5 -5l10 -3l6 -11l33 -38l9 -20l24 -65l2 -16l5 -15l1 -8l3 -4l2 -17l4 -11l5 -41l4 -18l2 -38l8 -72l4 -24l5 -76 l10 -8l2 -17l-2 -5l-2 -13l12 -90l-2 -20l8 -43l-2 -17l-8 -5l4 -7l-7 -14l-3 -11l-6 -11l-5 -23l-4 -8l-11 -8l-24 -3l-30 -13l-17 -4l-5 3l-27 126l-10 72l-11 1l-13 -6l-10 1l-9 -2l-20 -1l-13 1l-4 -6l-3 6l-12 -2l-15 1l-29 -1l-10 -18v-5l-23 -61l-5 -6l-15 -28 l-12 -12l-21 -33v-5l-5 -7l-7 -5l-14 -4l-12 -12zM246 340l5 -5l84 1l2 18l-23 207l-9 26l-6 -17l-21 -104l-8 -17zM201 844h-24v4l-7 5l-4 6l1 21l2 8l5 5l-4 2l3 3v4l-3 2l4 2v5l-3 5l5 6l68 11h105l62 -4l-1 -24l-9 -45l2 -3l-13 -5l1 -4l-4 -2h-15l-3 -2l-74 -2l-12 2 l-6 -3l-4 3h-23l-8 -2h-35z" glyph-name="Amacron" horiz-adv-x="526" unicode=""/><glyph d="M74 19l-18 7h-5l-17 8l-7 8l-7 23l2 47l5 47l4 24l36 160l8 50l12 56l-2 8l36 173l30 81l15 52l19 29l18 5l3 3l3 -3l9 2l18 2l27 -4l13 4l7 -3l17 -5l28 -25l25 -33l9 -23l22 -44l9 -40l13 -31l8 -33l-1 -11l2 -4v-6l11 -39v-16l3 -13l-1 -17l4 -8l-1 -17l5 -19v-15 l4 -4l8 -63l-1 -23l10 -23l2 -13l19 -79l9 -16l1 -17l3 -11l3 -17v-6l3 -4v-19l3 -7l-11 -6l-9 -14l11 -19l-40 -27l-14 -4l-14 -8l-4 1l-8 -4h-4l-3 -4l-15 1l-11 11l-20 43l-4 20l-15 55l3 14l-5 2l-5 20v10h-4l-9 -5h-6l-8 -4l-10 1l-15 -1l-14 -2l-21 -1l-51 -6l-4 -10 l-3 -14l-4 -3v-22l-9 -15l-4 -4v-11l-1 -9l-9 -10l-1 -13l-8 -7v-13l-11 -5l6 -7l-6 -6l-25 1l-9 -1l-17 -4zM225 328l3 -2l63 2l3 3l2 20l-33 217l-9 -30l1 -4v-12l-3 -4l-9 -90l-5 -15l-4 -3l-1 -53l-4 -8zM161 852h-24v4l-7 5l-4 6l1 21l2 8l5 5l-4 2l3 3v4l-3 2l4 2v5 l-3 5l5 6l68 11h105l62 -4l-1 -24l-9 -45l2 -3l-13 -5l1 -4l-4 -2h-15l-3 -2l-74 -2l-12 2l-6 -3l-4 3h-23l-8 -2h-35z" glyph-name="amacron" horiz-adv-x="520" unicode=""/><glyph d="M87 14h-4l-7 5l-8 1l-26 6l-14 5l-8 5l3 29l11 44l28 82l14 52l21 62l1 8l11 36l-3 8l97 404l8 12l11 9l17 6h16l27 -3l9 5l12 4l15 13l11 3l4 -3l15 -3l5 -5l10 -3l6 -11l33 -38l9 -20l24 -65l2 -16l5 -15l1 -8l3 -4l2 -17l4 -11l5 -41l4 -18l2 -38l8 -72l4 -24l5 -76 l10 -8l2 -17l-2 -5l-2 -13l12 -90l-2 -20l8 -43l-2 -17l-8 -5l4 -7l-7 -14l-3 -11l-6 -11l-5 -23l-4 -8l-11 -8l-24 -3l-30 -13l-17 -4l-5 3l-27 126l-10 72l-11 1l-13 -6l-10 1l-9 -2l-20 -1l-13 1l-4 -6l-3 6l-12 -2l-15 1l-29 -1l-10 -18v-5l-23 -61l-5 -6l-15 -28 l-12 -12l-21 -33v-5l-5 -7l-7 -5l-14 -4l-12 -12zM246 340l5 -5l84 1l2 18l-23 207l-9 26l-6 -17l-21 -104l-8 -17zM250 838l-22 12l-22 21l-16 25l-9 41v15l8 10l2 6l11 7l3 9l9 9v6l7 8l21 -3l13 -14l12 -19l6 -20l19 -28l16 -11h11l6 2l4 21l-4 44l5 3l3 6l11 13l13 12 l7 4l17 -1l8 -6l21 -36l-2 -20l3 -4l-9 -32l-10 -10l-11 -19l-20 -15l-14 -13l-13 -3l-10 -6h-4l-20 -10l-22 -6z" glyph-name="Abreve" horiz-adv-x="526" unicode=""/><glyph d="M74 19l-18 7h-5l-17 8l-7 8l-7 23l2 47l5 47l4 24l36 160l8 50l12 56l-2 8l36 173l30 81l15 52l19 29l18 5l3 3l3 -3l9 2l18 2l27 -4l13 4l7 -3l17 -5l28 -25l25 -33l9 -23l22 -44l9 -40l13 -31l8 -33l-1 -11l2 -4v-6l11 -39v-16l3 -13l-1 -17l4 -8l-1 -17l5 -19v-15 l4 -4l8 -63l-1 -23l10 -23l2 -13l19 -79l9 -16l1 -17l3 -11l3 -17v-6l3 -4v-19l3 -7l-11 -6l-9 -14l11 -19l-40 -27l-14 -4l-14 -8l-4 1l-8 -4h-4l-3 -4l-15 1l-11 11l-20 43l-4 20l-15 55l3 14l-5 2l-5 20v10h-4l-9 -5h-6l-8 -4l-10 1l-15 -1l-14 -2l-21 -1l-51 -6l-4 -10 l-3 -14l-4 -3v-22l-9 -15l-4 -4v-11l-1 -9l-9 -10l-1 -13l-8 -7v-13l-11 -5l6 -7l-6 -6l-25 1l-9 -1l-17 -4zM225 328l3 -2l63 2l3 3l2 20l-33 217l-9 -30l1 -4v-12l-3 -4l-9 -90l-5 -15l-4 -3l-1 -53l-4 -8zM210 846l-22 12l-22 21l-16 25l-9 41v15l8 10l2 6l11 7l3 9l9 9 v6l7 8l21 -3l13 -14l12 -19l6 -20l19 -28l16 -11h11l6 2l4 21l-4 44l5 3l3 6l11 13l13 12l7 4l17 -1l8 -6l21 -36l-2 -20l3 -4l-9 -32l-10 -10l-11 -19l-20 -15l-14 -13l-13 -3l-10 -6h-4l-20 -10l-22 -6z" glyph-name="abreve" horiz-adv-x="520" unicode=""/><glyph d="M471 -145l-14 -1l-2 -3l-33 9l-13 8l-8 10l-10 26l-3 4l-7 34l4 74l-24 115l-10 72l-11 1l-13 -6l-10 1l-9 -2l-20 -1l-13 1l-4 -6l-3 6l-12 -2l-15 1l-29 -1l-10 -18v-5l-23 -61l-5 -6l-15 -28l-12 -12l-21 -33v-5l-5 -7l-7 -5l-14 -4l-12 -12l-1 15h-4l-7 5l-8 1l-26 6 l-14 5l-8 5l3 29l11 44l28 82l14 52l21 62l1 8l11 36l-3 8l97 404l8 12l11 9l17 6h16l27 -3l9 5l12 4l15 13l11 3l4 -3l15 -3l5 -5l10 -3l6 -11l33 -38l9 -20l24 -65l2 -16l5 -15l1 -8l3 -4l2 -17l4 -11l5 -41l4 -18l2 -38l8 -72l4 -24l5 -76l10 -8l2 -17l-2 -5l-2 -13 l12 -90l-2 -20l8 -43l-2 -17l-8 -5l4 -7l-7 -14l-3 -11l-6 -11l-5 -23l-4 -8l-7 -5l8 -89h24l17 6l22 13l21 19l13 -11l1 -24l-4 -9l-3 -15l-5 -7v-4l-3 -5v-6l-3 -4v-4l-4 -7l-11 -9l-7 -3l-2 -4l-25 -7l-8 -4h-20zM246 340l5 -5l84 1l2 18l-23 207l-9 26l-6 -17l-21 -104 l-8 -17z" glyph-name="Aogonek" horiz-adv-x="526" unicode=""/><glyph d="M455 -139l-14 -1l-2 -3l-33 9l-13 8l-8 10l-10 26l-3 4l-4 34v53l3 38l-13 28l-4 20l-15 55l3 14l-5 2l-5 20v10h-4l-9 -5h-6l-8 -4l-10 1l-15 -1l-14 -2l-21 -1l-51 -6l-4 -10l-3 -14l-4 -3v-22l-9 -15l-4 -4v-11l-1 -9l-9 -10l-1 -13l-8 -7v-13l-11 -5l6 -7l-6 -6 l-25 1l-9 -1l-17 -4l-15 2l-18 7h-5l-17 8l-7 8l-7 23l2 47l5 47l4 24l36 160l8 50l12 56l-2 8l36 173l30 81l15 52l19 29l18 5l3 3l3 -3l9 2l18 2l27 -4l13 4l7 -3l17 -5l28 -25l25 -33l9 -23l22 -44l9 -40l13 -31l8 -33l-1 -11l2 -4v-6l11 -39v-16l3 -13l-1 -17l4 -8 l-1 -17l5 -19v-15l4 -4l8 -63l-1 -23l10 -23l2 -13l19 -79l9 -16l1 -17l3 -11l3 -17v-6l3 -4v-19l3 -7l-11 -6l-9 -14l11 -19l-39 -27l8 -89h24l17 6l22 13l21 19l13 -11l1 -24l-4 -9l-3 -15l-5 -7v-4l-3 -5v-6l-3 -4v-4l-4 -7l-11 -9l-7 -3l-2 -4l-25 -7l-8 -4h-20z M225 328l3 -2l63 2l3 3l2 20l-33 217l-9 -30l1 -4v-12l-3 -4l-9 -90l-5 -15l-4 -3l-1 -53l-4 -8z" glyph-name="aogonek" horiz-adv-x="520" unicode=""/><glyph d="M129 35l-27 9l-32 27l-14 25l-5 4l-16 54l-2 25l-7 9l-6 99v116l5 79l4 20l5 56l6 37v9l18 54l20 37l8 21v10l8 20l8 11l33 32l73 20l34 2l13 6l5 -9l26 -3l36 -12l41 -27l2 -5l27 -29l14 -19l4 -10l2 -10l5 -5l8 -19l5 -25l-11 -9l-5 -18l-8 -10l-2 -8v-11l-63 -59 l-5 -6l-14 -13l-6 6l-5 53l-15 48l-21 30l-24 13h-11l-5 2h-29l-15 -4l-2 -14l-5 -17v-34l1 -8l-6 -196l-2 -7l-2 -39l9 -85l15 -66l16 -40l29 -28l49 -28l9 -2l13 44l8 79l-5 110l5 4h5l6 6l18 5l4 4l18 5l13 6l5 4l10 -4l8 5h15l7 -4l15 -14l21 -74l7 -47l-2 -50l-2 -8 v-16l-5 -15l-3 -21l-16 -14l-2 4l-7 -7l-8 -6l-11 -6l-5 4l-2 -6l-4 1h-4l-6 4l-28 -12l-24 -17l-35 -3l-27 -6l-8 -4l-23 -6l-15 -6h-41l-42 -4zM138 838l-8 10l2 5l-4 2v6l20 18l13 21l25 30l25 19l33 18l15 6l4 6l19 -2l20 -9l22 -24v-4l-6 -15l-28 -38l-10 -1l-6 -5 l-19 -1l-38 -15l-19 -3l-48 -21l-9 -9z" glyph-name="Cacute" horiz-adv-x="495" unicode=""/><glyph d="M182 13l-2 3l-17 11l-6 -3l-28 16l-2 4l-11 5l-29 43l-29 67l-17 72v11l-2 8l-8 81v24l-6 78l-5 25l16 101l15 58l10 24l27 47l22 21l4 16l4 8l1 10l25 25l46 21l28 7l44 4l60 -8l31 -11l30 -20l2 -3h5l18 -18l21 -15l4 -7l6 -4l12 -24l6 -17v-6l2 -4l-1 -20l8 -18 l-2 -44l-20 -12l-31 -15l-15 -19l-30 -23l-5 -2l-12 -11h-9l-6 8l-12 36l-4 54l-9 28l-36 29l-17 2l-47 -8l-25 -11l-5 -23l-1 -13l-4 -6v-11l-7 -26l-1 -19l-2 -4l-1 -23l-2 -5l3 -9l-4 -10l5 -17l-3 -19l4 -4v-4l4 -7l2 -23l-1 -15l2 -6l3 -47l2 -12l-1 -11l4 -6v-9 l21 -98v-6l28 -62l3 -4l5 -11v-4h4l15 -17l19 -9l19 -7l12 20l10 43v17l8 32l6 54l-2 65l11 12l17 3l2 3l8 3h20l1 6l6 2l5 -2l6 5h6l6 4l1 4l3 -4l4 4h11l21 -34l8 -30v-4l7 -12l4 -35v-19l1 -6l-1 -26l-2 -8l2 -5l-2 -8l-6 -2l3 -13l-2 -4l-4 -15l6 -3l-4 -22l-7 -12 l-11 -10l-9 -12l-21 -16l-8 -4l-8 -8l-20 -13l-16 -6l-18 -9l-16 -4l-17 -8h-29l-8 2l-11 -3l-13 -2h-12l-18 -3l-28 3l-5 -2h-7zM132 820l-8 10l2 5l-4 2v6l20 18l13 21l25 30l25 19l33 18l15 6l4 6l19 -2l20 -9l22 -24v-4l-6 -15l-28 -38l-10 -1l-6 -5l-19 -1l-38 -15 l-19 -3l-48 -21l-9 -9z" glyph-name="cacute" unicode=""/><glyph d="M129 35l-27 9l-32 27l-14 25l-5 4l-16 54l-2 25l-7 9l-6 99v116l5 79l4 20l5 56l6 37v9l18 54l20 37l8 21v10l8 20l8 11l33 32l73 20l34 2l13 6l5 -9l26 -3l36 -12l41 -27l2 -5l27 -29l14 -19l4 -10l2 -10l5 -5l8 -19l5 -25l-11 -9l-5 -18l-8 -10l-2 -8v-11l-63 -59 l-5 -6l-14 -13l-6 6l-5 53l-15 48l-21 30l-24 13h-11l-5 2h-29l-15 -4l-2 -14l-5 -17v-34l1 -8l-6 -196l-2 -7l-2 -39l9 -85l15 -66l16 -40l29 -28l49 -28l9 -2l13 44l8 79l-5 110l5 4h5l6 6l18 5l4 4l18 5l13 6l5 4l10 -4l8 5h15l7 -4l15 -14l21 -74l7 -47l-2 -50l-2 -8 v-16l-5 -15l-3 -21l-16 -14l-2 4l-7 -7l-8 -6l-11 -6l-5 4l-2 -6l-4 1h-4l-6 4l-28 -12l-24 -17l-35 -3l-27 -6l-8 -4l-23 -6l-15 -6h-41l-42 -4zM108 838l-8 6l3 18l3 6l3 17v16l6 10l53 56l44 41l10 6l2 13l10 4h7l5 -9l12 -7l3 -4l18 -9l7 -9l12 -11l2 -6l7 -3l20 -23 l16 -14l6 -9l-1 -4l4 -2l-1 -8l5 -11l-1 -7l-21 -39l-14 -20l-18 14l-37 38l-25 33l-17 13l-9 -5l-4 -15l-22 -29l-2 -5l-5 -5l-5 -2l-4 -5l-4 -2l-5 -10l-23 -16l-11 -4z" glyph-name="Ccircumflex" horiz-adv-x="495" unicode=""/><glyph d="M182 13l-2 3l-17 11l-6 -3l-28 16l-2 4l-11 5l-29 43l-29 67l-17 72v11l-2 8l-8 81v24l-6 78l-5 25l16 101l15 58l10 24l27 47l22 21l4 16l4 8l1 10l25 25l46 21l28 7l44 4l60 -8l31 -11l30 -20l2 -3h5l18 -18l21 -15l4 -7l6 -4l12 -24l6 -17v-6l2 -4l-1 -20l8 -18 l-2 -44l-20 -12l-31 -15l-15 -19l-30 -23l-5 -2l-12 -11h-9l-6 8l-12 36l-4 54l-9 28l-36 29l-17 2l-47 -8l-25 -11l-5 -23l-1 -13l-4 -6v-11l-7 -26l-1 -19l-2 -4l-1 -23l-2 -5l3 -9l-4 -10l5 -17l-3 -19l4 -4v-4l4 -7l2 -23l-1 -15l2 -6l3 -47l2 -12l-1 -11l4 -6v-9 l21 -98v-6l28 -62l3 -4l5 -11v-4h4l15 -17l19 -9l19 -7l12 20l10 43v17l8 32l6 54l-2 65l11 12l17 3l2 3l8 3h20l1 6l6 2l5 -2l6 5h6l6 4l1 4l3 -4l4 4h11l21 -34l8 -30v-4l7 -12l4 -35v-19l1 -6l-1 -26l-2 -8l2 -5l-2 -8l-6 -2l3 -13l-2 -4l-4 -15l6 -3l-4 -22l-7 -12 l-11 -10l-9 -12l-21 -16l-8 -4l-8 -8l-20 -13l-16 -6l-18 -9l-16 -4l-17 -8h-29l-8 2l-11 -3l-13 -2h-12l-18 -3l-28 3l-5 -2h-7zM102 820l-8 6l3 18l3 6l3 17v16l6 10l53 56l44 41l10 6l2 13l10 4h7l5 -9l12 -7l3 -4l18 -9l7 -9l12 -11l2 -6l7 -3l20 -23l16 -14l6 -9l-1 -4 l4 -2l-1 -8l5 -11l-1 -7l-21 -39l-14 -20l-18 14l-37 38l-25 33l-17 13l-9 -5l-4 -15l-22 -29l-2 -5l-5 -5l-5 -2l-4 -5l-4 -2l-5 -10l-23 -16l-11 -4z" glyph-name="ccircumflex" unicode=""/><glyph d="M129 35l-27 9l-32 27l-14 25l-5 4l-16 54l-2 25l-7 9l-6 99v116l5 79l4 20l5 56l6 37v9l18 54l20 37l8 21v10l8 20l8 11l33 32l73 20l34 2l13 6l5 -9l26 -3l36 -12l41 -27l2 -5l27 -29l14 -19l4 -10l2 -10l5 -5l8 -19l5 -25l-11 -9l-5 -18l-8 -10l-2 -8v-11l-63 -59 l-5 -6l-14 -13l-6 6l-5 53l-15 48l-21 30l-24 13h-11l-5 2h-29l-15 -4l-2 -14l-5 -17v-34l1 -8l-6 -196l-2 -7l-2 -39l9 -85l15 -66l16 -40l29 -28l49 -28l9 -2l13 44l8 79l-5 110l5 4h5l6 6l18 5l4 4l18 5l13 6l5 4l10 -4l8 5h15l7 -4l15 -14l21 -74l7 -47l-2 -50l-2 -8 v-16l-5 -15l-3 -21l-16 -14l-2 4l-7 -7l-8 -6l-11 -6l-5 4l-2 -6l-4 1h-4l-6 4l-28 -12l-24 -17l-35 -3l-27 -6l-8 -4l-23 -6l-15 -6h-41l-42 -4zM204 865l-16 27l-5 5l-1 14l-3 5l-1 30l15 12l4 2l7 -2l6 6l5 1l14 -3l17 11l10 -8l6 11l5 -3l3 -5v-9l12 -32l5 -28l5 -10v-8 l-25 -11l-23 -5h-17l-17 -14z" glyph-name="Cdotaccent" horiz-adv-x="495" unicode=""/><glyph d="M182 13l-2 3l-17 11l-6 -3l-28 16l-2 4l-11 5l-29 43l-29 67l-17 72v11l-2 8l-8 81v24l-6 78l-5 25l16 101l15 58l10 24l27 47l22 21l4 16l4 8l1 10l25 25l46 21l28 7l44 4l60 -8l31 -11l30 -20l2 -3h5l18 -18l21 -15l4 -7l6 -4l12 -24l6 -17v-6l2 -4l-1 -20l8 -18 l-2 -44l-20 -12l-31 -15l-15 -19l-30 -23l-5 -2l-12 -11h-9l-6 8l-12 36l-4 54l-9 28l-36 29l-17 2l-47 -8l-25 -11l-5 -23l-1 -13l-4 -6v-11l-7 -26l-1 -19l-2 -4l-1 -23l-2 -5l3 -9l-4 -10l5 -17l-3 -19l4 -4v-4l4 -7l2 -23l-1 -15l2 -6l3 -47l2 -12l-1 -11l4 -6v-9 l21 -98v-6l28 -62l3 -4l5 -11v-4h4l15 -17l19 -9l19 -7l12 20l10 43v17l8 32l6 54l-2 65l11 12l17 3l2 3l8 3h20l1 6l6 2l5 -2l6 5h6l6 4l1 4l3 -4l4 4h11l21 -34l8 -30v-4l7 -12l4 -35v-19l1 -6l-1 -26l-2 -8l2 -5l-2 -8l-6 -2l3 -13l-2 -4l-4 -15l6 -3l-4 -22l-7 -12 l-11 -10l-9 -12l-21 -16l-8 -4l-8 -8l-20 -13l-16 -6l-18 -9l-16 -4l-17 -8h-29l-8 2l-11 -3l-13 -2h-12l-18 -3l-28 3l-5 -2h-7zM198 847l-16 27l-5 5l-1 14l-3 5l-1 30l15 12l4 2l7 -2l6 6l5 1l14 -3l17 11l10 -8l6 11l5 -3l3 -5v-9l12 -32l5 -28l5 -10v-8l-25 -11l-23 -5 h-17l-17 -14z" glyph-name="cdotaccent" unicode=""/><glyph d="M129 35l-27 9l-32 27l-14 25l-5 4l-16 54l-2 25l-7 9l-6 99v116l5 79l4 20l5 56l6 37v9l18 54l20 37l8 21v10l8 20l8 11l33 32l73 20l34 2l13 6l5 -9l26 -3l36 -12l41 -27l2 -5l27 -29l14 -19l4 -10l2 -10l5 -5l8 -19l5 -25l-11 -9l-5 -18l-8 -10l-2 -8v-11l-63 -59 l-5 -6l-14 -13l-6 6l-5 53l-15 48l-21 30l-24 13h-11l-5 2h-29l-15 -4l-2 -14l-5 -17v-34l1 -8l-6 -196l-2 -7l-2 -39l9 -85l15 -66l16 -40l29 -28l49 -28l9 -2l13 44l8 79l-5 110l5 4h5l6 6l18 5l4 4l18 5l13 6l5 4l10 -4l8 5h15l7 -4l15 -14l21 -74l7 -47l-2 -50l-2 -8 v-16l-5 -15l-3 -21l-16 -14l-2 4l-7 -7l-8 -6l-11 -6l-5 4l-2 -6l-4 1h-4l-6 4l-28 -12l-24 -17l-35 -3l-27 -6l-8 -4l-23 -6l-15 -6h-41l-42 -4zM207 845l-2 6l-6 -3l-3 8l-31 40l-36 53l-19 37l6 2l27 28l8 12l12 9h14l4 -7l1 -6l8 -8l5 -9l34 -49l7 15l10 14l11 25l9 8 h10l5 3l4 -2l32 5l23 -21l-6 -17l-5 -7l-1 -11l-9 -21l-9 -14l-6 -13l-3 -2l-2 -10l-12 -16l-6 -18l-6 -1l-2 -5l-7 -6h-5l-2 -6l-10 -8h-14l-14 6z" glyph-name="Ccaron" horiz-adv-x="495" unicode=""/><glyph d="M182 13l-2 3l-17 11l-6 -3l-28 16l-2 4l-11 5l-29 43l-29 67l-17 72v11l-2 8l-8 81v24l-6 78l-5 25l16 101l15 58l10 24l27 47l22 21l4 16l4 8l1 10l25 25l46 21l28 7l44 4l60 -8l31 -11l30 -20l2 -3h5l18 -18l21 -15l4 -7l6 -4l12 -24l6 -17v-6l2 -4l-1 -20l8 -18 l-2 -44l-20 -12l-31 -15l-15 -19l-30 -23l-5 -2l-12 -11h-9l-6 8l-12 36l-4 54l-9 28l-36 29l-17 2l-47 -8l-25 -11l-5 -23l-1 -13l-4 -6v-11l-7 -26l-1 -19l-2 -4l-1 -23l-2 -5l3 -9l-4 -10l5 -17l-3 -19l4 -4v-4l4 -7l2 -23l-1 -15l2 -6l3 -47l2 -12l-1 -11l4 -6v-9 l21 -98v-6l28 -62l3 -4l5 -11v-4h4l15 -17l19 -9l19 -7l12 20l10 43v17l8 32l6 54l-2 65l11 12l17 3l2 3l8 3h20l1 6l6 2l5 -2l6 5h6l6 4l1 4l3 -4l4 4h11l21 -34l8 -30v-4l7 -12l4 -35v-19l1 -6l-1 -26l-2 -8l2 -5l-2 -8l-6 -2l3 -13l-2 -4l-4 -15l6 -3l-4 -22l-7 -12 l-11 -10l-9 -12l-21 -16l-8 -4l-8 -8l-20 -13l-16 -6l-18 -9l-16 -4l-17 -8h-29l-8 2l-11 -3l-13 -2h-12l-18 -3l-28 3l-5 -2h-7zM201 827l-2 6l-6 -3l-3 8l-31 40l-36 53l-19 37l6 2l27 28l8 12l12 9h14l4 -7l1 -6l8 -8l5 -9l34 -49l7 15l10 14l11 25l9 8h10l5 3l4 -2l32 5 l23 -21l-6 -17l-5 -7l-1 -11l-9 -21l-9 -14l-6 -13l-3 -2l-2 -10l-12 -16l-6 -18l-6 -1l-2 -5l-7 -6h-5l-2 -6l-10 -8h-14l-14 6z" glyph-name="ccaron" unicode=""/><glyph d="M77 -4l-4 48l-4 3l-1 9l3 14l-4 12v16l19 7l9 563l-45 -11l-21 -1l-8 8l-1 12l3 2l5 21l2 21l4 4l-3 2v11l4 15l1 17l13 8l28 14l30 11l17 4l48 2l88 -5l93 -14l30 -12l3 -2l10 -5l10 -12l10 -5l24 -27l25 -43l5 -11l5 -1l8 -19v-8l5 -8l10 -25l9 -32l3 -7l5 -22l8 -65 v-23l-1 -8v-18l-3 -9l2 -36l-4 -14l1 -6l-6 -19v-7l-3 -16v-7l-3 -10l-3 -22v-5l-5 -20l-1 -13l-4 -11l-4 -3v-4l-2 -3l-11 -31l-7 -15l-6 -6v-6l-24 -21l-37 -42l-7 -13l-13 -7l1 -12l-107 -48l-127 -33l-54 -4zM230 156l1 -8l19 7l37 26l33 28l20 26l15 30l22 88l11 91 l-7 86l-15 44l-20 40l-35 42l-12 10l-41 9l-4 -3l-7 4l-5 -2l-9 2l-15 -6l7 -171l-1 -13v-83l3 -55l-2 -5l3 -61l-1 -91zM199 833l-2 6l-6 -3l-3 8l-31 40l-36 53l-19 37l6 2l27 28l8 12l12 9h14l4 -7l1 -6l8 -8l5 -9l34 -49l7 15l10 14l11 25l9 8h10l5 3l4 -2l32 5l23 -21 l-6 -17l-5 -7l-1 -11l-9 -21l-9 -14l-6 -13l-3 -2l-2 -10l-12 -16l-6 -18l-6 -1l-2 -5l-7 -6h-5l-2 -6l-10 -8h-14l-14 6z" glyph-name="Dcaron" horiz-adv-x="543" unicode=""/><glyph d="M48 -21l-3 8l-3 23l-2 3v10l-11 46l4 9l16 2l49 10l-17 558h-13l-28 -5l-7 -3l-9 3l-4 13l6 15l5 34v13l3 9l-3 5l5 5v20l3 3l18 3l26 8l44 5l83 3l104 -12l14 -6l22 -6l15 -7l15 -16l4 -8l31 -21l19 -20l3 -11l21 -24l8 -17l3 -11l5 -8l4 -3l7 -12l2 -21l7 -10v-5l5 -5 v-18l6 -14l-1 -5l3 -7v-32l2 -12l-5 -4l5 -28l-4 -4l-1 -23l-2 -3l-6 -18v-9l-5 -15l-2 -20l-5 -10l-2 -10l-4 -3l-9 -18v-9l-4 -7l-5 -16l-8 -7l-9 -11l-1 -7l-5 -5l-7 -11l-9 -29l-5 -5l-8 -15l-5 -18l-13 -12l-2 -12l-8 -10l-2 -7l-13 -13l-2 -6l-8 -3l-10 -10l-1 -5 l-7 -7l-6 -3l-13 -10l-2 -5l-11 -11l-7 -5l-13 -6l-18 -13l-9 -8l-10 -2l-4 -4l-6 -1l-17 -8l-3 -4h-5l-8 -4l-50 -14l-20 -2l-68 -2zM225 158l31 20l24 26l52 176l5 10l4 16l9 66l-11 78l-10 24l-19 28l-12 12l-42 27l-23 3h-20v-18l7 -19v-72l1 -19l3 -6l-3 -12l2 -12v-37 l-2 -7l-1 -23l-2 -5v-35l-3 -7l3 -2v-112l2 -5v-31l3 -12v-34l2 -6v-12zM153 799l-2 6l-6 -3l-3 8l-31 40l-36 53l-19 37l6 2l27 28l8 12l12 9h14l4 -7l1 -6l8 -8l5 -9l34 -49l7 15l10 14l11 25l9 8h10l5 3l4 -2l32 5l23 -21l-6 -17l-5 -7l-1 -11l-9 -21l-9 -14l-6 -13 l-3 -2l-2 -10l-12 -16l-6 -18l-6 -1l-2 -5l-7 -6h-5l-2 -6l-10 -8h-14l-14 6z" glyph-name="dcaron" horiz-adv-x="529" unicode=""/><glyph d="M77 -4l-4 48l-4 3l-1 9l3 14l-4 12v16l19 7l4 237h-21v4l-7 5l-4 6l1 21l2 8l5 5l-4 2l3 3v4l-3 2l4 2v5l-3 5l5 6l23 4l4 244l-45 -11l-21 -1l-8 8l-1 12l3 2l5 21l2 21l4 4l-3 2v11l4 15l1 17l13 8l28 14l30 11l17 4l48 2l88 -5l93 -14l30 -12l3 -2l10 -5l10 -12l10 -5 l24 -27l25 -43l5 -11l5 -1l8 -19v-8l5 -8l10 -25l9 -32l3 -7l5 -22l8 -65v-23l-1 -8v-18l-3 -9l2 -36l-4 -14l1 -6l-6 -19v-7l-3 -16v-7l-3 -10l-3 -22v-5l-5 -20l-1 -13l-4 -11l-4 -3v-4l-2 -3l-11 -31l-7 -15l-6 -6v-6l-24 -21l-37 -42l-7 -13l-13 -7l1 -12l-107 -48 l-127 -33l-54 -4zM230 156l1 -8l19 7l37 26l33 28l20 26l15 30l22 88l11 91l-7 86l-15 44l-20 40l-35 42l-12 10l-41 9l-4 -3l-7 4l-5 -2l-9 2l-15 -6l7 -171l-1 -13v-55h17l62 -4l-1 -24l-9 -45l2 -3l-13 -5l1 -4l-4 -2h-15l-3 -2l-36 -1l3 -59l-1 -91z" glyph-name="Dcroat" horiz-adv-x="543" unicode=""/><glyph d="M87 350h-24v4l-7 5l-4 6l1 21l2 8l5 5l-4 2l3 3v4l-3 2l4 2v5l-3 5l5 6l25 4l-6 216h-13l-28 -5l-7 -3l-9 3l-4 13l6 15l5 34v13l3 9l-3 5l5 5v20l3 3l18 3l26 8l44 5l83 3l104 -12l14 -6l22 -6l15 -7l15 -16l4 -8l31 -21l19 -20l3 -11l21 -24l8 -17l3 -11l5 -8l4 -3 l7 -12l2 -21l7 -10v-5l5 -5v-18l6 -14l-1 -5l3 -7v-32l2 -12l-5 -4l5 -28l-4 -4l-1 -23l-2 -3l-6 -18v-9l-5 -15l-2 -20l-5 -10l-2 -10l-4 -3l-9 -18v-9l-4 -7l-5 -16l-8 -7l-9 -11l-1 -7l-5 -5l-7 -11l-9 -29l-5 -5l-8 -15l-5 -18l-13 -12l-2 -12l-8 -10l-2 -7l-13 -13 l-2 -6l-8 -3l-10 -10l-1 -5l-7 -7l-6 -3l-13 -10l-2 -5l-11 -11l-7 -5l-13 -6l-18 -13l-9 -8l-10 -2l-4 -4l-6 -1l-17 -8l-3 -4h-5l-8 -4l-50 -14l-20 -2l-68 -2l-19 3l-3 8l-3 23l-2 3v10l-11 46l4 9l16 2l49 10l-8 259zM225 158l31 20l24 26l52 176l5 10l4 16l9 66l-11 78 l-10 24l-19 28l-12 12l-42 27l-23 3h-20v-18l7 -19v-72l1 -19l3 -6l-3 -12l2 -12v-37l-2 -10h14l62 -4l-1 -24l-9 -45l2 -3l-13 -5l1 -4l-4 -2h-15l-3 -2l-37 -1v-91l2 -5v-31l3 -12v-34l2 -6v-12z" glyph-name="dcroat" horiz-adv-x="529" unicode=""/><glyph d="M76 29l-12 7v9l-12 -5l-3 4l3 46l-7 47l-1 15v24l-6 41l-18 66l27 485l4 15l7 3l4 12l-4 1l7 9h182l29 -2h20l18 -5h22l66 -13l9 -1l59 -14l3 -8v-17l-4 -7v-5l-17 -41v-9l-7 -15l-4 -18h-18l-14 -3l-18 -2l-11 -3h-57l-34 2l-95 11v-44l6 -108h76l20 -2l7 -2h11l59 -11 l38 -3h24l3 -5v-26l-8 -18v-4l-1 -11l-4 -3v-13l-10 -24l3 -8l-3 -7l-9 -1l-13 -4l-33 -7l-31 -2h-124v-4l4 -4v-90l4 -7v-69l56 2l100 -2l7 3l8 -1h48l6 2h33l5 -11l2 -22l-4 -4l-1 -7l-5 -4l5 -9l-4 -7v-26l-7 -7v-8l3 -3v-12l-35 -5l-21 -5l-7 -4l-28 -3l-14 -4l-4 -3h-9 l-7 -4l-6 2l-7 -3h-15l-3 -2l-39 -6h-77l-18 -2zM143 850h-24v4l-7 5l-4 6l1 21l2 8l5 5l-4 2l3 3v4l-3 2l4 2v5l-3 5l5 6l68 11h105l62 -4l-1 -24l-9 -45l2 -3l-13 -5l1 -4l-4 -2h-15l-3 -2l-74 -2l-12 2l-6 -3l-4 3h-23l-8 -2h-35z" glyph-name="Emacron" horiz-adv-x="498" unicode=""/><glyph d="M75 -3l-7 11l-22 51l-8 31l-14 104l-2 49l-2 11v106l4 8l-3 1l4 25l5 99l3 9l4 105l6 57l2 5h-7l-6 10v13l5 2l2 8l4 4v4l2 14l8 11l6 5v6l6 4l5 12v4l-4 4l7 3l3 6l-3 9l28 7l43 4l4 -4l3 2l12 -2h27l7 -2h44l13 -2l80 -1l21 -2h26l6 -2h17l18 -2l3 -2l4 2l21 2l26 4 l3 -2l-9 -32l-16 -23v-7l-21 -30l2 -3l-11 -12l-12 -8v-4l-6 -7l-13 -8l-29 -4l-7 -6h-17l-11 -2l-35 2l-21 -2l-15 4l-8 -2l-16 3l-4 -3h-42v-39l2 -16l3 -74l-1 -6l3 2l16 2l28 -2l7 4h29l13 2l25 2l5 -3l7 3l19 -2l32 -6h32l-4 -36l-4 -13l-1 -13l-12 -33l-2 -16l-10 -13 l-12 -3l-11 -4h-6l-5 -10h-5l-5 -2l-35 -2l-6 -2h-93l-2 -10l-3 -40l3 -4v-67l4 -38v-28l-3 -3l7 -6v-5l-3 -6h24l9 2l4 4l23 2h17l54 7h79l27 4l3 -25l-7 -25v-18l-8 -18l-2 -10v-15l-19 -15l-15 -5l-6 -5l-11 -4l-3 -6l-54 -7l-4 -3h-17l-29 -2l-3 -4h-14l-164 -18z M167 838h-24v4l-7 5l-4 6l1 21l2 8l5 5l-4 2l3 3v4l-3 2l4 2v5l-3 5l5 6l68 11h105l62 -4l-1 -24l-9 -45l2 -3l-13 -5l1 -4l-4 -2h-15l-3 -2l-74 -2l-12 2l-6 -3l-4 3h-23l-8 -2h-35z" glyph-name="emacron" unicode=""/><glyph d="M76 29l-12 7v9l-12 -5l-3 4l3 46l-7 47l-1 15v24l-6 41l-18 66l27 485l4 15l7 3l4 12l-4 1l7 9h182l29 -2h20l18 -5h22l66 -13l9 -1l59 -14l3 -8v-17l-4 -7v-5l-17 -41v-9l-7 -15l-4 -18h-18l-14 -3l-18 -2l-11 -3h-57l-34 2l-95 11v-44l6 -108h76l20 -2l7 -2h11l59 -11 l38 -3h24l3 -5v-26l-8 -18v-4l-1 -11l-4 -3v-13l-10 -24l3 -8l-3 -7l-9 -1l-13 -4l-33 -7l-31 -2h-124v-4l4 -4v-90l4 -7v-69l56 2l100 -2l7 3l8 -1h48l6 2h33l5 -11l2 -22l-4 -4l-1 -7l-5 -4l5 -9l-4 -7v-26l-7 -7v-8l3 -3v-12l-35 -5l-21 -5l-7 -4l-28 -3l-14 -4l-4 -3h-9 l-7 -4l-6 2l-7 -3h-15l-3 -2l-39 -6h-77l-18 -2zM192 844l-22 12l-22 21l-16 25l-9 41v15l8 10l2 6l11 7l3 9l9 9v6l7 8l21 -3l13 -14l12 -19l6 -20l19 -28l16 -11h11l6 2l4 21l-4 44l5 3l3 6l11 13l13 12l7 4l17 -1l8 -6l21 -36l-2 -20l3 -4l-9 -32l-10 -10l-11 -19 l-20 -15l-14 -13l-13 -3l-10 -6h-4l-20 -10l-22 -6z" glyph-name="Ebreve" horiz-adv-x="498" unicode=""/><glyph d="M75 -3l-7 11l-22 51l-8 31l-14 104l-2 49l-2 11v106l4 8l-3 1l4 25l5 99l3 9l4 105l6 57l2 5h-7l-6 10v13l5 2l2 8l4 4v4l2 14l8 11l6 5v6l6 4l5 12v4l-4 4l7 3l3 6l-3 9l28 7l43 4l4 -4l3 2l12 -2h27l7 -2h44l13 -2l80 -1l21 -2h26l6 -2h17l18 -2l3 -2l4 2l21 2l26 4 l3 -2l-9 -32l-16 -23v-7l-21 -30l2 -3l-11 -12l-12 -8v-4l-6 -7l-13 -8l-29 -4l-7 -6h-17l-11 -2l-35 2l-21 -2l-15 4l-8 -2l-16 3l-4 -3h-42v-39l2 -16l3 -74l-1 -6l3 2l16 2l28 -2l7 4h29l13 2l25 2l5 -3l7 3l19 -2l32 -6h32l-4 -36l-4 -13l-1 -13l-12 -33l-2 -16l-10 -13 l-12 -3l-11 -4h-6l-5 -10h-5l-5 -2l-35 -2l-6 -2h-93l-2 -10l-3 -40l3 -4v-67l4 -38v-28l-3 -3l7 -6v-5l-3 -6h24l9 2l4 4l23 2h17l54 7h79l27 4l3 -25l-7 -25v-18l-8 -18l-2 -10v-15l-19 -15l-15 -5l-6 -5l-11 -4l-3 -6l-54 -7l-4 -3h-17l-29 -2l-3 -4h-14l-164 -18z M216 832l-22 12l-22 21l-16 25l-9 41v15l8 10l2 6l11 7l3 9l9 9v6l7 8l21 -3l13 -14l12 -19l6 -20l19 -28l16 -11h11l6 2l4 21l-4 44l5 3l3 6l11 13l13 12l7 4l17 -1l8 -6l21 -36l-2 -20l3 -4l-9 -32l-10 -10l-11 -19l-20 -15l-14 -13l-13 -3l-10 -6h-4l-20 -10l-22 -6z" glyph-name="ebreve" unicode=""/><glyph d="M76 29l-12 7v9l-12 -5l-3 4l3 46l-7 47l-1 15v24l-6 41l-18 66l27 485l4 15l7 3l4 12l-4 1l7 9h182l29 -2h20l18 -5h22l66 -13l9 -1l59 -14l3 -8v-17l-4 -7v-5l-17 -41v-9l-7 -15l-4 -18h-18l-14 -3l-18 -2l-11 -3h-57l-34 2l-95 11v-44l6 -108h76l20 -2l7 -2h11l59 -11 l38 -3h24l3 -5v-26l-8 -18v-4l-1 -11l-4 -3v-13l-10 -24l3 -8l-3 -7l-9 -1l-13 -4l-33 -7l-31 -2h-124v-4l4 -4v-90l4 -7v-69l56 2l100 -2l7 3l8 -1h48l6 2h33l5 -11l2 -22l-4 -4l-1 -7l-5 -4l5 -9l-4 -7v-26l-7 -7v-8l3 -3v-12l-35 -5l-21 -5l-7 -4l-28 -3l-14 -4l-4 -3h-9 l-7 -4l-6 2l-7 -3h-15l-3 -2l-39 -6h-77l-18 -2zM206 857l-16 27l-5 5l-1 14l-3 5l-1 30l15 12l4 2l7 -2l6 6l5 1l14 -3l17 11l10 -8l6 11l5 -3l3 -5v-9l12 -32l5 -28l5 -10v-8l-25 -11l-23 -5h-17l-17 -14z" glyph-name="Edotaccent" horiz-adv-x="498" unicode=""/><glyph d="M75 -3l-7 11l-22 51l-8 31l-14 104l-2 49l-2 11v106l4 8l-3 1l4 25l5 99l3 9l4 105l6 57l2 5h-7l-6 10v13l5 2l2 8l4 4v4l2 14l8 11l6 5v6l6 4l5 12v4l-4 4l7 3l3 6l-3 9l28 7l43 4l4 -4l3 2l12 -2h27l7 -2h44l13 -2l80 -1l21 -2h26l6 -2h17l18 -2l3 -2l4 2l21 2l26 4 l3 -2l-9 -32l-16 -23v-7l-21 -30l2 -3l-11 -12l-12 -8v-4l-6 -7l-13 -8l-29 -4l-7 -6h-17l-11 -2l-35 2l-21 -2l-15 4l-8 -2l-16 3l-4 -3h-42v-39l2 -16l3 -74l-1 -6l3 2l16 2l28 -2l7 4h29l13 2l25 2l5 -3l7 3l19 -2l32 -6h32l-4 -36l-4 -13l-1 -13l-12 -33l-2 -16l-10 -13 l-12 -3l-11 -4h-6l-5 -10h-5l-5 -2l-35 -2l-6 -2h-93l-2 -10l-3 -40l3 -4v-67l4 -38v-28l-3 -3l7 -6v-5l-3 -6h24l9 2l4 4l23 2h17l54 7h79l27 4l3 -25l-7 -25v-18l-8 -18l-2 -10v-15l-19 -15l-15 -5l-6 -5l-11 -4l-3 -6l-54 -7l-4 -3h-17l-29 -2l-3 -4h-14l-164 -18z M230 845l-16 27l-5 5l-1 14l-3 5l-1 30l15 12l4 2l7 -2l6 6l5 1l14 -3l17 11l10 -8l6 11l5 -3l3 -5v-9l12 -32l5 -28l5 -10v-8l-25 -11l-23 -5h-17l-17 -14z" glyph-name="edotaccent" unicode=""/><glyph d="M397 -141l-14 -1l-2 -3l-33 9l-13 8l-8 10l-10 26l-3 4l-4 34v53l2 37l-3 -2l-39 -6h-77l-18 -2l-99 3l-12 7v9l-12 -5l-3 4l3 46l-7 47l-1 15v24l-6 41l-18 66l27 485l4 15l7 3l4 12l-4 1l7 9h182l29 -2h20l18 -5h22l66 -13l9 -1l59 -14l3 -8v-17l-4 -7v-5l-17 -41v-9 l-7 -15l-4 -18h-18l-14 -3l-18 -2l-11 -3h-57l-34 2l-95 11v-44l6 -108h76l20 -2l7 -2h11l59 -11l38 -3h24l3 -5v-26l-8 -18v-4l-1 -11l-4 -3v-13l-10 -24l3 -8l-3 -7l-9 -1l-13 -4l-33 -7l-31 -2h-124v-4l4 -4v-90l4 -7v-69l56 2l100 -2l7 3l8 -1h48l6 2h33l5 -11l2 -22 l-4 -4l-1 -7l-5 -4l5 -9l-4 -7v-26l-7 -7v-8l3 -3v-12l-35 -5l-21 -5l-7 -4l-10 -1l10 -110h24l17 6l22 13l21 19l13 -11l1 -24l-4 -9l-3 -15l-5 -7v-4l-3 -5v-6l-3 -4v-4l-4 -7l-11 -9l-7 -3l-2 -4l-25 -7l-8 -4h-20z" glyph-name="Eogonek" horiz-adv-x="498" unicode=""/><glyph d="M379 -145l-14 -1l-2 -3l-33 9l-13 8l-8 10l-10 26l-3 4l-4 34v53l2 25l-29 -2l-3 -4h-14l-164 -18l-9 1l-7 11l-22 51l-8 31l-14 104l-2 49l-2 11v106l4 8l-3 1l4 25l5 99l3 9l4 105l6 57l2 5h-7l-6 10v13l5 2l2 8l4 4v4l2 14l8 11l6 5v6l6 4l5 12v4l-4 4l7 3l3 6l-3 9 l28 7l43 4l4 -4l3 2l12 -2h27l7 -2h44l13 -2l80 -1l21 -2h26l6 -2h17l18 -2l3 -2l4 2l21 2l26 4l3 -2l-9 -32l-16 -23v-7l-21 -30l2 -3l-11 -12l-12 -8v-4l-6 -7l-13 -8l-29 -4l-7 -6h-17l-11 -2l-35 2l-21 -2l-15 4l-8 -2l-16 3l-4 -3h-42v-39l2 -16l3 -74l-1 -6l3 2l16 2 l28 -2l7 4h29l13 2l25 2l5 -3l7 3l19 -2l32 -6h32l-4 -36l-4 -13l-1 -13l-12 -33l-2 -16l-10 -13l-12 -3l-11 -4h-6l-5 -10h-5l-5 -2l-35 -2l-6 -2h-93l-2 -10l-3 -40l3 -4v-67l4 -38v-28l-3 -3l7 -6v-5l-3 -6h24l9 2l4 4l23 2h17l54 7h79l27 4l3 -25l-7 -25v-18l-8 -18 l-2 -10v-15l-19 -15l-15 -5l-6 -5l-8 -3l9 -101h24l17 6l22 13l21 19l13 -11l1 -24l-4 -9l-3 -15l-5 -7v-4l-3 -5v-6l-3 -4v-4l-4 -7l-11 -9l-7 -3l-2 -4l-25 -7l-8 -4h-20z" glyph-name="eogonek" unicode=""/><glyph d="M76 29l-12 7v9l-12 -5l-3 4l3 46l-7 47l-1 15v24l-6 41l-18 66l27 485l4 15l7 3l4 12l-4 1l7 9h182l29 -2h20l18 -5h22l66 -13l9 -1l59 -14l3 -8v-17l-4 -7v-5l-17 -41v-9l-7 -15l-4 -18h-18l-14 -3l-18 -2l-11 -3h-57l-34 2l-95 11v-44l6 -108h76l20 -2l7 -2h11l59 -11 l38 -3h24l3 -5v-26l-8 -18v-4l-1 -11l-4 -3v-13l-10 -24l3 -8l-3 -7l-9 -1l-13 -4l-33 -7l-31 -2h-124v-4l4 -4v-90l4 -7v-69l56 2l100 -2l7 3l8 -1h48l6 2h33l5 -11l2 -22l-4 -4l-1 -7l-5 -4l5 -9l-4 -7v-26l-7 -7v-8l3 -3v-12l-35 -5l-21 -5l-7 -4l-28 -3l-14 -4l-4 -3h-9 l-7 -4l-6 2l-7 -3h-15l-3 -2l-39 -6h-77l-18 -2zM209 837l-2 6l-6 -3l-3 8l-31 40l-36 53l-19 37l6 2l27 28l8 12l12 9h14l4 -7l1 -6l8 -8l5 -9l34 -49l7 15l10 14l11 25l9 8h10l5 3l4 -2l32 5l23 -21l-6 -17l-5 -7l-1 -11l-9 -21l-9 -14l-6 -13l-3 -2l-2 -10l-12 -16 l-6 -18l-6 -1l-2 -5l-7 -6h-5l-2 -6l-10 -8h-14l-14 6z" glyph-name="Ecaron" horiz-adv-x="498" unicode=""/><glyph d="M75 -3l-7 11l-22 51l-8 31l-14 104l-2 49l-2 11v106l4 8l-3 1l4 25l5 99l3 9l4 105l6 57l2 5h-7l-6 10v13l5 2l2 8l4 4v4l2 14l8 11l6 5v6l6 4l5 12v4l-4 4l7 3l3 6l-3 9l28 7l43 4l4 -4l3 2l12 -2h27l7 -2h44l13 -2l80 -1l21 -2h26l6 -2h17l18 -2l3 -2l4 2l21 2l26 4 l3 -2l-9 -32l-16 -23v-7l-21 -30l2 -3l-11 -12l-12 -8v-4l-6 -7l-13 -8l-29 -4l-7 -6h-17l-11 -2l-35 2l-21 -2l-15 4l-8 -2l-16 3l-4 -3h-42v-39l2 -16l3 -74l-1 -6l3 2l16 2l28 -2l7 4h29l13 2l25 2l5 -3l7 3l19 -2l32 -6h32l-4 -36l-4 -13l-1 -13l-12 -33l-2 -16l-10 -13 l-12 -3l-11 -4h-6l-5 -10h-5l-5 -2l-35 -2l-6 -2h-93l-2 -10l-3 -40l3 -4v-67l4 -38v-28l-3 -3l7 -6v-5l-3 -6h24l9 2l4 4l23 2h17l54 7h79l27 4l3 -25l-7 -25v-18l-8 -18l-2 -10v-15l-19 -15l-15 -5l-6 -5l-11 -4l-3 -6l-54 -7l-4 -3h-17l-29 -2l-3 -4h-14l-164 -18z M233 825l-2 6l-6 -3l-3 8l-31 40l-36 53l-19 37l6 2l27 28l8 12l12 9h14l4 -7l1 -6l8 -8l5 -9l34 -49l7 15l10 14l11 25l9 8h10l5 3l4 -2l32 5l23 -21l-6 -17l-5 -7l-1 -11l-9 -21l-9 -14l-6 -13l-3 -2l-2 -10l-12 -16l-6 -18l-6 -1l-2 -5l-7 -6h-5l-2 -6l-10 -8h-14l-14 6z " glyph-name="ecaron" unicode=""/><glyph d="M259 27l-16 2l-10 4h-8l-2 -4l-1 6l-18 6l-14 10l-12 6l-6 6l-35 17l-39 40l-31 50l-14 33l-4 14l-7 11l-15 65l-4 23l-3 39v97l1 6v38l10 77v23l2 13l-2 12v21l12 65l14 29l20 27l32 32l12 3l1 3h4l2 4l38 18h24l9 4l58 4l53 -12l30 -14l11 -7l11 -5l19 -11l34 -33 l16 -27l4 -9l7 -11l3 -21l4 -7l2 -9l-2 -5l-13 -14l-8 -4l-4 -9l-3 -10l-4 -2l-6 -8v-20l6 -8v-6l-10 -4l-16 -18l-8 -2l-8 -7l-19 -13l-10 -5h-9l-7 -2l-7 10l-27 75l-5 21l-17 28l-13 10l-14 5l-16 -11l-2 -6l-6 -6l-6 -2v-8l-11 -11l-3 -7l-11 -9l-3 -8l-8 -4l-9 -18 l-1 -10l-4 -8v-21l-12 -22l3 -30l2 -64l-2 -5l2 -4v-26l2 -6v-16l3 -22l4 -17v-8l12 -44l6 -10l5 -13l1 -7l2 -3l20 -40l4 -3l14 -21l19 -15l4 -8l1 3l17 -9l4 -5l8 -1l12 -8l33 -4l3 20v85l-7 51l-6 24h-15l-4 -4h-8l-5 -6l-7 2h-18l-8 -5l-4 3l-2 6l-7 8v17l6 6l17 36v6 l6 5l2 9l4 7v5l8 14l14 15l28 14l27 8l12 6h8l6 4l27 6l21 2l25 4l14 -2l4 4h8l17 4l17 -4l3 -5l-3 -3v-16l-7 -23l-5 -6v-4l-2 -4h6v-6l4 -5l-4 -5h-4l-4 -3v-5l6 -3v-8l-5 -4l8 -9v-5l-11 -4l-10 -6l-2 -4h-18l-3 -3h-8l-4 -8l10 -20l15 -69v-51l-6 -6v-8l-4 -3v-5l-3 -8 l-6 -2l-5 -12v-10l-19 -12v-7l-7 -6l-7 -4v-16l-2 -7l-7 -12l-29 -27h-5l-2 -5l-9 -4l-2 -6l-8 -4l-7 -8l-10 -5l4 -4l20 5l27 16l21 20l12 18v9l7 4l-3 -4v-5l-11 -22v-8l-18 -18l-24 -14h-4l-23 -6h-40l-32 3l-8 -15zM76 852l-8 6l3 18l3 6l3 17v16l6 10l53 56l44 41l10 6 l2 13l10 4h7l5 -9l12 -7l3 -4l18 -9l7 -9l12 -11l2 -6l7 -3l20 -23l16 -14l6 -9l-1 -4l4 -2l-1 -8l5 -11l-1 -7l-21 -39l-14 -20l-18 14l-37 38l-25 33l-17 13l-9 -5l-4 -15l-22 -29l-2 -5l-5 -5l-5 -2l-4 -5l-4 -2l-5 -10l-23 -16l-11 -4z" glyph-name="Gcircumflex" horiz-adv-x="537" unicode=""/><glyph d="M236 12l-36 6l-38 16l-18 11l-22 20l-33 42l-17 31l-18 48l-13 44l-4 2l-15 98l-2 26l7 69l25 101l31 81l45 81l46 52l30 23l74 24l22 -1l26 3l45 -7l5 -2l7 -1l20 -14l18 -22l7 -15l9 -25l2 -14l4 -4l3 -14l4 -38l-2 -35h-5l-2 -11l-7 -13l-1 -14l2 -17l-20 -25l-15 -9 v-5l-15 -8l-6 -10l-8 -1l-2 -3l-8 -3l-1 -6l-4 1l-6 11l-6 67l2 20l-1 30l-8 38l-12 24l-9 12l-15 11l-12 -17l-20 -36l1 -6l-6 -9v-9l-9 -20l-6 -20l-7 -29l-4 -2l-7 -58l-4 -4l-2 -25l-4 -7l2 -37l-1 -77l3 -17l-1 -20l2 -5l-2 -23l3 -7l-1 -9l4 -8l-1 -14l3 -2l4 -12 l1 -13l5 -15v-8l3 -4l-2 -7l7 -20l9 -21l-1 -3l14 -25l20 -25l17 -11l22 -7l21 55l5 56l-7 86l1 11l-2 27l-12 -2l-5 2l-3 -3l-10 1l-1 -5l-23 -1l-13 12l3 14l5 11l8 9l2 15l10 9l-2 5l3 8l-2 4l3 4l4 -1v10l5 4v8l26 12l81 15l84 1l64 -16l-5 -21l-17 -37l-1 -10l-4 -5 l-6 -4l-1 -5l1 -6h-6l-1 -6l16 -10l-21 4l-5 2l-3 -16l-7 -2l-18 5l-4 -2l-10 2l-1 -5l2 -7v-5l2 -12l3 -6v-4l2 -6l5 -29l-3 -2l5 -10l1 -14l-7 -6l9 -2l-4 -24l-1 -16l-6 -1l4 -6v-6l-6 1l-4 -10l-1 -7l-4 1l-9 -15l1 -4l-8 -1l-39 -32l20 7l-1 -4l-8 -9l-18 -11l-7 -10 l-7 -2l-11 -9l-6 -2l-2 -3l-19 -5l-7 2l-3 -4l-8 -2l-4 3l-5 -4h-8l-5 -4l-21 -5l-29 -1l-8 1l-6 -5zM156 814l-8 6l3 18l3 6l3 17v16l6 10l53 56l44 41l10 6l2 13l10 4h7l5 -9l12 -7l3 -4l18 -9l7 -9l12 -11l2 -6l7 -3l20 -23l16 -14l6 -9l-1 -4l4 -2l-1 -8l5 -11l-1 -7 l-21 -39l-14 -20l-18 14l-37 38l-25 33l-17 13l-9 -5l-4 -15l-22 -29l-2 -5l-5 -5l-5 -2l-4 -5l-4 -2l-5 -10l-23 -16l-11 -4z" glyph-name="gcircumflex" horiz-adv-x="596" unicode=""/><glyph d="M259 27l-16 2l-10 4h-8l-2 -4l-1 6l-18 6l-14 10l-12 6l-6 6l-35 17l-39 40l-31 50l-14 33l-4 14l-7 11l-15 65l-4 23l-3 39v97l1 6v38l10 77v23l2 13l-2 12v21l12 65l14 29l20 27l32 32l12 3l1 3h4l2 4l38 18h24l9 4l58 4l53 -12l30 -14l11 -7l11 -5l19 -11l34 -33 l16 -27l4 -9l7 -11l3 -21l4 -7l2 -9l-2 -5l-13 -14l-8 -4l-4 -9l-3 -10l-4 -2l-6 -8v-20l6 -8v-6l-10 -4l-16 -18l-8 -2l-8 -7l-19 -13l-10 -5h-9l-7 -2l-7 10l-27 75l-5 21l-17 28l-13 10l-14 5l-16 -11l-2 -6l-6 -6l-6 -2v-8l-11 -11l-3 -7l-11 -9l-3 -8l-8 -4l-9 -18 l-1 -10l-4 -8v-21l-12 -22l3 -30l2 -64l-2 -5l2 -4v-26l2 -6v-16l3 -22l4 -17v-8l12 -44l6 -10l5 -13l1 -7l2 -3l20 -40l4 -3l14 -21l19 -15l4 -8l1 3l17 -9l4 -5l8 -1l12 -8l33 -4l3 20v85l-7 51l-6 24h-15l-4 -4h-8l-5 -6l-7 2h-18l-8 -5l-4 3l-2 6l-7 8v17l6 6l17 36v6 l6 5l2 9l4 7v5l8 14l14 15l28 14l27 8l12 6h8l6 4l27 6l21 2l25 4l14 -2l4 4h8l17 4l17 -4l3 -5l-3 -3v-16l-7 -23l-5 -6v-4l-2 -4h6v-6l4 -5l-4 -5h-4l-4 -3v-5l6 -3v-8l-5 -4l8 -9v-5l-11 -4l-10 -6l-2 -4h-18l-3 -3h-8l-4 -8l10 -20l15 -69v-51l-6 -6v-8l-4 -3v-5l-3 -8 l-6 -2l-5 -12v-10l-19 -12v-7l-7 -6l-7 -4v-16l-2 -7l-7 -12l-29 -27h-5l-2 -5l-9 -4l-2 -6l-8 -4l-7 -8l-10 -5l4 -4l20 5l27 16l21 20l12 18v9l7 4l-3 -4v-5l-11 -22v-8l-18 -18l-24 -14h-4l-23 -6h-40l-32 3l-8 -15zM158 866l-22 12l-22 21l-16 25l-9 41v15l8 10l2 6 l11 7l3 9l9 9v6l7 8l21 -3l13 -14l12 -19l6 -20l19 -28l16 -11h11l6 2l4 21l-4 44l5 3l3 6l11 13l13 12l7 4l17 -1l8 -6l21 -36l-2 -20l3 -4l-9 -32l-10 -10l-11 -19l-20 -15l-14 -13l-13 -3l-10 -6h-4l-20 -10l-22 -6z" glyph-name="Gbreve" horiz-adv-x="537" unicode=""/><glyph d="M236 12l-36 6l-38 16l-18 11l-22 20l-33 42l-17 31l-18 48l-13 44l-4 2l-15 98l-2 26l7 69l25 101l31 81l45 81l46 52l30 23l74 24l22 -1l26 3l45 -7l5 -2l7 -1l20 -14l18 -22l7 -15l9 -25l2 -14l4 -4l3 -14l4 -38l-2 -35h-5l-2 -11l-7 -13l-1 -14l2 -17l-20 -25l-15 -9 v-5l-15 -8l-6 -10l-8 -1l-2 -3l-8 -3l-1 -6l-4 1l-6 11l-6 67l2 20l-1 30l-8 38l-12 24l-9 12l-15 11l-12 -17l-20 -36l1 -6l-6 -9v-9l-9 -20l-6 -20l-7 -29l-4 -2l-7 -58l-4 -4l-2 -25l-4 -7l2 -37l-1 -77l3 -17l-1 -20l2 -5l-2 -23l3 -7l-1 -9l4 -8l-1 -14l3 -2l4 -12 l1 -13l5 -15v-8l3 -4l-2 -7l7 -20l9 -21l-1 -3l14 -25l20 -25l17 -11l22 -7l21 55l5 56l-7 86l1 11l-2 27l-12 -2l-5 2l-3 -3l-10 1l-1 -5l-23 -1l-13 12l3 14l5 11l8 9l2 15l10 9l-2 5l3 8l-2 4l3 4l4 -1v10l5 4v8l26 12l81 15l84 1l64 -16l-5 -21l-17 -37l-1 -10l-4 -5 l-6 -4l-1 -5l1 -6h-6l-1 -6l16 -10l-21 4l-5 2l-3 -16l-7 -2l-18 5l-4 -2l-10 2l-1 -5l2 -7v-5l2 -12l3 -6v-4l2 -6l5 -29l-3 -2l5 -10l1 -14l-7 -6l9 -2l-4 -24l-1 -16l-6 -1l4 -6v-6l-6 1l-4 -10l-1 -7l-4 1l-9 -15l1 -4l-8 -1l-39 -32l20 7l-1 -4l-8 -9l-18 -11l-7 -10 l-7 -2l-11 -9l-6 -2l-2 -3l-19 -5l-7 2l-3 -4l-8 -2l-4 3l-5 -4h-8l-5 -4l-21 -5l-29 -1l-8 1l-6 -5zM238 828l-22 12l-22 21l-16 25l-9 41v15l8 10l2 6l11 7l3 9l9 9v6l7 8l21 -3l13 -14l12 -19l6 -20l19 -28l16 -11h11l6 2l4 21l-4 44l5 3l3 6l11 13l13 12l7 4l17 -1l8 -6 l21 -36l-2 -20l3 -4l-9 -32l-10 -10l-11 -19l-20 -15l-14 -13l-13 -3l-10 -6h-4l-20 -10l-22 -6z" glyph-name="gbreve" horiz-adv-x="596" unicode=""/><glyph d="M259 27l-16 2l-10 4h-8l-2 -4l-1 6l-18 6l-14 10l-12 6l-6 6l-35 17l-39 40l-31 50l-14 33l-4 14l-7 11l-15 65l-4 23l-3 39v97l1 6v38l10 77v23l2 13l-2 12v21l12 65l14 29l20 27l32 32l12 3l1 3h4l2 4l38 18h24l9 4l58 4l53 -12l30 -14l11 -7l11 -5l19 -11l34 -33 l16 -27l4 -9l7 -11l3 -21l4 -7l2 -9l-2 -5l-13 -14l-8 -4l-4 -9l-3 -10l-4 -2l-6 -8v-20l6 -8v-6l-10 -4l-16 -18l-8 -2l-8 -7l-19 -13l-10 -5h-9l-7 -2l-7 10l-27 75l-5 21l-17 28l-13 10l-14 5l-16 -11l-2 -6l-6 -6l-6 -2v-8l-11 -11l-3 -7l-11 -9l-3 -8l-8 -4l-9 -18 l-1 -10l-4 -8v-21l-12 -22l3 -30l2 -64l-2 -5l2 -4v-26l2 -6v-16l3 -22l4 -17v-8l12 -44l6 -10l5 -13l1 -7l2 -3l20 -40l4 -3l14 -21l19 -15l4 -8l1 3l17 -9l4 -5l8 -1l12 -8l33 -4l3 20v85l-7 51l-6 24h-15l-4 -4h-8l-5 -6l-7 2h-18l-8 -5l-4 3l-2 6l-7 8v17l6 6l17 36v6 l6 5l2 9l4 7v5l8 14l14 15l28 14l27 8l12 6h8l6 4l27 6l21 2l25 4l14 -2l4 4h8l17 4l17 -4l3 -5l-3 -3v-16l-7 -23l-5 -6v-4l-2 -4h6v-6l4 -5l-4 -5h-4l-4 -3v-5l6 -3v-8l-5 -4l8 -9v-5l-11 -4l-10 -6l-2 -4h-18l-3 -3h-8l-4 -8l10 -20l15 -69v-51l-6 -6v-8l-4 -3v-5l-3 -8 l-6 -2l-5 -12v-10l-19 -12v-7l-7 -6l-7 -4v-16l-2 -7l-7 -12l-29 -27h-5l-2 -5l-9 -4l-2 -6l-8 -4l-7 -8l-10 -5l4 -4l20 5l27 16l21 20l12 18v9l7 4l-3 -4v-5l-11 -22v-8l-18 -18l-24 -14h-4l-23 -6h-40l-32 3l-8 -15zM172 879l-16 27l-5 5l-1 14l-3 5l-1 30l15 12l4 2 l7 -2l6 6l5 1l14 -3l17 11l10 -8l6 11l5 -3l3 -5v-9l12 -32l5 -28l5 -10v-8l-25 -11l-23 -5h-17l-17 -14z" glyph-name="Gdotaccent" horiz-adv-x="537" unicode=""/><glyph d="M236 12l-36 6l-38 16l-18 11l-22 20l-33 42l-17 31l-18 48l-13 44l-4 2l-15 98l-2 26l7 69l25 101l31 81l45 81l46 52l30 23l74 24l22 -1l26 3l45 -7l5 -2l7 -1l20 -14l18 -22l7 -15l9 -25l2 -14l4 -4l3 -14l4 -38l-2 -35h-5l-2 -11l-7 -13l-1 -14l2 -17l-20 -25l-15 -9 v-5l-15 -8l-6 -10l-8 -1l-2 -3l-8 -3l-1 -6l-4 1l-6 11l-6 67l2 20l-1 30l-8 38l-12 24l-9 12l-15 11l-12 -17l-20 -36l1 -6l-6 -9v-9l-9 -20l-6 -20l-7 -29l-4 -2l-7 -58l-4 -4l-2 -25l-4 -7l2 -37l-1 -77l3 -17l-1 -20l2 -5l-2 -23l3 -7l-1 -9l4 -8l-1 -14l3 -2l4 -12 l1 -13l5 -15v-8l3 -4l-2 -7l7 -20l9 -21l-1 -3l14 -25l20 -25l17 -11l22 -7l21 55l5 56l-7 86l1 11l-2 27l-12 -2l-5 2l-3 -3l-10 1l-1 -5l-23 -1l-13 12l3 14l5 11l8 9l2 15l10 9l-2 5l3 8l-2 4l3 4l4 -1v10l5 4v8l26 12l81 15l84 1l64 -16l-5 -21l-17 -37l-1 -10l-4 -5 l-6 -4l-1 -5l1 -6h-6l-1 -6l16 -10l-21 4l-5 2l-3 -16l-7 -2l-18 5l-4 -2l-10 2l-1 -5l2 -7v-5l2 -12l3 -6v-4l2 -6l5 -29l-3 -2l5 -10l1 -14l-7 -6l9 -2l-4 -24l-1 -16l-6 -1l4 -6v-6l-6 1l-4 -10l-1 -7l-4 1l-9 -15l1 -4l-8 -1l-39 -32l20 7l-1 -4l-8 -9l-18 -11l-7 -10 l-7 -2l-11 -9l-6 -2l-2 -3l-19 -5l-7 2l-3 -4l-8 -2l-4 3l-5 -4h-8l-5 -4l-21 -5l-29 -1l-8 1l-6 -5zM252 841l-16 27l-5 5l-1 14l-3 5l-1 30l15 12l4 2l7 -2l6 6l5 1l14 -3l17 11l10 -8l6 11l5 -3l3 -5v-9l12 -32l5 -28l5 -10v-8l-25 -11l-23 -5h-17l-17 -14z" glyph-name="gdotaccent" horiz-adv-x="596" unicode=""/><glyph d="M259 27l-16 2l-10 4h-8l-2 -4l-1 6l-18 6l-14 10l-12 6l-6 6l-35 17l-39 40l-31 50l-14 33l-4 14l-7 11l-15 65l-4 23l-3 39v97l1 6v38l10 77v23l2 13l-2 12v21l12 65l14 29l20 27l32 32l12 3l1 3h4l2 4l38 18h24l9 4l58 4l53 -12l30 -14l11 -7l11 -5l19 -11l34 -33 l16 -27l4 -9l7 -11l3 -21l4 -7l2 -9l-2 -5l-13 -14l-8 -4l-4 -9l-3 -10l-4 -2l-6 -8v-20l6 -8v-6l-10 -4l-16 -18l-8 -2l-8 -7l-19 -13l-10 -5h-9l-7 -2l-7 10l-27 75l-5 21l-17 28l-13 10l-14 5l-16 -11l-2 -6l-6 -6l-6 -2v-8l-11 -11l-3 -7l-11 -9l-3 -8l-8 -4l-9 -18 l-1 -10l-4 -8v-21l-12 -22l3 -30l2 -64l-2 -5l2 -4v-26l2 -6v-16l3 -22l4 -17v-8l12 -44l6 -10l5 -13l1 -7l2 -3l20 -40l4 -3l14 -21l19 -15l4 -8l1 3l17 -9l4 -5l8 -1l12 -8l33 -4l3 20v85l-7 51l-6 24h-15l-4 -4h-8l-5 -6l-7 2h-18l-8 -5l-4 3l-2 6l-7 8v17l6 6l17 36v6 l6 5l2 9l4 7v5l8 14l14 15l28 14l27 8l12 6h8l6 4l27 6l21 2l25 4l14 -2l4 4h8l17 4l17 -4l3 -5l-3 -3v-16l-7 -23l-5 -6v-4l-2 -4h6v-6l4 -5l-4 -5h-4l-4 -3v-5l6 -3v-8l-5 -4l8 -9v-5l-11 -4l-10 -6l-2 -4h-18l-3 -3h-8l-4 -8l10 -20l15 -69v-51l-6 -6v-8l-4 -3v-5l-3 -8 l-6 -2l-5 -12v-10l-19 -12v-7l-7 -6l-7 -4v-16l-2 -7l-7 -12l-29 -27h-5l-2 -5l-9 -4l-2 -6l-8 -4l-7 -8l-10 -5l4 -4l20 5l27 16l21 20l12 18v9l7 4l-3 -4v-5l-11 -22v-8l-18 -18l-24 -14h-4l-23 -6h-40l-32 3l-8 -15zM261 -270l13 51v35l-3 14l-10 6h-6l-8 7l-9 3l-34 29 l-4 11l6 16l15 13l4 9h4l1 4l11 10l10 16l5 3l1 4l10 12l8 14h7l19 -11l41 -28l20 -33l-10 -12l-2 -21l-11 -30l-3 -13l-18 -37l-30 -43l-19 -19z" glyph-name="Gcommaaccent" horiz-adv-x="537" unicode=""/><glyph d="M236 12l-36 6l-38 16l-18 11l-22 20l-33 42l-17 31l-18 48l-13 44l-4 2l-15 98l-2 26l7 69l25 101l31 81l45 81l46 52l30 23l74 24l22 -1l26 3l45 -7l5 -2l7 -1l20 -14l18 -22l7 -15l9 -25l2 -14l4 -4l3 -14l4 -38l-2 -35h-5l-2 -11l-7 -13l-1 -14l2 -17l-20 -25l-15 -9 v-5l-15 -8l-6 -10l-8 -1l-2 -3l-8 -3l-1 -6l-4 1l-6 11l-6 67l2 20l-1 30l-8 38l-12 24l-9 12l-15 11l-12 -17l-20 -36l1 -6l-6 -9v-9l-9 -20l-6 -20l-7 -29l-4 -2l-7 -58l-4 -4l-2 -25l-4 -7l2 -37l-1 -77l3 -17l-1 -20l2 -5l-2 -23l3 -7l-1 -9l4 -8l-1 -14l3 -2l4 -12 l1 -13l5 -15v-8l3 -4l-2 -7l7 -20l9 -21l-1 -3l14 -25l20 -25l17 -11l22 -7l21 55l5 56l-7 86l1 11l-2 27l-12 -2l-5 2l-3 -3l-10 1l-1 -5l-23 -1l-13 12l3 14l5 11l8 9l2 15l10 9l-2 5l3 8l-2 4l3 4l4 -1v10l5 4v8l26 12l81 15l84 1l64 -16l-5 -21l-17 -37l-1 -10l-4 -5 l-6 -4l-1 -5l1 -6h-6l-1 -6l16 -10l-21 4l-5 2l-3 -16l-7 -2l-18 5l-4 -2l-10 2l-1 -5l2 -7v-5l2 -12l3 -6v-4l2 -6l5 -29l-3 -2l5 -10l1 -14l-7 -6l9 -2l-4 -24l-1 -16l-6 -1l4 -6v-6l-6 1l-4 -10l-1 -7l-4 1l-9 -15l1 -4l-8 -1l-39 -32l20 7l-1 -4l-8 -9l-18 -11l-7 -10 l-7 -2l-11 -9l-6 -2l-2 -3l-19 -5l-7 2l-3 -4l-8 -2l-4 3l-5 -4h-8l-5 -4l-21 -5l-29 -1l-8 1l-6 -5zM275 -282l13 51v35l-3 14l-10 6h-6l-8 7l-9 3l-34 29l-4 11l6 16l15 13l4 9h4l1 4l11 10l10 16l5 3l1 4l10 12l8 14h7l19 -11l41 -28l20 -33l-10 -12l-2 -21l-11 -30 l-3 -13l-18 -37l-30 -43l-19 -19z" glyph-name="gcommaaccent" horiz-adv-x="596" unicode=""/><glyph d="M20 2l15 671l6 48l3 5v8l11 41l6 3h7l22 8l2 -3l17 5l3 3l15 2l17 6l5 5h9l5 5l11 -3l9 -6l2 -11v-11l2 -10l2 -22v-93l5 -37l2 -123h43l30 2h51v88l2 3l-2 3l5 126l4 15v11l7 45l4 7l6 2l3 -2h27l9 -2h5l4 2l7 -2h33l4 -3h14l21 -17l-4 -16l-3 -71l8 -215l-1 -12v-109 l2 -6v-120l-2 -9v-22l-2 -9v-14l-2 -9v-75l-4 -3v-11l-3 -9l-12 -15l-6 -11l-8 -11l-15 -8l-27 1l-13 4l-34 6l-12 4h-17l-2 27l-8 33l3 2l-4 4v60l2 6l8 180l-4 3l-122 -10v-22l-30 -288l-21 -9l-6 -4l-6 -7l-25 -3h-29l-18 -3l-5 2l-28 -4zM138 820l-8 6l3 18l3 6l3 17v16 l6 10l53 56l44 41l10 6l2 13l10 4h7l5 -9l12 -7l3 -4l18 -9l7 -9l12 -11l2 -6l7 -3l20 -23l16 -14l6 -9l-1 -4l4 -2l-1 -8l5 -11l-1 -7l-21 -39l-14 -20l-18 14l-37 38l-25 33l-17 13l-9 -5l-4 -15l-22 -29l-2 -5l-5 -5l-5 -2l-4 -5l-4 -2l-5 -10l-23 -16l-11 -4z" glyph-name="Hcircumflex" horiz-adv-x="495" unicode=""/><glyph d="M372 -28l-14 37l-2 3l-10 27v10l-5 27l-5 56l3 2l-4 8v28l-3 53v74l-6 2l-103 -1l-13 -4h-10l-3 -10v-63l2 -7l-2 -5l3 -26v-7l2 -4l4 -71l2 -5l-3 -3l3 -4l-2 -10l-6 -14l-6 -3l-3 -10l2 -13l7 -12l-12 -6l-12 -9l-18 -5l-11 -6l-15 -6l-8 -2l-7 -4h-12l-4 -3l-2 -10 l-2 10l-10 -2h-6l-12 7l-9 12l-19 34v7l-3 5l-11 64v190l-2 27v39l-5 76v141l7 69l1 23l8 47l7 16l11 8l8 1l16 7l11 -1l8 3l3 8h7l17 9h9l3 3h11l8 -14l11 -55v-25l4 -32v-16l2 -23l2 -9v-25l-2 -5l4 -19v-10l3 -32l4 -14v-45l2 -13h53l16 2h74l3 32l4 112l4 29v18l4 62 l5 32l2 4l-4 3l10 28l6 4l5 6l12 4l6 -3l5 5l21 -4l2 -4l3 7h10l2 4l11 -3l13 7l12 -4l4 5l10 -6l6 -8l2 -11l5 -61l2 -12l-2 -28v-4l4 -2l2 -45l2 -6l2 -82l-2 -5l2 -4v-46l-2 -5l2 -9v-14l1 -9v-4l2 -39l2 -5v-21l2 -7l-2 -12l4 -11l2 -27l-2 -19l4 -6l-4 -2l2 -3v-12 l4 -17l-2 -10l6 -57l-2 -11v-17l-2 -6v-19l-2 -5l4 -2l-2 -10l2 -3l-6 -4v-4l4 1v-5l-4 -9l2 -8v-12h-4v-8l4 3l-4 -12l-8 -11v-4l-3 -3v-6l-4 -12l-2 -19l-5 -2l-5 7l-2 -7l-3 2v-4h-4l-29 -11l-3 2l-4 -4l-14 -5h-21l-3 -2h-22zM132 784l-8 6l3 18l3 6l3 17v16l6 10l53 56 l44 41l10 6l2 13l10 4h7l5 -9l12 -7l3 -4l18 -9l7 -9l12 -11l2 -6l7 -3l20 -23l16 -14l6 -9l-1 -4l4 -2l-1 -8l5 -11l-1 -7l-21 -39l-14 -20l-18 14l-37 38l-25 33l-17 13l-9 -5l-4 -15l-22 -29l-2 -5l-5 -5l-5 -2l-4 -5l-4 -2l-5 -10l-23 -16l-11 -4z" glyph-name="hcircumflex" horiz-adv-x="540" unicode=""/><glyph d="M20 2l15 671l6 48l3 5v8l11 41l6 3h7l22 8l2 -3l17 5l3 3l15 2l17 6l5 5h9l5 5l11 -3l9 -6l2 -11v-11l2 -10l2 -22v-54l29 5h106l1 18l4 15v11l7 45l4 7l6 2l3 -2h27l9 -2h5l4 2l7 -2h33l4 -3h14l21 -17l-4 -16l-3 -71l8 -215l-1 -12v-109l2 -6v-120l-2 -9v-22l-2 -9v-14 l-2 -9v-75l-4 -3v-11l-3 -9l-12 -15l-6 -11l-8 -11l-15 -8l-27 1l-13 4l-34 6l-12 4h-17l-2 27l-8 33l3 2l-4 4v60l2 6l8 180l-4 3l-122 -10v-22l-30 -288l-21 -9l-6 -4l-6 -7l-25 -3h-29l-18 -3l-5 2l-28 -4zM322 586l-2 3v18l-51 -1l-12 2l-6 -3l-4 3h-23l-8 -2h-22 l2 -113h43l30 2h51v88z" glyph-name="Hbar" horiz-adv-x="495" unicode=""/><glyph d="M372 -28l-14 37l-2 3l-10 27v10l-5 27l-5 56l3 2l-4 8v28l-3 53v74l-6 2l-103 -1l-13 -4h-10l-3 -10v-63l2 -7l-2 -5l3 -26v-7l2 -4l4 -71l2 -5l-3 -3l3 -4l-2 -10l-6 -14l-6 -3l-3 -10l2 -13l7 -12l-12 -6l-12 -9l-18 -5l-11 -6l-15 -6l-8 -2l-7 -4h-12l-4 -3l-2 -10 l-2 10l-10 -2h-6l-12 7l-9 12l-19 34v7l-3 5l-11 64v190l-2 27v39l-5 76v141l7 69l1 23l8 47l7 16l11 8l8 1l16 7l11 -1l8 3l3 8h7l17 9h9l3 3h11l8 -14l11 -55v-25l48 8h105l23 -2l6 38l2 4l-4 3l10 28l6 4l5 6l12 4l6 -3l5 5l21 -4l2 -4l3 7h10l2 4l11 -3l13 7l12 -4l4 5 l10 -6l6 -8l2 -11l5 -61l2 -12l-2 -28v-4l4 -2l2 -45l2 -6l2 -82l-2 -5l2 -4v-46l-2 -5l2 -9v-14l1 -9v-4l2 -39l2 -5v-21l2 -7l-2 -12l4 -11l2 -27l-2 -19l4 -6l-4 -2l2 -3v-12l4 -17l-2 -10l6 -57l-2 -11v-17l-2 -6v-19l-2 -5l4 -2l-2 -10l2 -3l-6 -4v-4l4 1v-5l-4 -9 l2 -8v-12h-4v-8l4 3l-4 -12l-8 -11v-4l-3 -3v-6l-4 -12l-2 -19l-5 -2l-5 7l-2 -7l-3 2v-4h-4l-29 -11l-3 2l-4 -4l-14 -5h-21l-3 -2h-22zM331 476l4 112l2 16l-72 -2l-12 2l-6 -3l-4 3h-23l-8 -2h-35l-3 1v-23l-2 -5l4 -19v-10l3 -32l4 -14v-45l2 -13h53l16 2h74z" glyph-name="hbar" horiz-adv-x="540" unicode=""/><glyph d="M28 2l-3 22v7l-5 23l18 698l3 4l11 -1l6 8l6 -1l39 10l4 4l10 1l9 8l16 5l4 -3l6 2l16 -15l11 -152l-2 -38l2 -8l-5 -477l-7 -6v-5l-11 -21l-5 -33l-5 -7l-15 -7l-15 -5l-14 1l-5 -2h-8l-6 -3l-28 -7h-7l-8 -4h-4l-4 -11zM125 812l-27 2l-14 6l-11 9l-29 32l-15 9h-6 l-5 -3l-3 -11l-4 -5l3 -6v-5l-7 -3v-4l-5 -6h-24l-11 2l-4 8l-9 11l-7 14l-3 11l1 29l12 33l20 19l20 9l14 2h24l39 -14v-4l6 -2l18 -14l1 -3l3 -1l6 -7l4 -2l2 -4h4l-1 -5l13 -12l13 10l7 12l6 22h5l7 23l4 -4h6l3 -2l37 -4l6 -3l3 -4h4l1 -10l-2 -14l2 -3l-10 -38l-7 -15 l-8 -10l-2 -14l-6 -3l-12 -13l-31 -15h-8l-8 3z" glyph-name="Itilde" horiz-adv-x="199" unicode=""/><glyph d="M58 3l-14 32l-4 21l-12 25l-7 36l-1 19l18 537l-2 46l5 59l8 12l14 6h10l4 3l8 -1l3 2l9 -4l6 3l4 -3l3 5l6 -2l4 1v-4l7 8l8 -1l2 3h4l5 -5l3 8l16 -3l13 -17l12 -39l11 -60l2 -42l-2 -9l-4 -2l3 -5l-3 -32v-74l1 -5v-10l1 -7l-1 -14l-3 -4l1 -14l-2 -8l-1 -66l1 -7 l-2 -31l2 -9l-3 -2l3 -9l-2 -18l2 -3l-2 -14l4 -43l3 -103l-1 -5l1 -8l-3 -3l5 -5l-1 -9l3 -18l-3 -3v-5l3 -3v-5l-8 -2l-1 -5l-10 -12l-1 -9l-6 -16l2 -29l-5 -3l-8 3v-8l-13 1l-11 -6l-26 -4zM149 816l-27 2l-14 6l-11 9l-29 32l-15 9h-6l-5 -3l-3 -11l-4 -5l3 -6v-5 l-7 -3v-4l-5 -6h-24l-11 2l-4 8l-9 11l-7 14l-3 11l1 29l12 33l20 19l20 9l14 2h24l39 -14v-4l6 -2l18 -14l1 -3l3 -1l6 -7l4 -2l2 -4h4l-1 -5l13 -12l13 10l7 12l6 22h5l7 23l4 -4h6l3 -2l37 -4l6 -3l3 -4h4l1 -10l-2 -14l2 -3l-10 -38l-7 -15l-8 -10l-2 -14l-6 -3l-12 -13 l-31 -15h-8l-8 3z" glyph-name="itilde" horiz-adv-x="223" unicode=""/><glyph d="M28 2l-3 22v7l-5 23l18 698l3 4l11 -1l6 8l6 -1l39 10l4 4l10 1l9 8l16 5l4 -3l6 2l16 -15l11 -152l-2 -38l2 -8l-5 -477l-7 -6v-5l-11 -21l-5 -33l-5 -7l-15 -7l-15 -5l-14 1l-5 -2h-8l-6 -3l-28 -7h-7l-8 -4h-4l-4 -11zM3 820h-24v4l-7 5l-4 6l1 21l2 8l5 5l-4 2l3 3v4 l-3 2l4 2v5l-3 5l5 6l68 11h105l62 -4l-1 -24l-9 -45l2 -3l-13 -5l1 -4l-4 -2h-15l-3 -2l-74 -2l-12 2l-6 -3l-4 3h-23l-8 -2h-35z" glyph-name="Imacron" horiz-adv-x="199" unicode=""/><glyph d="M58 3l-14 32l-4 21l-12 25l-7 36l-1 19l18 537l-2 46l5 59l8 12l14 6h10l4 3l8 -1l3 2l9 -4l6 3l4 -3l3 5l6 -2l4 1v-4l7 8l8 -1l2 3h4l5 -5l3 8l16 -3l13 -17l12 -39l11 -60l2 -42l-2 -9l-4 -2l3 -5l-3 -32v-74l1 -5v-10l1 -7l-1 -14l-3 -4l1 -14l-2 -8l-1 -66l1 -7 l-2 -31l2 -9l-3 -2l3 -9l-2 -18l2 -3l-2 -14l4 -43l3 -103l-1 -5l1 -8l-3 -3l5 -5l-1 -9l3 -18l-3 -3v-5l3 -3v-5l-8 -2l-1 -5l-10 -12l-1 -9l-6 -16l2 -29l-5 -3l-8 3v-8l-13 1l-11 -6l-26 -4zM24 828h-24v4l-7 5l-4 6l1 21l2 8l5 5l-4 2l3 3v4l-3 2l4 2v5l-3 5l5 6l68 11 h105l62 -4l-1 -24l-9 -45l2 -3l-13 -5l1 -4l-4 -2h-15l-3 -2l-74 -2l-12 2l-6 -3l-4 3h-23l-8 -2h-35z" glyph-name="imacron" horiz-adv-x="223" unicode=""/><glyph d="M28 2l-3 22v7l-5 23l18 698l3 4l11 -1l6 8l6 -1l39 10l4 4l10 1l9 8l16 5l4 -3l6 2l16 -15l11 -152l-2 -38l2 -8l-5 -477l-7 -6v-5l-11 -21l-5 -33l-5 -7l-15 -7l-15 -5l-14 1l-5 -2h-8l-6 -3l-28 -7h-7l-8 -4h-4l-4 -11zM52 814l-22 12l-22 21l-16 25l-9 41v15l8 10l2 6 l11 7l3 9l9 9v6l7 8l21 -3l13 -14l12 -19l6 -20l19 -28l16 -11h11l6 2l4 21l-4 44l5 3l3 6l11 13l13 12l7 4l17 -1l8 -6l21 -36l-2 -20l3 -4l-9 -32l-10 -10l-11 -19l-20 -15l-14 -13l-13 -3l-10 -6h-4l-20 -10l-22 -6z" glyph-name="Ibreve" horiz-adv-x="199" unicode=""/><glyph d="M58 3l-14 32l-4 21l-12 25l-7 36l-1 19l18 537l-2 46l5 59l8 12l14 6h10l4 3l8 -1l3 2l9 -4l6 3l4 -3l3 5l6 -2l4 1v-4l7 8l8 -1l2 3h4l5 -5l3 8l16 -3l13 -17l12 -39l11 -60l2 -42l-2 -9l-4 -2l3 -5l-3 -32v-74l1 -5v-10l1 -7l-1 -14l-3 -4l1 -14l-2 -8l-1 -66l1 -7 l-2 -31l2 -9l-3 -2l3 -9l-2 -18l2 -3l-2 -14l4 -43l3 -103l-1 -5l1 -8l-3 -3l5 -5l-1 -9l3 -18l-3 -3v-5l3 -3v-5l-8 -2l-1 -5l-10 -12l-1 -9l-6 -16l2 -29l-5 -3l-8 3v-8l-13 1l-11 -6l-26 -4zM66 826l-22 12l-22 21l-16 25l-9 41v15l8 10l2 6l11 7l3 9l9 9v6l7 8l21 -3 l13 -14l12 -19l6 -20l19 -28l16 -11h11l6 2l4 21l-4 44l5 3l3 6l11 13l13 12l7 4l17 -1l8 -6l21 -36l-2 -20l3 -4l-9 -32l-10 -10l-11 -19l-20 -15l-14 -13l-13 -3l-10 -6h-4l-20 -10l-22 -6z" glyph-name="ibreve" horiz-adv-x="223" unicode=""/><glyph d="M141 -173l-14 -1l-2 -3l-33 9l-13 8l-8 10l-10 26l-3 4l-5 34l2 90h-7l-8 -4h-4l-4 -11l-4 13l-3 22v7l-5 23l18 698l3 4l11 -1l6 8l6 -1l39 10l4 4l10 1l9 8l16 5l4 -3l6 2l16 -15l11 -152l-2 -38l2 -8l-5 -477l-7 -6v-5l-11 -21l-5 -33l-5 -7l-10 -5l10 -114h24l17 6 l22 13l21 19l13 -11l1 -24l-4 -9l-3 -15l-5 -7v-4l-3 -5v-6l-3 -4v-4l-4 -7l-11 -9l-7 -3l-2 -4l-25 -7l-8 -4h-20z" glyph-name="Iogonek" horiz-adv-x="199" unicode=""/><glyph d="M58 3l-14 32l-4 21l-12 25l-7 36l-1 19l18 537l-2 46l5 59l8 12l14 6h10l4 3l8 -1l3 2l9 -4l6 3l4 -3l3 5l6 -2l4 1v-4l7 8l8 -1l2 3h4l5 -5l3 8l16 -3l13 -17l12 -39l11 -60l2 -42l-2 -9l-4 -2l3 -5l-3 -32v-74l1 -5v-10l1 -7l-1 -14l-3 -4l1 -14l-2 -8l-1 -66l1 -7 l-2 -31l2 -9l-3 -2l3 -9l-2 -18l2 -3l-2 -14l4 -43l3 -103l-1 -5l1 -8l-3 -3l5 -5l-1 -9l3 -18l-3 -3v-5l3 -3v-5l-8 -2l-1 -5l-10 -12l-1 -9l-6 -16l2 -29l-5 -3l-8 3v-8l-13 1l-3 -2l10 -105h24l17 6l22 13l21 19l13 -11l1 -24l-4 -9l-3 -15l-5 -7v-4l-3 -5v-6l-3 -4v-4 l-4 -7l-11 -9l-7 -3l-2 -4l-25 -7l-8 -4h-20l-8 4l-14 -1l-2 -3l-33 9l-13 8l-8 10l-10 26l-3 4l-4 34v53l3 36h-13z" glyph-name="iogonek" horiz-adv-x="223" unicode=""/><glyph d="M28 2l-3 22v7l-5 23l18 698l3 4l11 -1l6 8l6 -1l39 10l4 4l10 1l9 8l16 5l4 -3l6 2l16 -15l11 -152l-2 -38l2 -8l-5 -477l-7 -6v-5l-11 -21l-5 -33l-5 -7l-15 -7l-15 -5l-14 1l-5 -2h-8l-6 -3l-28 -7h-7l-8 -4h-4l-4 -11zM66 827l-16 27l-5 5l-1 14l-3 5l-1 30l15 12l4 2 l7 -2l6 6l5 1l14 -3l17 11l10 -8l6 11l5 -3l3 -5v-9l12 -32l5 -28l5 -10v-8l-25 -11l-23 -5h-17l-17 -14z" glyph-name="Idotaccent" horiz-adv-x="199" unicode=""/><glyph d="M58 3l-14 32l-4 21l-12 25l-7 36l-1 19l18 537l-2 46l5 59l8 12l14 6h10l4 3l8 -1l3 2l9 -4l6 3l4 -3l3 5l6 -2l4 1v-4l7 8l8 -1l2 3h4l5 -5l3 8l16 -3l13 -17l12 -39l11 -60l2 -42l-2 -9l-4 -2l3 -5l-3 -32v-74l1 -5v-10l1 -7l-1 -14l-3 -4l1 -14l-2 -8l-1 -66l1 -7 l-2 -31l2 -9l-3 -2l3 -9l-2 -18l2 -3l-2 -14l4 -43l3 -103l-1 -5l1 -8l-3 -3l5 -5l-1 -9l3 -18l-3 -3v-5l3 -3v-5l-8 -2l-1 -5l-10 -12l-1 -9l-6 -16l2 -29l-5 -3l-8 3v-8l-13 1l-11 -6l-26 -4z" glyph-name="dotlessi" horiz-adv-x="223" unicode=""/><glyph d="M28 2l-3 22v7l-5 23l18 698l3 4l11 -1l6 8l6 -1l39 10l4 4l10 1l9 8l16 5l4 -3l6 2l16 -15l11 -152l-2 -38l2 -8l-5 -477l-7 -6v-5l-11 -21l-5 -33l-5 -7l-15 -7l-15 -5l-14 1l-5 -2h-8l-6 -3l-28 -7h-7l-8 -4h-4l-4 -11zM533 42l-3 3l-3 -5l-9 -10l-17 -7l-24 1l-22 -6 l-9 -7l-25 -4l-6 3h-17l-19 -4l-13 5l-11 6l-10 1l-9 4h-5l-19 12l-27 28l-2 4l-6 7l-33 51l-5 17v9l-5 5l-15 56l1 36l10 10l1 4l10 6h4l12 13l12 5l19 15l6 -2v-4l9 12l3 12l4 -2h8l2 10l3 -2h6l4 -9v-6l19 -52l19 -41l27 -38l20 -14l32 -16h10l6 78v242l-6 77l1 122l8 91 l4 27l7 4h4l6 5l16 -2l3 4l11 2h15l4 -3h20l11 4l11 2l7 5l10 -10l8 -45l5 -139l9 -72l2 -55l2 -20l1 -30l3 -23l8 -105v-71l-5 -33l-7 -22l-32 -56l-2 -9l-10 -14l-12 -7l-4 -9l-5 -5l-6 -14l8 3h4l26 23l3 -3l-31 -27l2 4l-11 -8l-2 3l-9 -9l-13 -7zM545 48l4 2l6 7v-4 l-4 -7h-4l-4 -4h-6z" glyph-name="IJ" horiz-adv-x="656" unicode=""/><glyph d="M58 3l-14 32l-4 21l-12 25l-7 36l-1 19l18 537l-2 46l5 59l8 12l14 6h10l4 3l8 -1l3 2l9 -4l6 3l4 -3l3 5l6 -2l4 1v-4l7 8l8 -1l2 3h4l5 -5l3 8l16 -3l13 -17l12 -39l11 -60l2 -42l-2 -9l-4 -2l3 -5l-3 -32v-74l1 -5v-10l1 -7l-1 -14l-3 -4l1 -14l-2 -8l-1 -66l1 -7 l-2 -31l2 -9l-3 -2l3 -9l-2 -18l2 -3l-2 -14l4 -43l3 -103l-1 -5l1 -8l-3 -3l5 -5l-1 -9l3 -18l-3 -3v-5l3 -3v-5l-8 -2l-1 -5l-10 -12l-1 -9l-6 -16l2 -29l-5 -3l-8 3v-8l-13 1l-11 -6l-26 -4zM566 -6l-24 -9l-25 -6l-39 4l-16 -2l-13 6l-21 6l-8 4l-25 6l-32 3l-22 19 l-27 12l-5 -4h-4l-4 -1l-2 6l-4 -4l-18 12l-6 7l-2 -4l-15 14l-2 23l-5 15v16l-2 8l-2 52l7 49l19 76l14 14l6 4h14l8 -5l9 4l4 -4l13 -6l16 -5l4 -4l16 -5l6 -6h5l4 -4l-4 -114l7 -81l12 -46l8 2l40 24l45 75l-7 567l5 53l6 10l11 5h9l3 3l5 -1l22 2l8 -4l5 3l2 -3l3 5 l4 -2l4 1v-4l6 7l6 -1l5 3l4 -4l3 7l12 -3l11 -15l9 -36l9 -54l2 -36l-2 -8l-3 -2l3 -4l-3 -30v-66l1 -4v-9l1 -6l-1 -12l3 -262l-2 -35l-10 -77l-1 -25l-5 -17l-1 -3l-10 -36l-4 -4l-13 -25z" glyph-name="ij" horiz-adv-x="663" unicode=""/><glyph d="M334 42l-3 3l-3 -5l-9 -10l-17 -7l-24 1l-22 -6l-9 -7l-25 -4l-6 3h-17l-19 -4l-13 5l-11 6l-10 1l-9 4h-5l-19 12l-27 28l-2 4l-6 7l-33 51l-5 17v9l-5 5l-15 56l1 36l10 10l1 4l10 6h4l12 13l12 5l19 15l6 -2v-4l9 12l3 12l4 -2h8l2 10l3 -2h6l4 -9v-6l19 -52l19 -41 l27 -38l20 -14l32 -16h10l6 78v242l-6 77l1 122l8 91l4 27l7 4h4l6 5l16 -2l3 4l11 2h15l4 -3h20l11 4l11 2l7 5l10 -10l8 -45l5 -139l9 -72l2 -55l2 -20l1 -30l3 -23l8 -105v-71l-5 -33l-7 -22l-32 -56l-2 -9l-10 -14l-12 -7l-4 -9l-5 -5l-6 -14l8 3h4l26 23l3 -3l-31 -27 l2 4l-11 -8l-2 3l-9 -9l-13 -7zM346 48l4 2l6 7v-4l-4 -7h-4l-4 -4h-6zM204 826l-8 6l3 18l3 6l3 17v16l6 10l53 56l44 41l10 6l2 13l10 4h7l5 -9l12 -7l3 -4l18 -9l7 -9l12 -11l2 -6l7 -3l20 -23l16 -14l6 -9l-1 -4l4 -2l-1 -8l5 -11l-1 -7l-21 -39l-14 -20l-18 14l-37 38 l-25 33l-17 13l-9 -5l-4 -15l-22 -29l-2 -5l-5 -5l-5 -2l-4 -5l-4 -2l-5 -10l-23 -16l-11 -4z" glyph-name="Jcircumflex" horiz-adv-x="457" unicode=""/><glyph d="M343 -6l-24 -9l-25 -6l-39 4l-16 -2l-13 6l-21 6l-8 4l-25 6l-32 3l-22 19l-27 12l-5 -4h-4l-4 -1l-2 6l-4 -4l-18 12l-6 7l-2 -4l-15 14l-2 23l-5 15v16l-2 8l-2 52l7 49l19 76l14 14l6 4h14l8 -5l9 4l4 -4l13 -6l16 -5l4 -4l16 -5l6 -6h5l4 -4l-4 -114l7 -81l12 -46 l8 2l40 24l45 75l-7 567l5 53l6 10l11 5h9l3 3l5 -1l22 2l8 -4l5 3l2 -3l3 5l4 -2l4 1v-4l6 7l6 -1l5 3l4 -4l3 7l12 -3l11 -15l9 -36l9 -54l2 -36l-2 -8l-3 -2l3 -4l-3 -30v-66l1 -4v-9l1 -6l-1 -12l3 -262l-2 -35l-10 -77l-1 -25l-5 -17l-1 -3l-10 -36l-4 -4l-13 -25z M220 798l-8 6l3 18l3 6l3 17v16l6 10l53 56l44 41l10 6l2 13l10 4h7l5 -9l12 -7l3 -4l18 -9l7 -9l12 -11l2 -6l7 -3l20 -23l16 -14l6 -9l-1 -4l4 -2l-1 -8l5 -11l-1 -7l-21 -39l-14 -20l-18 14l-37 38l-25 33l-17 13l-9 -5l-4 -15l-22 -29l-2 -5l-5 -5l-5 -2l-4 -5l-4 -2 l-5 -10l-23 -16l-11 -4z" glyph-name="jcircumflex" horiz-adv-x="440" unicode=""/><glyph d="M388 7h-31l-14 8l-17 15l-12 20l-8 18l-9 26l-4 35l-4 10v160l-4 22l-8 18l-15 21l-19 15l-32 12h-5v4l-11 -2l-2 -34l-4 -6l-2 -54l3 -2l-4 -13v-42l3 -10l-4 -61l1 -15v-37l-6 -7v-11l-4 -14v-23l4 -12l-4 -3l-18 -7h-7l-4 -4l-23 -7l-17 -3h-40l-7 4l-10 23l-11 48v19 l-3 4v30l-9 126v123l2 5l-2 6v27l-4 57v86l-3 41l5 131l7 50l6 7l9 2l3 4h6l4 -2h12l8 -2h14l8 4h14l8 3h4l6 4h8l7 -5l3 -10v-8l4 -15l15 -181l-4 -6l7 -7v-16l5 -17l72 68l14 18l129 137l6 4l26 25l8 4l11 16l11 5l4 -31l3 -4v-17l2 -4v-28l5 -6l-5 -10v-15h5l11 -8v-7 l-16 -10l-7 -7l-4 -11l-6 -1l-2 -6l-8 -5l-6 -7l-4 -2l-6 -13l-6 -3l-4 -5l-10 -9l-2 -5l-4 -2l-2 -3h-5l-3 -9l-18 -24l-5 -4v-4l-9 -8l-7 -8l-3 -8l-9 -9l-2 -3h-4l-8 -11l-6 -5l-11 -15l-7 2v-7l-3 -2l47 -19l14 -8l15 -11l20 -21l8 -7l3 -9l9 -9l4 -8l7 -7l2 -8l3 -3 l6 -14l10 -35l-2 -14l2 -16l3 -4l6 -33l-3 -13l-2 -3l2 -14l4 -4v-40l-2 -8v-9h4v-16l5 -12l-1 -20l-3 -4l5 -6l1 -9l12 -11l8 -3h20l26 12l4 -2l-29 -31l-33 -30l-19 -10l-12 -9zM223 -272l13 51v35l-3 14l-10 6h-6l-8 7l-9 3l-34 29l-4 11l6 16l15 13l4 9h4l1 4l11 10 l10 16l5 3l1 4l10 12l8 14h7l19 -11l41 -28l20 -33l-10 -12l-2 -21l-11 -30l-3 -13l-18 -37l-30 -43l-19 -19z" glyph-name="Kcommaaccent" horiz-adv-x="551" unicode=""/><glyph d="M38 1q-2 158 -16 719q0 7 -2 23l2 20l7 7h8l4 4q23 6 25 6l3 3h14l7 4l18 6q2 0 6.5 -0.5t6.5 -0.5q2 1 5.5 2.5t5.5 2.5h10q5 -14 13 -42q1 -2 1.5 -6.5t0.5 -5.5q1 -6 5 -19t5 -20v-18l-1 -2v-2l4 -8q1 -12 4 -35t4 -35v-58l48 42q5 7 15 18t13 15l9 4l2 3l36 37 q59 72 115 139l10 4q1 -2 2 -5.5t2 -5.5l13 -48v-8l5 -7l-5 -6l1 -8l3 -2l3 -6l10 -5l1 -3l-15 -22v-7l-9 -5l-9 -15t-10 -15l-6 -8q-6 -7 -16 -23l-7 -7l-32 -46v-4l-7 -4l-6 -11l-5 -6l-1 -5l-10 -9l-4 -5l-7 -5l-29 -40l-8 -7v-5q2 -1 9 -5t12 -7l9 -6l10 -4l12 -14l3 -2 l6 -8l15 -16l9 -16v-4q1 -2 11 -18.5t13 -25.5v-15l4 -3l1 -8l5 -7l4 -9l1 -3l4 -20v-8l4 -9q1 -2 2.5 -5.5t2.5 -5.5l-1 -4l3 -9l2 -10v-10l4 -7l1 -3l6 -20l-1 -8l6 -18l13 -23h5l2 -4l7 -7h18l24 11l3 -2l-15 -15l-4 -7q-5 -5 -27 -32q-3 -3 -11 -10.5t-12 -12.5l-28 -21 l-1 -11l-4 -5l-7 -3l-8 2l-4 4q-3 0 -9.5 -2t-8.5 -2l-12 4q-5 6 -17 16h-4q-1 2 -17 23q-14 27 -15 31q-2 8 -6.5 23.5t-6.5 23.5l-4 9l-4 21q-2 8 -7.5 33.5t-9.5 39.5q-9 27 -23 62l-1 3l-6 9q-2 4 -8 10.5t-8 9.5q-3 3 -9.5 7t-9.5 6l-7 4l-10 1v-11q0 -2 0.5 -5t0.5 -4 q-1 -14 -1 -43q0 -28 -1 -42q0 -7 1 -21t1 -21q0 -4 -0.5 -13t-0.5 -13q2 -14 2 -20l-4 -21l2 -32l-9 -11l-2 -7v-6l-6 -4l-3 1h-7l-2 -7l-5 -7l-4 -10q0 -7 -2 -21l-19 -4l-12 -8l-20 -8h-8l-5 -4h-7l-9 -4l-9 2q-6 -7 -14 -11zM227 -304l13 51v35l-3 14l-10 6h-6l-8 7 l-9 3l-34 29l-4 11l6 16l15 13l4 9h4l1 4l11 10l10 16l5 3l1 4l10 12l8 14h7l19 -11l41 -28l20 -33l-10 -12l-2 -21l-11 -30l-3 -13l-18 -37l-30 -43l-19 -19z" glyph-name="kcommaaccent" horiz-adv-x="529" unicode=""/><glyph d="M38 1q-2 158 -16 719q0 7 -2 23l2 20l7 7h8l4 4q23 6 25 6l3 3h14l7 4l18 6q2 0 6.5 -0.5t6.5 -0.5q2 1 5.5 2.5t5.5 2.5h10q5 -14 13 -42q1 -2 1.5 -6.5t0.5 -5.5q1 -6 5 -19t5 -20v-18l-1 -2v-2l4 -8q1 -12 4 -35t4 -35v-58l48 42q5 7 15 18t13 15l9 4l2 3l36 37 q59 72 115 139l10 4q1 -2 2 -5.5t2 -5.5l13 -48v-8l5 -7l-5 -6l1 -8l3 -2l3 -6l10 -5l1 -3l-15 -22v-7l-9 -5l-9 -15t-10 -15l-6 -8q-6 -7 -16 -23l-7 -7l-32 -46v-4l-7 -4l-6 -11l-5 -6l-1 -5l-10 -9l-4 -5l-7 -5l-29 -40l-8 -7v-5q2 -1 9 -5t12 -7l9 -6l10 -4l12 -14l3 -2 l6 -8l15 -16l9 -16v-4q1 -2 11 -18.5t13 -25.5v-15l4 -3l1 -8l5 -7l4 -9l1 -3l4 -20v-8l4 -9q1 -2 2.5 -5.5t2.5 -5.5l-1 -4l3 -9l2 -10v-10l4 -7l1 -3l6 -20l-1 -8l6 -18l13 -23h5l2 -4l7 -7h18l24 11l3 -2l-15 -15l-4 -7q-5 -5 -27 -32q-3 -3 -11 -10.5t-12 -12.5l-28 -21 l-1 -11l-4 -5l-7 -3l-8 2l-4 4q-3 0 -9.5 -2t-8.5 -2l-12 4q-5 6 -17 16h-4q-1 2 -17 23q-14 27 -15 31q-2 8 -6.5 23.5t-6.5 23.5l-4 9l-4 21q-2 8 -7.5 33.5t-9.5 39.5q-9 27 -23 62l-1 3l-6 9q-2 4 -8 10.5t-8 9.5q-3 3 -9.5 7t-9.5 6l-7 4l-10 1v-11q0 -2 0.5 -5t0.5 -4 q-1 -14 -1 -43q0 -28 -1 -42q0 -7 1 -21t1 -21q0 -4 -0.5 -13t-0.5 -13q2 -14 2 -20l-4 -21l2 -32l-9 -11l-2 -7v-6l-6 -4l-3 1h-7l-2 -7l-5 -7l-4 -10q0 -7 -2 -21l-19 -4l-12 -8l-20 -8h-8l-5 -4h-7l-9 -4l-9 2q-6 -7 -14 -11z" glyph-name="kgreenlandic" horiz-adv-x="529" unicode=""/><glyph d="M52 2l-8 5l-6 2l-5 6l-13 689l22 63l4 4l5 2l11 7l15 4l15 7l22 4l4 -2h11l2 7l11 -5h8l2 -4l12 -12l5 -15v-17l4 -32l-1 -15l4 -21l-4 -6l5 -11l-1 -39l3 -43v-22l2 -5l-4 -44l-2 -3l2 -4l-1 -38l-2 -5l2 -14l-1 -34l-2 -10l5 -34l-2 -56l5 -8l-3 -8l-1 -16l2 -6l1 -56 l2 -8l4 -53l28 4l40 3h77l29 2l4 -6l-3 -6l2 -4l-1 -22l-4 -11v-14l-18 -54l-14 -6l-31 -20l-13 -4h-15l-4 -3h-19l-7 -2h-19l-6 -2h-9l-4 -2l-21 2l-4 -2h-22l-4 -2l-74 -1l-7 -4h-15zM-6 816l-8 10l2 5l-4 2v6l20 18l13 21l25 30l25 19l33 18l15 6l4 6l19 -2l20 -9l22 -24 v-4l-6 -15l-28 -38l-10 -1l-6 -5l-19 -1l-38 -15l-19 -3l-48 -21l-9 -9z" glyph-name="Lacute" horiz-adv-x="384" unicode=""/><glyph d="M116 -14l-25 2l-13 -6l-18 7l-3 -1h-10l-2 3h-4l-11 11l1 9l3 99l-6 96v31l-6 67l-1 28l1 38l-2 18l7 31l4 160l13 144l6 25l6 7l12 1h20l22 5h11l24 2l9 6l6 -1l6 -6l5 -32l3 -52l-1 -28l2 -9l1 -32l-2 -4l2 -16l-1 -33l3 -4l-6 -72l-4 -12l-2 -101l-5 -3l5 -40v-102 l2 -4l4 -43l-2 -36l-5 -43l158 4l6 -3h13l2 -18v-12l4 -10l2 -10l4 -10l-4 -8v-13l6 -10l-5 -5l-9 -2l-3 -5l-6 -3l-24 -5h-193zM8 788l-8 10l2 5l-4 2v6l20 18l13 21l25 30l25 19l33 18l15 6l4 6l19 -2l20 -9l22 -24v-4l-6 -15l-28 -38l-10 -1l-6 -5l-19 -1l-38 -15l-19 -3 l-48 -21l-9 -9z" glyph-name="lacute" horiz-adv-x="376" unicode=""/></font>
</defs>
</svg>
